ply
format ascii 1.0
comment Created in Blender version 4.2.2 LTS
element vertex 42
property float x
property float y
property float z
property float nx
property float ny
property float nz
property uchar red
property uchar green
property uchar blue
property uchar alpha
property float s
property float t
element face 18
property list uchar uint vertex_indices
end_header
-2 -1 1.356603 -0.036575526 -0.07315105 -0.9966499 173 172 254 255 0.375 0
-2 -1 1.5033969 -0.036575526 -0.07315105 0.9966499 43 33 254 255 0.625 0
-2 1 1.5033969 -0.036575526 0.07315105 0.9966499 185 186 57 255 0.625 0.25
-2 1 1.356603 -0.036575526 0.07315105 -0.9966499 254 254 254 255 0.375 0.25
2 1 1.5033969 0.036575526 0.07315105 0.9966499 54 254 51 255 0.625 0.5
2 1 1.356603 0.036575526 0.07315105 -0.9966499 66 254 63 255 0.375 0.5
2 -1 1.5033969 0.036575526 -0.07315105 0.9966499 199 254 199 255 0.625 0.75
2 -1 1.356603 0.036575526 -0.07315105 -0.9966499 254 92 82 255 0.375 0.75
-2 -1 1.5033969 -0.036575526 -0.07315105 0.9966499 43 33 254 255 0.625 1
-2 -1 1.356603 -0.036575526 -0.07315105 -0.9966499 173 172 254 255 0.375 1
-2 1 1.356603 -0.036575526 0.07315105 -0.9966499 254 254 254 255 0.125 0.5
-2 -1 1.356603 -0.036575526 -0.07315105 -0.9966499 173 172 254 255 0.125 0.75
-2 1 1.5033969 -0.036575526 0.07315105 0.9966499 185 186 57 255 0.875 0.5
-2 -1 1.5033969 -0.036575526 -0.07315105 0.9966499 43 33 254 255 0.875 0.75
-1.6 -1 0.0033968687 -0.036575526 -0.07315105 -0.9966499 254 237 236 255 0.375 0
-1.6 -1 1.4713355 -0.036575526 -0.07315105 0.9966499 254 254 254 255 0.625 0
-1.6 1 1.4713355 -0.036575526 0.07315105 0.9966499 252 254 252 255 0.625 0.25
-1.6 1 0.0033968687 -0.036575526 0.07315105 -0.9966499 254 254 254 255 0.375 0.25
-1.4 1 1.4713355 0.036575526 0.07315105 0.9966499 228 254 228 255 0.625 0.5
-1.4 1 0.0033968687 0.036575526 0.07315105 -0.9966499 254 254 254 255 0.375 0.5
-1.4 -1 1.4713355 0.036575526 -0.07315105 0.9966499 254 254 254 255 0.625 0.75
-1.4 -1 0.0033968687 0.036575526 -0.07315105 -0.9966499 254 240 239 255 0.375 0.75
-1.6 -1 1.4713355 -0.036575526 -0.07315105 0.9966499 254 254 254 255 0.625 1
-1.6 -1 0.0033968687 -0.036575526 -0.07315105 -0.9966499 254 237 236 255 0.375 1
-1.6 1 0.0033968687 -0.036575526 0.07315105 -0.9966499 254 254 254 255 0.125 0.5
-1.6 -1 0.0033968687 -0.036575526 -0.07315105 -0.9966499 254 237 236 255 0.125 0.75
-1.6 1 1.4713355 -0.036575526 0.07315105 0.9966499 252 254 252 255 0.875 0.5
-1.6 -1 1.4713355 -0.036575526 -0.07315105 0.9966499 254 254 254 255 0.875 0.75
1.4 -1 0.0033968687 -0.036575526 -0.07315105 -0.9966499 254 240 240 255 0.375 0
1.4 -1 1.4713355 -0.036575526 -0.07315105 0.9966499 253 254 253 255 0.625 0
1.4 1 1.4713355 -0.036575526 0.07315105 0.9966499 190 254 190 255 0.625 0.25
1.4 1 0.0033968687 -0.036575526 0.07315105 -0.9966499 254 250 250 255 0.375 0.25
1.6 1 1.4713355 0.036575526 0.07315105 0.9966499 191 254 191 255 0.625 0.5
1.6 1 0.0033968687 0.036575526 0.07315105 -0.9966499 254 251 251 255 0.375 0.5
1.6 -1 1.4713355 0.036575526 -0.07315105 0.9966499 254 254 254 255 0.625 0.75
1.6 -1 0.0033968687 0.036575526 -0.07315105 -0.9966499 254 243 242 255 0.375 0.75
1.4 -1 1.4713355 -0.036575526 -0.07315105 0.9966499 253 254 253 255 0.625 1
1.4 -1 0.0033968687 -0.036575526 -0.07315105 -0.9966499 254 240 240 255 0.375 1
1.4 1 0.0033968687 -0.036575526 0.07315105 -0.9966499 254 250 250 255 0.125 0.5
1.4 -1 0.0033968687 -0.036575526 -0.07315105 -0.9966499 254 240 240 255 0.125 0.75
1.4 1 1.4713355 -0.036575526 0.07315105 0.9966499 190 254 190 255 0.875 0.5
1.4 -1 1.4713355 -0.036575526 -0.07315105 0.9966499 253 254 253 255 0.875 0.75
4 0 1 2 3
4 3 2 4 5
4 5 4 6 7
4 7 6 8 9
4 10 5 7 11
4 4 12 13 6
4 14 15 16 17
4 17 16 18 19
4 19 18 20 21
4 21 20 22 23
4 24 19 21 25
4 18 26 27 20
4 28 29 30 31
4 31 30 32 33
4 33 32 34 35
4 35 34 36 37
4 38 33 35 39
4 32 40 41 34
