ply
format ascii 1.0
comment Created in Blender version 4.2.2 LTS
element vertex 42
property float x
property float y
property float z
property float nx
property float ny
property float nz
property uchar red
property uchar green
property uchar blue
property uchar alpha
property float s
property float t
element face 18
property list uchar uint vertex_indices
end_header
-2 -1 1.3526031 -0.036575526 -0.07315105 -0.9966499 106 105 255 255 0.375 0
-2 -1 1.4993969 -0.036575526 -0.07315105 0.9966499 6 4 255 255 0.625 0
-2 1 1.4993969 -0.036575526 0.07315105 0.9966499 239 27 10 255 0.625 0.25
-2 1 1.3526031 -0.036575526 0.07315105 -0.9966499 85 34 252 255 0.375 0.25
2 1 1.4993969 0.036575526 0.07315105 0.9966499 9 255 8 255 0.625 0.5
2 1 1.3526031 0.036575526 0.07315105 -0.9966499 14 255 12 255 0.375 0.5
2 -1 1.4993969 0.036575526 -0.07315105 0.9966499 147 255 147 255 0.625 0.75
2 -1 1.3526031 0.036575526 -0.07315105 -0.9966499 255 17 12 255 0.375 0.75
-2 -1 1.4993969 -0.036575526 -0.07315105 0.9966499 6 4 255 255 0.625 1
-2 -1 1.3526031 -0.036575526 -0.07315105 -0.9966499 106 105 255 255 0.375 1
-2 1 1.3526031 -0.036575526 0.07315105 -0.9966499 85 34 252 255 0.125 0.5
-2 -1 1.3526031 -0.036575526 -0.07315105 -0.9966499 106 105 255 255 0.125 0.75
-2 1 1.4993969 -0.036575526 0.07315105 0.9966499 239 27 10 255 0.875 0.5
-2 -1 1.4993969 -0.036575526 -0.07315105 0.9966499 6 4 255 255 0.875 0.75
-1.6 -1 -0.0006030798 -0.036575526 -0.07315105 -0.9966499 255 87 82 255 0.375 0
-1.6 -1 1.4673356 -0.036575526 -0.07315105 0.9966499 255 255 255 255 0.625 0
-1.6 1 1.4673356 -0.036575526 0.07315105 0.9966499 252 106 101 255 0.625 0.25
-1.6 1 -0.0006030798 -0.036575526 0.07315105 -0.9966499 255 255 255 255 0.375 0.25
-1.4 1 1.4673356 0.036575526 0.07315105 0.9966499 213 188 145 255 0.625 0.5
-1.4 1 -0.0006030798 0.036575526 0.07315105 -0.9966499 248 248 255 255 0.375 0.5
-1.4 -1 1.4673356 0.036575526 -0.07315105 0.9966499 255 255 255 255 0.625 0.75
-1.4 -1 -0.0006030798 0.036575526 -0.07315105 -0.9966499 255 65 60 255 0.375 0.75
-1.6 -1 1.4673356 -0.036575526 -0.07315105 0.9966499 255 255 255 255 0.625 1
-1.6 -1 -0.0006030798 -0.036575526 -0.07315105 -0.9966499 255 87 82 255 0.375 1
-1.6 1 -0.0006030798 -0.036575526 0.07315105 -0.9966499 255 255 255 255 0.125 0.5
-1.6 -1 -0.0006030798 -0.036575526 -0.07315105 -0.9966499 255 87 82 255 0.125 0.75
-1.6 1 1.4673356 -0.036575526 0.07315105 0.9966499 252 106 101 255 0.875 0.5
-1.6 -1 1.4673356 -0.036575526 -0.07315105 0.9966499 255 255 255 255 0.875 0.75
1.4 -1 -0.0006030798 -0.036575526 -0.07315105 -0.9966499 255 48 43 255 0.375 0
1.4 -1 1.4673356 -0.036575526 -0.07315105 0.9966499 252 255 252 255 0.625 0
1.4 1 1.4673356 -0.036575526 0.07315105 0.9966499 132 255 132 255 0.625 0.25
1.4 1 -0.0006030798 -0.036575526 0.07315105 -0.9966499 255 245 245 255 0.375 0.25
1.6 1 1.4673356 0.036575526 0.07315105 0.9966499 134 255 134 255 0.625 0.5
1.6 1 -0.0006030798 0.036575526 0.07315105 -0.9966499 255 248 248 255 0.375 0.5
1.6 -1 1.4673356 0.036575526 -0.07315105 0.9966499 255 255 255 255 0.625 0.75
1.6 -1 -0.0006030798 0.036575526 -0.07315105 -0.9966499 255 74 68 255 0.375 0.75
1.4 -1 1.4673356 -0.036575526 -0.07315105 0.9966499 252 255 252 255 0.625 1
1.4 -1 -0.0006030798 -0.036575526 -0.07315105 -0.9966499 255 48 43 255 0.375 1
1.4 1 -0.0006030798 -0.036575526 0.07315105 -0.9966499 255 245 245 255 0.125 0.5
1.4 -1 -0.0006030798 -0.036575526 -0.07315105 -0.9966499 255 48 43 255 0.125 0.75
1.4 1 1.4673356 -0.036575526 0.07315105 0.9966499 132 255 132 255 0.875 0.5
1.4 -1 1.4673356 -0.036575526 -0.07315105 0.9966499 252 255 252 255 0.875 0.75
4 0 1 2 3
4 3 2 4 5
4 5 4 6 7
4 7 6 8 9
4 10 5 7 11
4 4 12 13 6
4 14 15 16 17
4 17 16 18 19
4 19 18 20 21
4 21 20 22 23
4 24 19 21 25
4 18 26 27 20
4 28 29 30 31
4 31 30 32 33
4 33 32 34 35
4 35 34 36 37
4 38 33 35 39
4 32 40 41 34
