ply
format ascii 1.0
comment Exported by Aspose.3D 24.9.1
element vertex 201
property float x
property float y
property float z
property float nx
property float ny
property float nz
element face 348
property list uchar int vertex_index
end_header
0.1929513216018677 -0.1573048382997513 -0.3325059115886688 0.24575580578485987 0.5772802985510772 -0.5282101994083818
0.1936873495578766 -0.146702915430069 -0.3050651252269745 0.36903489279046925 0.8615693830825177 -0.3105058773108179
0.1845663040876389 -0.1511067599058151 -0.3218015432357788 0.11906697170380943 0.9320394059636842 -0.34223617865466405
0.1886104494333267 -0.1701835095882416 -0.3270166516304016 5.504885351726646E-05 -0.4066744944568571 -0.9135731237990111
0.1862175464630127 -0.1884157806634903 -0.3189027011394501 5.504885351726646E-05 -0.4066744944568571 -0.9135731237990111
0.1925487667322159 -0.1700072437524796 -0.3270947933197021 5.504885351726646E-05 -0.4066744944568571 -0.9135731237990111
0.1792042702436447 -0.1552911996841431 -0.3334562182426453 -0.10626361974667857 0.05159465197205616 -0.647075768452558
0.1790127605199814 -0.1526796519756317 -0.3271643221378326 -0.2205319604742879 0.04127660385926727 -0.5937936507997922
0.1795397400856018 -0.1594700813293457 -0.3242726027965546 -0.5963138482186854 -0.2309283910510288 -0.4339121506470971
0.1797193139791489 -0.1622258275747299 -0.3304099142551422 -0.6645426299588668 -0.18394195107871072 -0.2830265120160707
0.146396741271019 -0.1511344611644745 -0.3277105689048767 -0.0022611050050726405 0.3558252100891018 -0.6337878116954759
0.1682222187519073 -0.151297464966774 -0.3270931541919708 0.04956257178431124 0.7923826889937805 -0.5147120702097945
0.1518309414386749 -0.1476893573999405 -0.3192463219165802 -0.013490931299836665 0.9384669779007212 -0.3451053841401936
0.1721337735652924 -0.1557431817054749 -0.3257821500301361 5.504885351726646E-05 -0.4066744944568571 -0.9135731237990111
0.1789227277040482 -0.1637881547212601 -0.3222017884254456 -0.13192321517497999 -0.39670768853444477 -0.9084158052101219
0.1667777001857758 -0.1555781215429306 -0.32585608959198 5.504885351726646E-05 -0.4066744944568571 -0.9135731237990111
0.1906600445508957 -0.1622890681028366 -0.3305298089981079 5.504885351726646E-05 -0.4066744944568571 -0.9135731237990111
0.1962462067604065 -0.1590393483638763 -0.3318707644939423 0.30701918847711546 0.08301522915527185 -0.6293244830035735
0.1951617449522018 -0.1660847961902618 -0.3288401961326599 5.504885351726646E-05 -0.4066744944568571 -0.9135731237990111
0.1965904533863068 -0.1494108140468597 -0.3038644194602966 0.9276134868624897 0.33457400861508413 -0.07524786446633921
0.1981192380189896 -0.1622645556926727 -0.3304266035556793 0.382467895218037 -0.12882810329214064 -0.5700053855821391
0.1858452260494232 -0.1657314300537109 -0.328997790813446 5.504885351726646E-05 -0.4066744944568571 -0.9135731237990111
0.1930801868438721 -0.1864880174398422 -0.3197607696056366 5.504885351726646E-05 -0.4066744944568571 -0.9135731237990111
0.1990917474031448 -0.1777208149433136 -0.3234800100326538 0.5701379421259859 -0.15181142058419855 -0.359987785361056
0.1660428941249847 -0.1579400449991226 -0.3248046636581421 5.504885351726646E-05 -0.4066744944568571 -0.9135731237990111
0.1121896803379059 -0.1679267287254333 -0.3203641772270203 5.504885351726645E-05 -0.40667449445685705 -0.9135731237990111
0.1145374104380608 -0.1854515075683594 -0.3125653564929962 5.504885351726645E-05 -0.40667449445685705 -0.9135731237990111
0.1205342561006546 -0.1525802612304688 -0.327028214931488 -0.047810428656175574 0.03844099533056603 -0.7230488633307586
0.1323845535516739 -0.1670815646648407 -0.3207387924194336 5.504885351726646E-05 -0.4066744944568571 -0.9135731237990111
0.1077472642064095 -0.154944509267807 -0.3260696530342102 -0.11408120381768277 0.11629399673878978 -0.6791507188416408
0.1065673157572746 -0.1469827145338058 -0.3049576282501221 -0.48579037046801743 0.7938324831921338 -0.2806161535894595
0.114043653011322 -0.1606477349996567 -0.3236033022403717 5.504885351726646E-05 -0.4066744944568571 -0.9135731237990111
0.1433815658092499 -0.1578498631715775 -0.3248472213745117 5.504885351726646E-05 -0.4066744944568571 -0.9135731237990111
0.1569109410047531 -0.1577045619487762 -0.3249107599258423 5.504885351726646E-05 -0.4066744944568571 -0.9135731237990111
0.1073717474937439 -0.1605682820081711 -0.3236390352249146 5.504885351726646E-05 -0.4066744944568571 -0.9135731237990111
0.1034772172570229 -0.1580796539783478 -0.3245815336704254 -0.4671502345455649 0.026366993718488264 -0.5212676056109373
0.1041570529341698 -0.1502733379602432 -0.303490549325943 -0.9688374908269934 0.21738505237733452 -0.02375442171758723
0.1021366640925407 -0.1753340661525726 -0.3168801963329315 -0.570094933243502 -0.16591879310108126 -0.3537766373091842
0.1480655670166016 -0.1470254063606262 -0.3174652755260468 -0.013490931299836665 0.9384669779007212 -0.34510538414019354
0.1062824353575706 -0.165061742067337 -0.3216392993927002 5.504885351726646E-05 -0.4066744944568571 -0.9135731237990111
0.1058960556983948 -0.1557352095842361 -0.3257090449333191 -0.2783401087976548 0.1761045431938612 -0.6257107711004534
0.136639267206192 -0.1432132869958878 -0.3066234588623047 -0.013490931299836665 0.9384669779007212 -0.3451053841401936
0.1684485226869583 -0.1992769241333008 -0.3060263991355896 0.07004175893115508 -0.8594279479915672 0.19631728052851896
0.1477023810148239 -0.1997847557067871 -0.3060523867607117 0.005328843452973795 -0.7575650545146351 -0.09677219371507871
0.1573313921689987 -0.1897643804550171 -0.2859042286872864 0.013483624034982617 -0.8844831029823754 0.4663773498161679
0.1965819299221039 -0.1835003942251205 -0.2886931300163269 0.9260715460481608 -0.2670714999109701 0.19270899065358615
0.1981223672628403 -0.1943997144699097 -0.3160954415798187 0.5166076073204405 -0.304189415221453 -0.37494717190791665
0.1927531808614731 -0.1992741823196411 -0.3138641119003296 0.1777573717298343 -0.7409302349217786 -0.10691015762560925
0.1789905726909637 -0.1983248591423035 -0.3068549931049347 -0.07364197457517176 -0.5872404647936532 -0.2810965822196323
0.1844475865364075 -0.1877564936876297 -0.2868078947067261 0.14353419742338483 -0.8756149351419237 0.46119022054509096
0.1838216185569763 -0.2004248648881912 -0.3135561347007751 0.014402191365662204 -0.4730719890857773 -0.851643856578508
0.166784793138504 -0.1954295784235001 -0.3081212639808655 5.504885351726646E-05 -0.4066744944568571 -0.9135731237990111
0.1791784912347794 -0.2012543380260468 -0.3129858076572418 -0.36384551506143337 -0.41624755467618746 -0.20676643277248932
0.1890349984169006 -0.194446012377739 -0.3162188529968262 5.504885351726646E-05 -0.4066744944568571 -0.9135731237990111
0.1727948784828186 -0.1949689388275146 -0.3083254396915436 5.504885351726646E-05 -0.4066744944568571 -0.9135731237990111
0.1945495307445526 -0.1919300258159637 -0.3173381686210632 5.504885351726646E-05 -0.4066744944568571 -0.9135731237990111
0.1797304749488831 -0.1944369524717331 -0.3160749971866608 -0.332827681450393 -0.2549761382862802 -0.6162535673595986
0.1796326786279678 -0.1918090730905533 -0.3098825514316559 -0.6657104117543031 -0.10327778211570326 -0.31893401092018614
0.1961696445941925 -0.1976048648357391 -0.3147533535957336 0.35566646093279985 -0.5108568175375141 -0.29501028475730817
0.1836930215358734 -0.1857521831989288 -0.3199663460254669 -0.06637049454575884 -0.40255290198308236 -0.9129874690042302
0.1941720545291901 -0.1858406513929367 -0.2876624763011932 0.49450609858340516 -0.7545841720364926 0.4095608484988019
0.1660830527544022 -0.193031907081604 -0.3091885149478912 5.504885351726646E-05 -0.4066744944568571 -0.9135731237990111
0.1072971746325493 -0.1959462016820908 -0.3078073263168335 -0.15394041635168118 -0.5694689159667802 -0.3738876835984587
0.1078667566180229 -0.1861645877361298 -0.2875211834907532 -0.3849336141594788 -0.813660548231665 0.43564047670237
0.1211225390434265 -0.198344349861145 -0.3066079020500183 -0.09204270020184267 -0.6378960093015275 -0.22726149563803005
0.1040424183011055 -0.1819850355386734 -0.2893763184547424 -0.9724514855942291 -0.1757230569086234 0.15316499416075943
0.1030331626534462 -0.1907016783952713 -0.3101180195808411 -0.3889475649255813 -0.3142939194375636 -0.4868778766151029
0.1238396242260933 -0.1986236572265625 -0.3065599799156189 -0.02269387783263397 -0.6233664460276755 -0.34799906015911636
0.1545841544866562 -0.1936808675527573 -0.3088995814323425 5.504885351726646E-05 -0.4066744944568571 -0.9135731237990111
0.1432972997426987 -0.1927519589662552 -0.3093143105506897 5.504885351726646E-05 -0.4066744944568571 -0.9135731237990111
0.113589309155941 -0.190469965338707 -0.3103315234184265 5.504885351726646E-05 -0.4066744944568571 -0.9135731237990111
0.1348723024129868 -0.1871181428432465 -0.3118219077587128 5.504885351726646E-05 -0.4066744944568571 -0.9135731237990111
0.1337107867002487 -0.1955538541078568 -0.2983929216861725 -0.05302578008083562 -0.9122890481221003 0.4060996913607432
0.1403303146362305 -0.1966884583234787 -0.3000248968601227 -0.05302578008083562 -0.9122890481221003 0.4060996913607432
0.1445295363664627 -0.1939170211553574 -0.2942611873149872 0.013483624034982615 -0.8844831029823752 0.4663773498161679
0.1445789784193039 -0.1956803500652313 -0.2977071404457092 0.013483624034982617 -0.8844831029823752 0.4663773498161679
0.1304325759410858 -0.1784694343805313 -0.3156703412532806 5.504885351726646E-05 -0.4066744944568571 -0.9135731237990111
0.1042869240045547 -0.193994015455246 -0.3086018860340118 -0.43878119925741144 -0.4687420276883475 -0.218704803192253
0.1086151227355003 -0.1911100894212723 -0.3100467324256897 5.504885351726646E-05 -0.4066744944568571 -0.9135731237990111
0.1059089824557304 -0.1872280836105347 -0.3117750883102417 5.504885351726646E-05 -0.4066744944568571 -0.9135731237990111
0.1333163678646088 -0.1935454308986664 -0.294463038444519 -0.05291199857737464 -0.8832168843082638 0.4659702304647273
0.1362650096416473 -0.1884440928697586 -0.3112314939498901 5.504885351726646E-05 -0.4066744944568571 -0.9135731237990111
0.1976932883262634 -0.1672971993684769 -0.2959269285202026 0.9977001120803373 0.039335884820295354 0.055201218467410426
0.1663820743560791 -0.1431584805250168 -0.3066365420818329 0.05290468043932505 0.9373200547829081 -0.34443026825379236
0.1516666859388351 -0.1463644951581955 -0.315725564956665 -0.013490931299836665 0.9384669779007212 -0.34510538414019354
0.1184343695640564 -0.1447355002164841 -0.3059485852718353 -0.14354138367556127 0.9286719749054123 -0.3420003423942533
0.1033304259181023 -0.1662703901529312 -0.2963366508483887 -0.9977074198162665 0.014647982915750628 0.06607072755818591
0.1221883744001389 -0.1883723884820938 -0.2865218222141266 -0.1841404492572026 -0.8691175241461978 0.459050132522951
0.138372540473938 -0.1925956755876541 -0.292024701833725 -0.05291199857737464 -0.8832168843082637 0.4659702304647273
0.1247676759958267 -0.18871009349823 -0.286360114812851 -0.05291199857737464 -0.8832168843082636 0.4659702304647273
0.1052895858883858 -0.1844845116138458 -0.2882674038410187 -0.7728253018811356 -0.5492465504503669 0.3179139499781414
0.1881276220083237 -0.1387102752923965 -0.2544629573822021 0.916922143044425 0.23347669610743058 0.32363933007219264
0.1874217092990875 -0.1526853293180466 -0.2464244216680527 0.9178302407737995 0.1156913951223997 0.37974089879250816
0.1856895834207535 -0.1395246386528015 -0.2483088076114655 0.7153897889974026 0.2938771923878839 0.5852896255570083
0.1897206455469131 -0.1606394201517105 -0.2987022399902344 5.504885351726646E-05 -0.4066744944568571 -0.9135731237990111
0.1912418901920319 -0.17960125207901 -0.2902620732784271 5.504885351726646E-05 -0.4066744944568571 -0.9135731237990111
0.197196364402771 -0.1672953218221664 -0.2957373559474945 0.4988775804669273 -0.18366930481828087 -0.4291859526658004
0.1728246510028839 -0.1438184827566147 -0.30619215965271 0.014468584740555755 -0.04013052648237571 -0.7583523450139515
0.1956729143857956 -0.148972824215889 -0.3038922250270844 0.3552513811380095 -0.003287435425469308 -0.5927976010930843
0.1058462783694267 -0.1731847822666168 -0.2764557898044586 -0.9882550608999906 -0.018665764052818272 0.15166912625145726
0.1058524698019028 -0.170811802148819 -0.2756713628768921 -0.9882550608999907 -0.018665764052818275 0.15166912625145726
0.1070797294378281 -0.1718388795852661 -0.2681899070739746 -0.9497028635480538 -0.2046805481145793 0.23700283583143464
0.1152707785367966 -0.1394974291324615 -0.2481994330883026 -0.5803680385818452 0.30506496176239434 0.6095373704649826
0.1134173199534416 -0.1384848803281784 -0.2527785003185272 -0.9178736187349277 0.20470245132290274 0.3400072447064083
0.1154196411371231 -0.1335781812667847 -0.2517132461071014 -0.5831641643054682 0.6623906585362838 0.2542085210906611
0.1251955777406693 -0.1373026967048645 -0.2857251167297363 -0.07873972496685094 0.9561191786757888 -0.2821988162279912
0.1069038584828377 -0.1469703316688538 -0.3047724068164825 -0.28693797969995427 0.4282445570035155 -0.4569579795306942
0.1265165060758591 -0.1439945995807648 -0.3061063587665558 -0.04752674652238695 0.39864172891160665 -0.5719927623815552
0.1062051579356194 -0.154091089963913 -0.2738509774208069 -0.9911829041117703 0.04136746172832775 0.12587765372262164
0.104447141289711 -0.1829618215560913 -0.2887662351131439 -0.7278922918532735 -0.18698055716713657 -0.08050374090085524
0.1044678390026093 -0.1506758332252502 -0.303138256072998 -0.49031748799847075 -0.10582934198639124 -0.4641334799616242
0.1069954633712769 -0.1411787569522858 -0.2825561165809631 -0.8282094302715903 0.5393429766586946 -0.05568015655036993
0.1845320016145706 -0.1335308998823166 -0.2508203089237213 0.14433682211997576 0.5640246605163577 0.7241637561327088
0.1504178941249847 -0.139422819018364 -0.2480543106794357 -5.504885351726646E-05 0.4066744944568571 0.9135731237990111
0.1158759072422981 -0.1339172720909119 -0.2505675852298737 -0.12714998900385432 0.5023507409358182 0.7662356175825369
0.19289830327034 -0.142424613237381 -0.2912711501121521 0.46211950780237687 0.8565211671414642 -0.22981960479278732
0.1946623474359512 -0.1441573202610016 -0.2901004552841187 0.8521309576729849 0.5172047068627975 -0.07982557343539175
0.1944663524627686 -0.157263845205307 -0.2718740701675415 0.9805637560584414 0.0917175855709659 0.1734433763554961
0.1944027096033096 -0.1734314858913422 -0.2706817090511322 0.9367999163936768 -0.2390766822917817 0.25543738299073343
0.1914602965116501 -0.1647697240114212 -0.2565014064311981 0.929701499323463 -0.12027774650689095 0.348121222925189
0.1091250479221344 -0.1796156018972397 -0.2902610003948212 5.504885351726645E-05 -0.40667449445685705 -0.9135731237990111
0.1149883344769478 -0.1477655023336411 -0.304434597492218 5.504885351726646E-05 -0.4066744944568571 -0.9135731237990111
0.1917661130428314 -0.1735071390867233 -0.2659621238708496 0.4991046317967873 -0.686638015196283 0.528604580576353
0.1112271919846535 -0.1397400051355362 -0.2586639523506165 -0.9404355296010534 0.18237912671280615 0.2869126501279795
0.1093867719173431 -0.1377330869436264 -0.2685283124446869 -0.9118359645981947 0.39429619739852406 0.11439266752001127
0.1119612902402878 -0.1357326060533524 -0.2595448791980743 -0.8812056397695825 0.4355691181043675 0.18372850566002152
0.109726257622242 -0.1633048355579376 -0.2543741762638092 -0.9141339929797024 -0.15907942228676805 0.37289781480171375
0.1139426082372665 -0.1601706892251968 -0.2469475567340851 -0.391199195429137 -0.604957805287232 0.6853219566288229
0.1107166185975075 -0.1665641814470291 -0.2557260096073151 -0.47468408285513747 -0.692506267811625 0.5379148016580246
0.1082745566964149 -0.1861313730478287 -0.2873569428920746 -0.19243928265298071 -0.6101675213442611 -0.2389663235483206
0.1062056571245193 -0.1768776178359985 -0.2756292223930359 -0.7676595222118779 -0.5184609736451041 0.3766922839193841
0.1089170649647713 -0.1738055050373077 -0.2669611275196075 -0.5097164482809272 -0.6836874446290483 0.522264894865124
0.1957837343215942 -0.1837567090988159 -0.288407951593399 0.4106605807656004 -0.42501811157208863 -0.297024213432845
0.1151238605380058 -0.1486887633800507 -0.2442608028650284 -0.6966475607343547 0.24197473197989852 0.6201611154704986
0.1099019274115562 -0.1384050101041794 -0.2794438302516937 -0.36246383975063323 0.9139751989873567 -0.18239874042670692
0.150420218706131 -0.1485596746206284 -0.2439886331558228 -5.504885351726646E-05 0.4066744944568571 0.9135731237990111
0.1845209896564484 -0.1545690298080444 -0.2414561063051224 0.14333701964289355 0.06752324563963108 0.90864684660765
0.1162736788392067 -0.1545140594244003 -0.2415133863687515 -0.13643776754614684 0.19982819259150394 0.8758336735498111
0.1310928016901016 -0.156638041138649 -0.2406507134437561 -0.04222628713547427 -0.544452950272724 0.7311846808572638
0.1214581578969955 -0.1799240559339523 -0.2720049321651459 -0.11829878841775329 -0.8454949646309593 0.5207145681105767
0.135158509016037 -0.1893572807312012 -0.2858956754207611 -0.03941217328745342 -0.7395726700367464 0.164065663613426
0.185447946190834 -0.1611580401659012 -0.2480102181434631 0.14856785511583215 -0.7176654923179082 0.6803556669583752
0.1701714843511581 -0.1663731336593628 -0.2506921887397766 0.08536507538095296 -0.7649340942147417 0.6384266875789866
0.1717921048402786 -0.1570592075586319 -0.2411045432090759 0.08653451829462608 -0.6311058728879682 0.7627893350914376
0.1114004328846931 -0.1794194579124451 -0.2748231887817383 -0.18295477126798085 -0.8368620779236835 0.5159354748449999
0.1854575425386429 -0.167499840259552 -0.2556653320789337 0.15402923189129278 -0.7996099417217057 0.5804299585848313
0.1729196608066559 -0.1784248203039169 -0.2680202722549438 0.07872529036006315 -0.8495506329289843 0.5215995118361273
0.1504284888505936 -0.1895284652709961 -0.2858386635780334 0.008057083417209107 -0.6737980888121977 -0.051290255031781085
0.1151526719331741 -0.1541303098201752 -0.2421795427799225 -0.7880369841734605 -0.04354337036544962 0.5969048595481897
0.1925908774137497 -0.1860656887292862 -0.2873780131340027 0.17004181445180414 -0.6507018090186552 -0.0606046682475935
0.1705698817968369 -0.1890061497688293 -0.2860760092735291 0.026278462689032563 -0.554299873947566 -0.435182245253965
0.1151214614510536 -0.1849927008152008 -0.2878672480583191 5.504885351726646E-05 -0.4066744944568571 -0.9135731237990111
0.1127116084098816 -0.1538011878728867 -0.2477549165487289 -0.9193756423900598 0.1444966768470984 0.3658813175881088
0.1858564764261246 -0.1848589479923248 -0.2879224419593811 5.504885351726645E-05 -0.40667449445685705 -0.9135731237990111
0.1908933520317078 -0.136687383055687 -0.2659121453762054 0.8986932573929071 0.4037954850031069 0.1247554292007222
0.1900078654289246 -0.1434225738048553 -0.2569739818572998 0.9418369475480561 0.15220299272395144 0.29962879240692586
0.1900147348642349 -0.1666814982891083 -0.2559999227523804 0.49124053574645454 -0.6486520827164017 0.5813202315653656
0.1857651770114899 -0.1541313529014587 -0.2422983348369598 0.7864545853667719 -0.0652656503071763 0.6141901823096494
0.188836395740509 -0.1596472710371017 -0.248896911740303 0.8592883762984888 -0.2133667870985299 0.4648635289217228
0.1876064836978912 -0.1606812179088593 -0.2480823844671249 0.511006368919776 -0.5789078628502873 0.6354039480940759
0.1915460526943207 -0.1601995229721069 -0.2575320303440094 0.9791903419671593 0.0322751512104732 0.2003611459654267
0.1504230052232742 -0.1649273633956909 -0.2480544298887253 0.017541646339798073 -0.7669844357343507 0.6414258850287765
0.1504227519035339 -0.1752024590969086 -0.2616240978240967 0.013244950039121326 -0.8162406576097269 0.5775601788240787
0.1275374740362167 -0.1674807965755463 -0.25234055519104 -0.119303292892983 -0.760348971622945 0.638463911005799
0.1504236161708832 -0.1622374057769775 -0.2452445477247238 0.017178703018812223 -0.7239823903415421 0.689604517559114
0.1504234075546265 -0.1570133864879608 -0.2404603511095047 0.0012337456621199902 -0.10853043557418288 0.9308810374459724
0.1895774900913239 -0.1561488211154938 -0.2511473298072815 0.9403985008453968 0.0911797570086109 0.32762312421375406
0.1504156589508057 -0.136951819062233 -0.2875652313232422 -0.013406292233957093 0.959141776328943 -0.28260807530765536
0.1897570341825485 -0.1525163799524307 -0.2529035210609436 0.9403985008453967 0.09117975700861089 0.32762312421375406
0.1912070512771606 -0.1578042358160019 -0.2566859126091003 0.9601561038126128 0.06516452614711053 0.27176063151863245
0.1749102473258972 -0.1388116329908371 -0.2908806502819061 0.1182842745295215 0.9527562607908934 -0.2797576414019465
0.1504405438899994 -0.1344115287065506 -0.2789324820041656 -0.013266494993682024 0.9754118003276091 -0.2199904995499457
0.1929893791675568 -0.1466841101646423 -0.3049080669879913 0.259652489751244 0.6304412610268534 -0.439543361558433
0.185776874423027 -0.1343840509653091 -0.2511017620563507 0.7762694543227874 0.5025205731555978 0.38062948892692444
0.1113597303628922 -0.1743311733007431 -0.2667621970176697 -0.18295477126798088 -0.8368620779236835 0.5159354748449999
0.1904103606939316 -0.136660099029541 -0.2721261084079742 0.45668523971314423 0.8742556470041675 -0.16466831968983053
0.1872310489416122 -0.1340416967868805 -0.2592555284500122 0.38395568087912363 0.9224509442936639 -0.040771196847480956
0.1938108205795288 -0.1417037844657898 -0.2814075946807861 0.9496881813038628 0.3131270955620438 0.006616669603339517
0.1504125893115997 -0.1310356706380844 -0.252017617225647 -0.012424705201032251 0.8648270293393401 0.3591534428182315
0.1709442287683487 -0.1318873912096024 -0.260841578245163 0.04991809023997147 0.9959202643813619 -0.07517320840134983
0.1699303984642029 -0.1314945220947266 -0.2520264983177185 0.08811035528941938 0.8894768770163546 0.19508812807323003
0.1800067573785782 -0.1348279565572739 -0.2727591693401337 0.11701557854925057 0.9690945802198937 -0.21717055271194602
0.1894735991954803 -0.1390611529350281 -0.2824375629425049 0.18294035205791004 0.9434306184089137 -0.2765348004094645
0.1964148581027985 -0.1508505195379257 -0.3030509948730469 0.7850046135414313 0.06510249627333646 -0.13432938593202678
0.1950550675392151 -0.1477062255144119 -0.2874714732170105 0.988240631273491 0.12523430986833117 0.08773153556147906
0.1855947375297546 -0.1486203074455261 -0.2441425919532776 0.5025137237734121 0.30201386566766947 0.7440786641319423
0.1110202968120575 -0.1525321751832962 -0.2529082298278809 -0.9615629982992183 0.09539862048105882 0.25747952056839085
0.1111095920205116 -0.1433756202459335 -0.256914883852005 -0.9404355296010534 0.18237912671280618 0.28691265012797956
0.1131381243467331 -0.1343268305063248 -0.2596640288829803 -0.481692100430442 0.8757802751300031 -0.03133097630341409
0.1154193952679634 -0.1353564560413361 -0.2699934244155884 -0.15405180730330603 0.9664081134342025 -0.20572651495402947
0.1282249540090561 -0.1321808695793152 -0.2622390389442444 -0.08539503711948707 0.986299681937436 -0.1411404444001585
0.1504155397415161 -0.1320878118276596 -0.2677448391914368 -0.01757182166676496 0.9899034420098597 -0.1406499434068289
0.1894578486680984 -0.1417086869478226 -0.2915804088115692 0.18294035205791004 0.9434306184089137 -0.2765348004094645
0.1919560730457306 -0.1396243274211884 -0.282188355922699 0.5923635862697497 0.7811319700217754 -0.1973277149098449
0.1945981234312057 -0.1474250257015228 -0.2828258574008942 0.9882406312734908 0.12523430986833117 0.08773153556147903
0.1271672695875168 -0.1318595260381699 -0.2523465752601624 -0.09854579393150158 0.9609405213128455 0.258615624039629
0.111079640686512 -0.136138379573822 -0.2696296870708466 -0.49126997819636326 0.8660287301478891 -0.09299487664048788
0.1085899397730827 -0.1788947135210037 -0.2750861644744873 -0.3823624586851555 -0.7811063004648386 0.49363133770292156
0.1066042333841324 -0.1693276017904282 -0.2707586288452148 -0.9882550608999906 -0.018665764052818272 0.15166912625145726
0.1093282997608185 -0.1421899944543839 -0.2652372121810913 -0.9601863472370454 0.15827961018290698 0.23019501206569878
0.1102758422493935 -0.1421496123075485 -0.26105135679245 -0.9601863472370453 0.15827961018290698 0.23019501206569878
3 0 1 2
3 3 4 5
3 2 6 0
3 7 8 9
3 10 11 12
3 7 13 14
3 15 7 10
3 6 16 17
3 17 16 18
3 19 17 20
3 7 15 13
3 7 9 6
3 21 6 9
3 17 18 20
3 20 18 22
3 19 20 23
3 20 22 23
3 7 14 8
3 16 6 21
3 17 0 6
3 0 17 1
3 7 11 10
3 15 10 24
3 22 18 5
3 7 6 2
3 7 2 11
3 25 26 27
3 26 28 27
3 29 27 30
3 31 27 29
3 28 32 27
3 33 24 27
3 29 34 31
3 35 36 37
3 10 12 38
3 25 27 31
3 37 25 39
3 37 39 35
3 27 32 33
3 30 40 29
3 29 40 34
3 41 27 10
3 27 24 10
3 34 40 35
3 30 35 40
3 35 39 34
3 34 39 31
3 39 25 31
3 42 43 44
3 45 23 46
3 47 48 49
3 4 3 50
3 48 51 43
3 47 52 48
3 50 53 4
3 54 51 48
3 55 46 23
3 47 53 50
3 52 47 50
3 52 56 57
3 52 57 48
3 57 54 48
3 55 58 46
3 45 46 58
3 56 52 50
3 3 59 50
3 5 4 22
3 56 50 59
3 53 58 55
3 60 58 47
3 58 53 47
3 43 42 48
3 49 48 42
3 43 51 61
3 55 23 22
3 62 63 64
3 65 66 37
3 67 68 69
3 37 66 25
3 64 70 62
3 71 70 64
3 67 43 61
3 72 43 67
3 72 73 43
3 74 43 75
3 76 26 71
3 62 77 63
3 62 70 78
3 67 61 68
3 62 78 77
3 79 25 66
3 26 76 28
3 71 26 70
3 65 77 66
3 66 77 79
3 80 72 67
3 81 67 69
3 79 77 78
3 43 73 75
3 79 78 26
3 78 70 26
3 82 19 23
3 11 83 12
3 84 83 41
3 2 1 83
3 84 12 83
3 1 17 19
3 11 2 83
3 85 27 41
3 41 10 38
3 86 37 36
3 41 38 84
3 35 30 36
3 85 30 27
3 38 12 84
3 49 42 44
3 45 58 60
3 82 23 45
3 49 60 47
3 65 37 86
3 74 44 43
3 63 87 64
3 88 89 44
3 89 88 80
3 67 89 80
3 77 65 90
3 74 88 44
3 90 63 77
3 75 73 74
3 73 72 74
3 72 80 74
3 80 88 74
3 91 92 93
3 94 95 96
3 97 94 98
3 99 100 101
3 102 103 104
3 105 106 107
3 108 109 110
3 110 106 111
3 112 113 114
3 108 110 111
3 115 98 116
3 117 118 119
3 120 97 121
3 95 94 97
3 119 118 122
3 123 124 125
3 126 127 128
3 109 108 100
3 129 109 130
3 109 100 99
3 101 131 130
3 96 95 132
3 133 103 102
3 111 106 134
3 135 136 137
3 136 135 113
3 118 96 132
3 127 137 138
3 129 139 140
3 141 142 143
3 139 129 144
3 145 146 142
3 147 129 140
3 127 148 137
3 122 132 149
3 129 150 151
3 148 126 152
3 148 127 126
3 96 118 117
3 95 97 153
3 94 96 98
3 154 155 91
3 118 132 122
3 132 153 149
3 122 145 156
3 157 158 159
3 117 119 160
3 146 145 122
3 161 162 163
3 143 142 164
3 137 136 165
3 137 148 133
3 146 149 150
3 119 122 156
3 166 119 158
3 145 142 141
3 164 138 165
3 136 141 143
3 107 97 167
3 106 105 134
3 97 107 121
3 106 110 121
3 132 95 153
3 120 129 151
3 110 109 120
3 146 122 149
3 168 155 169
3 167 170 171
3 117 155 154
3 170 97 172
3 149 153 150
3 150 129 147
3 142 146 162
3 146 150 147
3 109 129 120
3 153 97 151
3 173 154 91
3 119 166 169
3 155 168 92
3 92 168 166
3 127 138 163
3 162 139 163
3 143 164 165
3 174 131 128
3 138 164 161
3 164 142 161
3 150 153 151
3 97 120 151
3 161 142 162
3 146 147 162
3 162 147 140
3 139 162 140
3 158 156 159
3 92 158 157
3 92 166 158
3 141 136 159
3 166 168 169
3 155 117 169
3 175 154 176
3 112 173 93
3 177 154 175
3 178 179 180
3 175 181 182
3 177 183 184
3 172 97 98
3 98 96 183
3 117 160 169
3 160 119 169
3 158 119 156
3 145 141 156
3 156 141 159
3 136 157 159
3 136 143 165
3 138 137 165
3 157 136 185
3 155 92 91
3 103 186 187
3 188 104 125
3 103 133 152
3 134 105 189
3 136 113 112
3 92 157 185
3 136 112 185
3 173 91 93
3 112 93 185
3 93 92 185
3 189 105 190
3 179 178 191
3 108 111 124
3 191 178 190
3 137 133 102
3 135 137 114
3 172 98 115
3 170 172 192
3 192 172 115
3 112 178 180
3 116 177 193
3 117 154 177
3 117 177 194
3 154 173 176
3 98 183 116
3 183 177 116
3 170 192 182
3 171 191 190
3 192 115 182
3 177 175 193
3 181 175 176
3 173 112 176
3 97 170 167
3 105 107 167
3 182 115 193
3 181 170 182
3 181 176 179
3 102 104 114
3 105 167 171
3 195 178 114
3 181 179 191
3 170 181 171
3 181 191 171
3 190 178 195
3 175 182 193
3 115 116 193
3 96 117 184
3 183 96 184
3 184 117 194
3 177 184 194
3 176 112 180
3 179 176 180
3 105 171 190
3 134 189 196
3 107 106 121
3 110 120 121
3 144 129 197
3 139 144 174
3 126 108 186
3 126 186 152
3 190 195 104
3 104 195 114
3 174 197 131
3 139 174 128
3 109 99 101
3 174 144 197
3 109 101 130
3 101 126 128
3 189 190 188
3 113 135 114
3 100 108 198
3 101 100 198
3 139 128 163
3 131 101 128
3 128 127 163
3 138 161 163
3 131 197 130
3 197 129 130
3 108 126 198
3 126 101 198
3 133 148 152
3 186 103 152
3 111 134 196
3 199 124 123
3 108 124 199
3 103 187 123
3 124 111 196
3 124 196 188
3 186 108 199
3 187 186 200
3 178 112 114
3 137 102 114
3 186 199 200
3 187 200 123
3 200 199 123
3 104 103 125
3 190 104 188
3 196 189 188
3 103 123 125
3 124 188 125
