ply
format ascii 1.0
comment Created in Blender version 4.2.2 LTS
element vertex 45
property float x
property float y
property float z
property float nx
property float ny
property float nz
property uchar red
property uchar green
property uchar blue
property uchar alpha
property float s
property float t
element face 14
property list uchar uint vertex_indices
end_header
0.05 0.06 -0.06 0.64699656 0.5391639 -0.5391639 255 255 255 255 0.375 0.5
0.05 0.06 -0.0029776238 0.74900377 0.65937537 0.064942814 190 190 44 255 0.4937966 0.5
0.05 0.055206113 0.02112287 0.7307865 0.6306458 0.26122203 190 190 44 255 0.54400593 0.5099873
0.05 0.04155428 0.04155428 0.7307865 0.48267537 0.48267543 190 190 44 255 0.58657146 0.53842866
0.05 0.02112287 0.055206113 0.7307865 0.26122203 0.6306458 190 190 44 255 0.6150129 0.58099407
0.05 -0.0029776238 0.06 0.74900377 0.064942785 0.6593754 190 190 44 255 0.625 0.63120335
0.05 -0.030257324 0.06 0.7490036 -0.06494301 0.6593755 190 190 44 255 0.625 0.6880361
0.05 -0.04163935 0.05773597 0.7307864 -0.26122218 0.6306457 190 190 44 255 0.62028325 0.71174866
0.05 -0.051288567 0.051288567 0.7307865 -0.48267543 0.48267537 190 190 44 255 0.6068512 0.73185116
0.05 -0.05773597 0.04163935 0.7307864 -0.63064575 0.26122215 190 190 44 255 0.5867486 0.74528325
0.05 -0.06 0.030257324 0.7490036 -0.65937555 0.06494297 190 190 44 255 0.5630361 0.75
0.05 -0.06 -0.06 0.64699656 -0.5391639 -0.5391639 190 190 44 255 0.375 0.75
0.05 -0.0029776238 0.06 0.74900377 0.064942785 0.6593754 190 190 44 255 0.625 0.6312034
-0.05 -0.0029776238 0.06 -0.74900377 0.0649428 0.6593754 190 190 44 255 0.875 0.6312034
-0.05 -0.030257324 0.06 -0.7490036 -0.06494299 0.6593755 190 190 44 255 0.875 0.6880361
-0.05 0.06 -0.06 -0.64699656 0.5391639 -0.5391639 190 190 44 255 0.375 0.25
-0.05 0.06 -0.0029776238 -0.74900377 0.6593754 0.064942814 190 190 44 255 0.4937966 0.25
-0.05 0.06 -0.06 -0.64699656 0.5391639 -0.5391639 190 190 44 255 0.125 0.5
-0.05 -0.06 -0.06 -0.64699656 -0.5391639 -0.5391639 190 190 44 255 0.125 0.75
-0.05 -0.04163935 0.05773597 -0.7307864 -0.26122218 0.6306457 190 190 44 255 0.875 0.7117486
0.05 -0.04163935 0.05773597 0.7307864 -0.26122218 0.6306457 190 190 44 255 0.625 0.7117486
-0.05 -0.051288567 0.051288567 -0.7307865 -0.48267537 0.48267537 190 190 44 255 0.875 0.75
0.05 -0.051288567 0.051288567 0.7307865 -0.48267543 0.48267537 190 190 44 255 0.625 0.75
-0.05 -0.051288567 0.051288567 -0.7307865 -0.48267537 0.48267537 190 190 44 255 0.625 1
-0.05 -0.05773597 0.04163935 -0.73078656 -0.63064575 0.26122218 190 190 44 255 0.58674866 1
0.05 -0.05773597 0.04163935 0.7307864 -0.63064575 0.26122215 190 190 44 255 0.58674866 0.75
-0.05 -0.06 0.030257324 -0.7490036 -0.6593755 0.06494297 190 190 44 255 0.5630361 1
-0.05 -0.06 -0.06 -0.64699656 -0.5391639 -0.5391639 190 190 44 255 0.375 1
0.05 0.02112287 0.055206113 0.7307865 0.26122203 0.6306458 190 190 44 255 0.625 0.580994
-0.05 0.02112287 0.055206113 -0.7307865 0.26122203 0.6306458 190 190 44 255 0.875 0.580994
0.05 0.04155428 0.04155428 0.7307865 0.48267537 0.48267543 190 190 44 255 0.625 0.5
-0.05 0.04155428 0.04155428 -0.7307864 0.48267537 0.48267537 190 190 44 255 0.875 0.5
-0.05 0.04155428 0.04155428 -0.7307864 0.48267537 0.48267537 190 190 44 255 0.625 0.25
0.05 0.055206113 0.02112287 0.7307865 0.6306458 0.26122203 190 190 44 255 0.544006 0.5
-0.05 0.055206113 0.02112287 -0.7307865 0.6306458 0.26122203 190 190 44 255 0.544006 0.25
-0.05 -0.06 -0.06 -0.64699656 -0.5391639 -0.5391639 190 190 44 255 0.375 0
-0.05 -0.06 0.030257324 -0.7490036 -0.6593755 0.06494297 190 190 44 255 0.5630361 0
-0.05 -0.05773597 0.04163935 -0.73078656 -0.63064575 0.26122218 190 190 44 255 0.58674866 0.0047167316
-0.05 -0.051288567 0.051288567 -0.7307865 -0.48267537 0.48267537 190 190 44 255 0.60685116 0.018148817
-0.05 -0.04163935 0.05773597 -0.7307864 -0.26122218 0.6306457 190 190 44 255 0.6202833 0.038251355
-0.05 -0.030257324 0.06 -0.7490036 -0.06494299 0.6593755 190 190 44 255 0.625 0.06196391
-0.05 -0.0029776238 0.06 -0.74900377 0.0649428 0.6593754 190 190 44 255 0.625 0.11879662
-0.05 0.02112287 0.055206113 -0.7307865 0.26122203 0.6306458 190 190 44 255 0.61501276 0.16900598
-0.05 0.04155428 0.04155428 -0.7307864 0.48267537 0.48267537 190 190 44 255 0.5865714 0.21157143
-0.05 0.055206113 0.02112287 -0.7307865 0.6306458 0.26122203 190 190 44 255 0.544006 0.24001274
12 0 1 2 3 4 5 6 7 8 9 10 11
4 12 13 14 6
4 15 16 1 0
4 17 0 11 18
4 6 14 19 20
4 20 19 21 22
4 22 23 24 25
4 25 24 26 10
4 11 10 26 27
4 13 12 28 29
4 29 28 30 31
4 32 30 33 34
4 34 33 1 16
12 35 36 37 38 39 40 41 42 43 44 16 15
