ply
format ascii 1.0
comment Created in Blender version 4.2.2 LTS
element vertex 367
property float x
property float y
property float z
property uchar red
property uchar green
property uchar blue
property uchar alpha
property float s
property float t
element face 411
property list uchar uint vertex_indices
end_header
-0.13784914 -0.05003911 0.04 38 190 38 255 0.625 0
-0.13784914 0.4499609 -0.04 190 116 5 255 0.375 0.25
-0.13784914 -0.05003911 -0.04 38 190 38 255 0.375 0
-0.13784914 0.4499609 0.04 166 135 22 255 0.625 0.25
-0.087849155 0.4499609 -0.039999995 56 180 33 255 0.375 0.5
-0.087849155 0.4499609 0.04 175 122 7 255 0.625 0.5
-0.087849155 0.04988884 0.0007315965 92 162 24 255 0.5022862 0.7000359
-0.087849155 0.049960893 7.8841005e-09 93 160 24 255 0.4999999 0.6999999
-0.087849155 -0.05003911 1.08643325e-08 38 190 38 255 0.5 0.75
-0.13784914 -0.05003911 0.04 38 190 38 255 0.625 1
-0.13784914 -0.05003911 -0.04 38 190 38 255 0.375 1
-0.10284914 0.004141501 -0.04 38 190 38 255 0.29999998 0.7229097
-0.10284914 -0.012044126 -0.039999995 38 190 38 255 0.3 0.73100245
-0.13784914 -0.05003911 -0.04 38 190 38 255 0.125 0.75
-0.13784914 -0.05003911 0.04 38 190 38 255 0.875 0.75
-0.10284914 -0.021738913 0.039999995 38 190 38 255 0.6999999 0.7358499
-0.10284914 -0.00421967 0.039999995 38 190 38 255 0.70000005 0.72709036
0.082150854 -0.041612584 -0.027778517 44 186 36 255 0.41319212 0.0042132605
0.08215087 -0.035860807 -0.03478708 55 180 33 255 0.39129037 0.00708915
0.082150854 -0.05003911 -0.039999995 70 173 30 255 0.375 0
0.082150854 0.4499609 0.04 88 162 25 255 0.625 0.25
0.13215086 0.4499609 -0.039999995 38 190 38 255 0.375 0.5
0.082150854 0.4499609 -0.039999995 88 164 26 255 0.375 0.25
0.13215086 0.4499609 0.040000003 72 171 29 255 0.625 0.5
0.13215086 -0.05003911 -0.039999995 76 169 29 255 0.375 0.75
0.13215086 -0.05003911 0.040000003 38 190 38 255 0.625 0.75
0.082150854 -0.05003911 0.04 38 190 38 255 0.625 1
0.082150854 -0.05003911 -4.950543e-09 38 190 38 255 0.5 1
0.097150855 -0.015833475 -0.039999995 38 190 38 255 0.2 0.7328973
0.097150855 0.0037346054 -0.04 38 190 38 255 0.19999999 0.7231132
0.097150855 -0.0038127918 0.039999995 38 190 38 255 0.8 0.72688687
0.097150855 -0.018832881 0.039999995 38 190 38 255 0.79999995 0.7343968
-0.10284914 0.027739407 0.041573487 38 190 38 255 0.84375 1
0.097150855 0.019095067 0.04619397 38 190 38 255 0.8125 0.5
0.097150855 0.027739407 0.041573472 38 190 38 255 0.84375 0.5
-0.10284914 0.019095067 0.046193983 38 190 38 255 0.8125 1
0.097150855 0.009715411 0.049039256 38 190 38 255 0.78125 0.5
-0.10284914 0.009715411 0.04903927 38 190 38 255 0.78125 1
0.09715086 -3.9104372e-05 0.049999993 38 190 38 255 0.75 0.5
-0.10284913 -3.9104372e-05 0.05000001 38 190 38 255 0.75 1
0.097150855 -0.009793622 0.049039256 38 190 38 255 0.71875 0.5
-0.10284914 -0.009793622 0.04903927 38 190 38 255 0.71875 1
0.097150855 -0.01917328 0.04619397 38 190 38 255 0.6875 0.5
-0.10284914 -0.01917328 0.046193983 38 190 38 255 0.6875 1
0.097150855 -0.027817622 0.041573472 38 190 38 255 0.65625 0.5
-0.10284914 -0.027817622 0.041573487 38 190 38 255 0.65625 1
0.082150854 -0.029734906 0.04 38 190 38 255 0.6483424 0.5375
-0.10284914 -0.05003911 9.016568e-09 57 176 32 255 0.5 1
-0.087849155 -0.05003911 1.08643325e-08 38 190 38 255 0.5 0.9625
-0.087849155 -0.05003911 1.08643325e-08 38 190 38 255 0.5 0.9625
-0.10284914 -0.027817622 -0.041573472 38 190 38 255 0.34375 1
0.097150855 -0.01917328 -0.046193983 38 190 38 255 0.3125 0.5
0.097150855 -0.027817622 -0.041573487 38 190 38 255 0.34375 0.5
-0.10284914 -0.01917328 -0.04619397 38 190 38 255 0.3125 1
0.097150855 -0.009793622 -0.04903927 38 190 38 255 0.28125 0.5
-0.10284914 -0.009793622 -0.049039256 38 190 38 255 0.28125 1
0.09715085 -3.9104372e-05 -0.05000001 38 190 38 255 0.25 0.5
-0.10284915 -3.9104372e-05 -0.049999993 38 190 38 255 0.25 1
0.097150855 0.009715411 -0.04903927 39 188 37 255 0.21875 0.5
-0.10284914 0.009715411 -0.049039256 38 190 38 255 0.21875 1
0.097150855 0.019095067 -0.046193983 42 188 36 255 0.1875 0.5
-0.10284914 0.019095067 -0.04619397 41 188 37 255 0.1875 1
0.097150855 0.027739407 -0.041573487 83 166 27 255 0.15625 0.5
-0.10284914 0.027739407 -0.041573472 47 182 35 255 0.15625 1
0.082150854 0.029656712 -0.039999995 137 140 15 255 0.14834225 0.5375
0.097150855 -0.04907837 0.00975451 38 190 38 255 0.79682165 0.014611542
0.097150855 0.0037346054 -0.04 38 190 38 255 0.558 0.26811376
0.097150855 0.049000155 -0.009754523 190 116 5 255 0.70317835 0.48538846
0.08215087 -0.034826186 0.0358217 38 190 38 255 0.6273438 0.53749996
-0.087849155 -0.029734924 0.04 38 190 38 255 0.6483422 0.9624999
0.08215087 0.034747973 -0.035821706 180 120 6 255 0.12734374 0.53749996
-0.087849155 0.029656697 -0.039999995 87 162 26 255 0.1483423 0.9625
-0.10284914 0.019095067 -0.04619397 41 188 37 255 0.028268918 0.34184402
-0.10284914 0.009715411 -0.049039256 38 190 38 255 0.014611542 0.29682168
-0.10284915 -3.9104372e-05 -0.049999993 38 190 38 255 0.010000005 0.25
-0.10284914 -0.009793622 -0.049039256 38 190 38 255 0.014611542 0.20317832
-0.10284914 -0.01917328 -0.04619397 38 190 38 255 0.028268918 0.15815598
-0.10284914 -0.027817622 -0.041573472 38 190 38 255 0.0504473 0.11666314
-0.10284914 -0.028443214 -0.039999995 38 190 38 255 0.05799999 0.113660306
-0.10284914 -0.01917328 0.046193983 38 190 38 255 0.47173107 0.15815598
-0.10284914 -0.009793622 0.04903927 38 190 38 255 0.48538846 0.20317832
-0.10284914 0.019095067 0.046193983 38 190 38 255 0.47173107 0.34184402
-0.10284913 -3.9104372e-05 0.05000001 38 190 38 255 0.49 0.25
-0.10284914 0.009715411 0.04903927 38 190 38 255 0.48538846 0.29682168
-0.10284914 0.027739407 0.041573487 38 190 38 255 0.4495527 0.38333684
-0.10284914 0.028365023 0.039999995 38 190 38 255 0.44199994 0.3863398
-0.10284914 -0.012044126 -0.039999995 38 190 38 255 0.05799998 0.1923759
-0.10284914 0.011965993 0.039999995 38 190 38 255 0.44199997 0.3076245
0.097150855 0.049960893 -6.0830114e-09 186 117 5 255 0.75 0.49
0.097150855 0.049000155 0.00975451 140 137 14 255 0.79682165 0.48538846
0.097150855 0.046154868 0.019134166 59 176 33 255 0.841844 0.47173107
0.097150855 0.041534375 0.027778504 38 190 38 255 0.88333684 0.4495527
0.097150855 0.035316236 0.035355333 38 190 38 255 0.9197056 0.41970563
0.097150855 0.029312883 0.039999995 38 190 38 255 0.94200003 0.39088956
0.097150855 0.027739407 0.041573472 38 190 38 255 0.9495527 0.38333684
0.097150855 0.019095067 0.04619397 38 190 38 255 0.97173107 0.34184402
0.097150855 0.009715411 0.049039256 38 190 38 255 0.98538846 0.29682168
0.09715086 -3.9104372e-05 0.049999993 38 190 38 255 0.99 0.25
0.097150855 -0.009793622 0.049039256 38 190 38 255 0.98538846 0.20317832
0.097150855 -0.01917328 0.04619397 38 190 38 255 0.97173107 0.15815598
0.097150855 -0.027817622 0.041573472 38 190 38 255 0.9495527 0.11666314
0.097150855 -0.029734906 0.039999995 38 190 38 255 0.94200003 0.107460186
0.097150855 -0.029391095 0.04 38 190 38 255 0.94200003 0.10911047
0.097150855 -0.041612584 0.027778504 38 190 38 255 0.88333684 0.0504473
0.097150855 -0.046233084 0.019134166 38 190 38 255 0.841844 0.028268918
0.097150855 -0.05003911 -6.0830114e-09 38 190 38 255 0.75 0.010000005
0.097150855 -0.04907837 -0.009754523 38 190 38 255 0.70317835 0.014611542
0.097150855 -0.046233084 -0.01913418 38 190 38 255 0.658156 0.028268918
0.097150855 -0.041612584 -0.02777852 39 190 38 255 0.61666316 0.0504473
0.097150855 -0.03539445 -0.03535535 43 188 36 255 0.5802944 0.080294386
0.097150855 -0.02939111 -0.04 38 190 38 255 0.5580001 0.1091104
0.097150855 -0.027817622 -0.041573487 38 190 38 255 0.5504473 0.11666314
0.097150855 -0.01917328 -0.046193983 38 190 38 255 0.52826893 0.15815598
0.097150855 -0.009793622 -0.04903927 38 190 38 255 0.51461154 0.20317832
0.09715085 -3.9104372e-05 -0.05000001 38 190 38 255 0.51 0.25
0.097150855 0.009715411 -0.04903927 39 188 37 255 0.51461154 0.29682168
0.097150855 0.019095067 -0.046193983 42 188 36 255 0.52826893 0.34184402
0.097150855 0.027739407 -0.041573487 83 166 27 255 0.5504473 0.38333684
0.097150855 0.029656712 -0.039999995 110 152 20 255 0.5580001 0.39253992
0.097150855 0.029312897 -0.04 106 153 22 255 0.558 0.3908896
0.097150855 0.041534375 -0.02777852 190 116 5 255 0.61666316 0.4495527
0.097150855 0.046154868 -0.01913418 190 116 5 255 0.658156 0.47173107
0.097150855 0.01575525 0.04 38 190 38 255 0.94200003 0.3258129
0.097150855 0.018754665 0.04 38 190 38 255 0.94200003 0.3402101
0.097150855 0.023243617 0.039999995 38 190 38 255 0.94200003 0.3617571
0.097150855 -0.0038127918 0.039999995 38 190 38 255 0.94200003 0.23188631
0.097150855 -0.018832881 0.039999995 38 190 38 255 0.94200003 0.15978989
0.097150855 -0.028868984 0.04 38 190 38 255 0.94200003 0.111616604
0.097150855 -0.015833475 -0.039999995 38 190 38 255 0.558 0.17418703
0.097150855 -0.018832896 -0.04 38 190 38 255 0.5580001 0.15978982
0.097150855 -0.023321852 -0.04 38 190 38 255 0.5580001 0.13824284
0.097150855 0.018754683 -0.04 38 190 38 255 0.5580001 0.3402102
0.097150855 0.02879078 -0.039999995 98 159 23 255 0.558 0.38838345
0.08215087 0.049072213 0.009022922 159 131 10 255 0.9710938 0.53749996
0.082150854 0.049000155 0.009754511 153 131 12 255 0.96875 0.5375
0.097150855 0.049000155 0.00975451 140 137 14 255 0.96875 0.5
0.08215087 0.04878676 -0.010457995 190 116 5 255 0.033593748 0.53749996
0.097150855 0.046154868 -0.01913418 190 116 5 255 0.0625 0.5
0.082150854 0.046154868 -0.019134179 190 116 5 255 0.0625 0.5375
0.08215087 0.046368264 0.018430693 80 167 27 255 0.9398438 0.53749996
0.097150855 0.029656693 0.04 38 190 38 255 0.94200003 0.3925398
0.08215087 -0.035860807 -0.03478708 55 180 33 255 0.37734374 0.53749996
0.082150854 -0.03539445 -0.035355344 55 180 33 255 0.375 0.5375
0.097150855 -0.03539445 -0.03535535 43 188 36 255 0.375 0.5
0.097150855 -0.03539445 0.035355333 38 190 38 255 0.9197056 0.080294386
0.08215087 0.035782598 0.034787074 38 190 38 255 0.8773437 0.53749996
0.097150855 0.041534375 0.027778504 38 190 38 255 0.90625 0.5
0.082150854 0.041534375 0.027778506 41 188 37 255 0.90625 0.5375
0.08215087 0.049072213 0.009022922 159 131 10 255 0.52819663 0.04955566
0.082150854 0.049960893 -4.950543e-09 188 117 5 255 0.5 0.05
0.08215087 -0.04588655 0.019782491 38 190 38 255 0.5618203 0.00207628
0.082150854 -0.046233084 0.019134168 38 190 38 255 0.55979425 0.0019030123
0.082150854 -0.05003911 0.04 38 190 38 255 0.625 0
0.097150855 -0.029734906 0.039999995 38 190 38 255 0.6483424 0.5
0.097150855 -0.03539445 0.035355333 38 190 38 255 0.625 0.5
0.08215087 0.041068014 -0.02834678 190 116 5 255 0.096093744 0.53749996
0.097150855 0.035316236 -0.03535535 176 122 7 255 0.125 0.5
0.082150854 0.035316236 -0.035355344 182 119 6 255 0.125 0.5375
0.08215087 -0.041146226 0.02834677 38 190 38 255 0.5960937 0.53749996
0.082150854 -0.041612584 0.027778506 38 190 38 255 0.59375 0.5375
0.097150855 -0.041612584 0.027778504 38 190 38 255 0.59375 0.5
0.082150854 0.049888838 -0.0007315936 188 117 5 255 0.0023437499 0.5375
0.082150854 0.049960893 -4.950543e-09 188 117 5 255 0 0.5375
0.097150855 0.049960893 -6.0830114e-09 186 117 5 255 0 0.5
0.08215087 -0.04886497 0.010457984 38 190 38 255 0.5335938 0.53749996
0.097150855 -0.046233084 0.019134166 38 190 38 255 0.5625 0.5
0.082150854 -0.046233084 0.019134168 38 190 38 255 0.5625 0.5375
0.08215087 -0.046446484 -0.018430704 38 190 38 255 0.43984374 0.53749996
0.082150854 -0.046233084 -0.019134179 38 190 38 255 0.4375 0.5375
0.097150855 -0.046233084 -0.01913418 38 190 38 255 0.4375 0.5
0.082150854 0.049000155 -0.009754522 190 116 5 255 0.03125 0.5375
0.097150855 0.049000155 -0.009754523 190 116 5 255 0.03125 0.5
0.097150855 0.035316236 -0.03535535 176 122 7 255 0.5802944 0.41970563
0.082150854 0.046154868 0.019134168 75 171 28 255 0.9375 0.5375
0.097150855 0.046154868 0.019134166 59 176 33 255 0.9375 0.5
0.08215087 -0.04588655 0.019782491 38 190 38 255 0.5648438 0.53749996
0.08215087 -0.049967054 0.0007315831 38 190 38 255 0.5023438 0.53749996
0.082150854 -0.05003911 -4.950543e-09 38 190 38 255 0.5 0.5375
0.097150855 -0.05003911 -6.0830114e-09 38 190 38 255 0.5 0.5
0.082150854 0.035316236 0.035355337 38 190 38 255 0.875 0.5375
0.097150855 0.035316236 0.035355333 38 190 38 255 0.875 0.5
0.082150854 -0.04907837 0.009754511 38 190 38 255 0.53125 0.5375
0.097150855 -0.04907837 0.00975451 38 190 38 255 0.53125 0.5
0.097150855 -0.041612584 -0.02777852 39 190 38 255 0.40625 0.5
0.082150854 -0.041612584 -0.027778517 44 186 36 255 0.40625 0.5375
0.082150854 0.041534375 -0.027778517 190 116 5 255 0.09375 0.5375
0.097150855 0.041534375 -0.02777852 190 116 5 255 0.09375 0.5
0.08215087 -0.041959126 -0.027130196 43 186 36 255 0.40859374 0.53749996
0.097150855 0.049960893 -6.0830114e-09 186 117 5 255 1 0.5
0.082150854 0.049960893 -4.950543e-09 188 117 5 255 1 0.5375
0.082150854 0.029656697 0.04 38 190 38 255 0.8516576 0.5375
0.08215087 0.04580833 -0.019782502 190 116 5 255 0.06484375 0.53749996
0.08215087 0.041880913 0.027130185 42 188 37 255 0.9085938 0.53749996
0.082150854 -0.029734924 -0.039999995 38 188 37 255 0.35165775 0.5375
0.097150855 0.029656712 -0.039999995 110 152 20 255 0.14834224 0.5
0.082150854 -0.03539445 0.035355337 38 190 38 255 0.625 0.5375
0.097150855 -0.04907837 -0.009754523 38 190 38 255 0.46875 0.5
0.082150854 -0.04907837 -0.009754522 38 190 38 255 0.46875 0.5375
0.097150855 -0.029734924 -0.04 38 190 38 255 0.558 0.1074601
0.08215087 -0.049150426 -0.009022933 38 190 38 255 0.47109374 0.53749996
-0.087849155 0.035782598 -0.034787074 188 117 5 255 0.12265625 0.9625
-0.087849155 0.035316236 -0.035355333 188 117 5 255 0.125 0.9625
-0.087849155 0.04153437 -0.027778503 175 122 7 255 0.09375 0.9625
-0.087849155 -0.034826186 -0.035821695 38 190 38 255 0.37265623 0.96250004
-0.087849155 0.04580833 0.019782506 82 166 27 255 0.9351563 0.96250004
-0.087849155 0.04615487 0.019134182 82 166 27 255 0.9375 0.96250004
-0.087849155 -0.049150426 0.009022935 38 190 38 255 0.5289062 0.96250004
-0.087849155 -0.04907837 0.009754525 38 190 38 255 0.53125 0.96250004
-0.10284914 -0.00421967 0.039999995 38 190 38 255 0.44199994 0.22993325
-0.087849155 0.049000155 0.009754525 88 162 26 255 0.96875 0.96250004
-0.087849155 0.04988884 0.0007315965 92 162 24 255 0.9976562 0.96250004
-0.087849155 -0.04623309 0.019134182 38 188 37 255 0.5625 0.96250004
-0.087849155 -0.041959126 0.027130194 38 190 38 255 0.5914063 0.96250004
-0.087849155 -0.04886497 -0.010457984 38 190 38 255 0.46640626 0.96250004
-0.087849155 -0.04907837 -0.00975451 38 190 38 255 0.46875 0.96250004
-0.087849155 0.04615487 -0.019134168 148 135 13 255 0.0625 0.96250004
-0.087849155 0.041880913 -0.02713018 173 123 8 255 0.09140625 0.9625
-0.087849155 0.034747973 0.03582171 47 184 36 255 0.8726562 0.96250004
-0.087849155 0.041068014 0.028346783 66 175 31 255 0.9039063 0.9625
-0.087849155 0.041534375 0.02777852 67 175 31 255 0.90625 0.96250004
-0.10284914 0.004141501 -0.04 38 190 38 255 0.05799997 0.27006692
-0.087849155 -0.04623309 -0.019134168 38 190 38 255 0.4375 0.96250004
-0.10284914 -0.021738913 0.039999995 38 190 38 255 0.4419999 0.14584093
-0.10284914 -0.028443232 0.04 38 190 38 255 0.44199994 0.1136602
-0.087849155 0.035316236 0.03535535 48 184 36 255 0.875 0.96250004
-0.10284914 0.021660693 -0.04 39 188 37 255 0.05799997 0.35415903
-0.087849155 0.046368264 -0.018430693 144 135 13 255 0.060156252 0.96250004
-0.087849155 0.049960893 7.8841005e-09 93 160 24 255 1 0.96250004
-0.087849155 -0.03539445 -0.035355333 38 190 38 255 0.375 0.96250004
-0.087849155 -0.041146226 -0.028346768 38 190 38 255 0.40390626 0.9625
-0.087849155 -0.041612584 0.02777852 38 190 38 255 0.59375 0.96250004
-0.087849155 0.049072213 -0.00902292 110 152 20 255 0.028906252 0.96250004
-0.087849155 0.049000155 -0.00975451 112 152 20 255 0.03125 0.96250004
-0.087849155 -0.035860807 0.034787085 38 190 38 255 0.6226562 0.9625
-0.10284914 0.028365001 -0.039999995 47 184 36 255 0.057999983 0.38633972
-0.087849155 -0.046446484 0.018430708 38 188 37 255 0.5601562 0.96250004
-0.087849155 -0.03539445 0.03535535 38 190 38 255 0.625 0.96250004
-0.087849155 0.04878676 0.010457999 85 164 26 255 0.9664063 0.96250004
0.082150854 -0.05003911 -4.950543e-09 38 190 38 255 0.5 0.5375
-0.087849155 -0.029734906 -0.039999995 38 190 38 255 0.3516577 0.96250004
-0.087849155 0.029656712 0.04 42 188 37 255 0.85165775 0.96250004
-0.087849155 -0.041612584 -0.027778504 38 190 38 255 0.40625 0.96250004
-0.087849155 -0.04588655 -0.019782491 38 190 38 255 0.4381797 0.74792373
-0.087849155 -0.04623309 -0.019134168 38 190 38 255 0.4402057 0.748097
-0.087849155 -0.05003911 -0.039999995 38 190 38 255 0.375 0.75
-0.087849155 -0.04623309 0.019134182 38 188 37 255 0.5597943 0.748097
-0.087849155 -0.041959126 0.027130194 38 190 38 255 0.5847819 0.74596
-0.087849155 -0.05003911 0.04 38 190 38 255 0.625 0.75
-0.087849155 -0.04996706 -0.0007315806 38 190 38 255 0.49765626 0.96250004
-0.087849155 -0.04588655 -0.019782491 38 190 38 255 0.43515626 0.96250004
-0.087849155 0.049960893 7.8841005e-09 93 160 24 255 0 0.96250004
-0.10284914 0.027739407 -0.041573472 47 182 35 255 0.0504473 0.38333684
-0.10284914 -0.027817622 0.041573487 38 190 38 255 0.4495527 0.11666314
-0.087849155 0.029656697 -0.039999995 87 162 26 255 0.375 0.71015215
-0.087849155 0.035316236 -0.035355333 188 117 5 255 0.38951457 0.70732236
-0.087849155 0.035782598 -0.034787074 188 117 5 255 0.3912904 0.70708925
-0.087849155 0.029656712 0.04 42 188 37 255 0.625 0.7101521
-0.087849155 0.034747973 0.03582171 47 184 36 255 0.61194265 0.70760643
-0.087849155 0.035316236 0.03535535 48 184 36 255 0.6104855 0.70732236
-0.087849155 0.041068014 0.028346783 66 175 31 255 0.5885837 0.70444655
-0.087849155 0.041534375 0.02777852 67 175 31 255 0.5868079 0.7042133
-0.087849155 0.04153437 -0.027778503 175 122 7 255 0.4131922 0.7042134
-0.087849155 0.041880913 -0.02713018 173 123 8 255 0.41521823 0.70404005
-0.087849155 0.04580833 0.019782506 82 166 27 255 0.5618204 0.7020763
-0.087849155 0.04615487 0.019134182 82 166 27 255 0.5597943 0.7019029
-0.087849155 0.04878676 0.010457999 85 164 26 255 0.5326812 0.70058703
-0.087849155 0.049000155 0.009754525 88 162 26 255 0.5304828 0.7004803
-0.087849155 0.04615487 -0.019134168 148 135 13 255 0.44020572 0.701903
-0.087849155 0.046368264 -0.018430693 144 135 13 255 0.44240406 0.7017963
-0.087849155 0.049000155 -0.00975451 112 152 20 255 0.46951714 0.7004803
-0.087849155 0.049072213 -0.00902292 110 152 20 255 0.47180328 0.7004442
-0.13784914 0.4499609 -0.04 190 116 5 255 0.125 0.5
-0.10284914 0.029656693 -0.039999995 48 184 35 255 0.3 0.71015215
-0.087849155 -0.029734906 -0.039999995 38 190 38 255 0.375 0.7398479
-0.10284914 -0.029734906 -0.04 38 190 38 255 0.3 0.7398479
-0.10284914 0.028365001 -0.039999995 47 184 36 255 0.3 0.71079797
-0.10284914 0.021660693 -0.04 39 188 37 255 0.3 0.71415013
-0.10284914 -0.028443214 -0.039999995 38 190 38 255 0.29999998 0.739202
-0.10284914 0.029656712 0.04 38 190 38 255 0.7 0.7101521
-0.13784914 0.4499609 0.04 166 135 22 255 0.875 0.5
-0.10284914 -0.029734924 0.039999995 38 190 38 255 0.7 0.7398479
-0.087849155 -0.029734924 0.04 38 190 38 255 0.625 0.7398479
-0.10284914 0.028365023 0.039999995 38 190 38 255 0.7 0.71079797
-0.10284914 -0.028443232 0.04 38 190 38 255 0.7 0.7392021
-0.10284914 0.011965993 0.039999995 38 190 38 255 0.6999999 0.71899736
0.082150854 -0.05003911 -4.950543e-09 38 190 38 255 0.5 0
0.08215087 -0.049150426 -0.009022933 38 190 38 255 0.47180334 0.0004443407
0.082150854 -0.04907837 -0.009754522 38 190 38 255 0.46951717 0.00048036876
0.08215087 -0.046446484 -0.018430704 38 190 38 255 0.44240406 0.001796314
0.082150854 -0.046233084 -0.019134179 38 190 38 255 0.4402056 0.0019030124
0.082150854 -0.03539445 -0.035355344 55 180 33 255 0.38951454 0.00732233
0.082150854 -0.029734924 -0.039999995 38 188 37 255 0.375 0.010152092
0.08215087 -0.041959126 -0.027130196 43 186 36 255 0.41521817 0.0040399926
0.082150854 -0.05003911 -0.039999995 70 173 30 255 0.375 1
0.082150854 0.029656712 -0.039999995 137 140 15 255 0.125 0.7101521
0.082150854 0.4499609 -0.039999995 88 164 26 255 0.125 0.5
0.097150855 0.029656712 -0.039999995 110 152 20 255 0.19999999 0.7101521
0.082150854 -0.05003911 -0.039999995 70 173 30 255 0.125 0.75
0.097150855 -0.029734924 -0.04 38 190 38 255 0.19999999 0.7398479
0.082150854 -0.029734924 -0.039999995 38 188 37 255 0.125 0.7398479
0.097150855 0.029312897 -0.04 106 153 22 255 0.2 0.71032405
0.097150855 -0.02939111 -0.04 38 190 38 255 0.2 0.739676
0.097150855 -0.023321852 -0.04 38 190 38 255 0.19999997 0.7366413
0.097150855 0.02879078 -0.039999995 98 159 23 255 0.20000002 0.7105851
0.097150855 0.018754683 -0.04 38 190 38 255 0.19999997 0.715603
0.097150855 -0.018832896 -0.04 38 190 38 255 0.2 0.73439693
0.097150855 0.029656693 0.04 38 190 38 255 0.8000001 0.71015215
0.082150854 0.4499609 0.04 88 162 25 255 0.875 0.5
0.082150854 0.029656697 0.04 38 190 38 255 0.875 0.71015215
0.082150854 -0.029734906 0.04 38 190 38 255 0.875 0.7398479
0.082150854 -0.05003911 0.04 38 190 38 255 0.875 0.75
0.097150855 -0.029734906 0.039999995 38 190 38 255 0.8000001 0.7398479
0.097150855 0.029312883 0.039999995 38 190 38 255 0.7999999 0.7103239
0.097150855 0.023243617 0.039999995 38 190 38 255 0.79999995 0.71335864
0.097150855 -0.029391095 0.04 38 190 38 255 0.8000001 0.739676
0.097150855 -0.028868984 0.04 38 190 38 255 0.79999995 0.7394149
0.097150855 0.018754665 0.04 38 190 38 255 0.8000001 0.7156031
0.097150855 0.01575525 0.04 38 190 38 255 0.79999995 0.71710277
-0.10284914 -0.029734924 0.039999995 38 190 38 255 0.64834225 1
-0.10284914 0.029656693 -0.039999995 48 184 35 255 0.14834231 1
-0.10284914 -0.029734906 -0.04 38 190 38 255 0.057999976 0.107460186
-0.10284914 0.029656712 0.04 38 190 38 255 0.44199997 0.39253992
0.082150854 0.029656712 -0.039999995 137 140 15 255 0.375 0.03984791
0.08215087 0.034747973 -0.035821706 180 120 6 255 0.38805717 0.042393543
0.082150854 0.035316236 -0.035355344 182 119 6 255 0.38951454 0.04267768
0.08215087 0.041068014 -0.02834678 190 116 5 255 0.4114163 0.045553558
0.082150854 0.041534375 -0.027778517 190 116 5 255 0.4131921 0.04578674
0.082150854 0.029656697 0.04 38 190 38 255 0.625 0.0398479
0.082150854 0.035316236 0.035355337 38 190 38 255 0.61048543 0.042677667
0.08215087 0.035782598 0.034787074 38 190 38 255 0.6087096 0.042910855
0.082150854 0.041534375 0.027778506 41 188 37 255 0.58680785 0.045786742
0.08215087 0.04580833 -0.019782502 190 116 5 255 0.4381797 0.04792372
0.08215087 0.041880913 0.027130185 42 188 37 255 0.5847818 0.045960013
0.082150854 0.046154868 0.019134168 75 171 28 255 0.55979425 0.048096985
0.08215087 0.046368264 0.018430693 80 167 27 255 0.55759597 0.048203684
0.082150854 0.046154868 -0.019134179 190 116 5 255 0.44020566 0.04809699
0.08215087 0.04878676 -0.010457995 190 116 5 255 0.4673187 0.049412932
0.082150854 0.049000155 -0.009754522 190 116 5 255 0.4695171 0.049519632
0.082150854 0.049888838 -0.0007315936 188 117 5 255 0.49771377 0.049963966
0.082150854 0.049000155 0.009754511 153 131 12 255 0.5304828 0.04951963
0.082150854 -0.029734906 0.04 38 190 38 255 0.625 0.0101521015
0.08215087 -0.034826186 0.0358217 38 190 38 255 0.6119428 0.0076064616
0.082150854 -0.03539445 0.035355337 38 190 38 255 0.6104854 0.00732233
0.08215087 -0.041146226 0.02834677 38 190 38 255 0.58858365 0.0044464413
0.082150854 -0.041612584 0.027778506 38 190 38 255 0.5868078 0.00421326
0.08215087 -0.049967054 0.0007315831 38 190 38 255 0.50228626 3.602803e-05
0.08215087 -0.04886497 0.010457984 38 190 38 255 0.5326811 0.0005870669
0.082150854 -0.04907837 0.009754511 38 190 38 255 0.5304829 0.0004803687
0.097150855 0.029656693 0.04 38 190 38 255 0.8516576 0.5
0.097150855 -0.029734924 -0.04 38 190 38 255 0.35165775 0.5
-0.10284914 -0.029734906 -0.04 38 190 38 255 0.3516577 1
-0.10284914 0.029656712 0.04 38 190 38 255 0.85165775 1
-0.087849155 -0.034826186 -0.035821695 38 190 38 255 0.38805723 0.7423935
-0.087849155 -0.03539445 -0.035355333 38 190 38 255 0.38951457 0.7426777
-0.087849155 -0.041146226 -0.028346768 38 190 38 255 0.41141635 0.74555355
-0.087849155 -0.041612584 -0.027778504 38 190 38 255 0.41319218 0.7457868
-0.087849155 -0.04996706 -0.0007315806 38 190 38 255 0.4977138 0.749964
-0.087849155 -0.04886497 -0.010457984 38 190 38 255 0.46731874 0.749413
-0.087849155 -0.04907837 -0.00975451 38 190 38 255 0.4695171 0.7495196
-0.087849155 -0.049150426 0.009022935 38 190 38 255 0.52819663 0.74955565
-0.087849155 -0.04907837 0.009754525 38 190 38 255 0.5304829 0.74951965
-0.087849155 -0.046446484 0.018430708 38 188 37 255 0.55759597 0.74820364
-0.087849155 -0.03539445 0.03535535 38 190 38 255 0.6104854 0.7426776
-0.087849155 -0.041612584 0.02777852 38 190 38 255 0.5868078 0.7457868
-0.087849155 -0.035860807 0.034787085 38 190 38 255 0.6087097 0.74291086
-0.10284914 0.029656693 -0.039999995 48 184 35 255 0.057999983 0.3925398
-0.10284914 -0.029734924 0.039999995 38 190 38 255 0.44199997 0.10746008
3 0 1 2
3 3 4 1
3 5 6 7
3 8 9 10
3 11 12 13
3 14 15 16
3 17 18 19
3 20 21 22
3 23 24 21
3 25 26 27
3 24 28 29
3 30 31 25
3 32 33 34
3 35 36 33
3 37 38 36
3 39 40 38
3 41 42 40
3 43 44 42
3 45 46 44
3 47 48 49
3 50 51 52
3 53 54 51
3 55 56 54
3 57 58 56
3 59 60 58
3 61 62 60
3 63 64 62
3 65 66 67
3 32 35 33
3 35 37 36
3 37 39 38
3 39 41 40
3 41 43 42
3 43 45 44
3 68 45 69
3 50 53 51
3 53 55 54
3 55 57 56
3 57 59 58
3 59 61 60
3 61 63 62
3 70 63 71
3 72 73 74
3 74 75 72
3 75 76 72
3 77 78 76
3 79 80 81
3 80 82 81
3 82 83 81
3 84 85 81
3 76 86 72
3 81 87 79
3 67 88 89
3 89 90 91
3 92 93 91
3 94 95 96
3 96 97 98
3 98 99 100
3 100 101 102
3 103 104 65
3 65 105 106
3 106 107 108
3 109 110 108
3 111 112 113
3 113 114 115
3 115 116 117
3 117 118 119
3 120 121 67
3 89 122 67
3 91 123 89
3 91 93 124
3 98 125 96
3 100 126 98
3 100 102 127
3 106 128 65
3 108 129 106
3 108 110 130
3 115 66 113
3 117 131 115
3 117 119 132
3 67 125 65
3 132 120 67
3 133 134 135
3 128 129 113
3 136 137 138
3 123 124 96
3 139 135 134
3 93 140 94
3 124 94 96
3 127 103 65
3 141 142 143
3 102 144 103
3 145 146 147
3 148 20 149
3 150 151 152
3 153 68 154
3 122 123 96
3 155 156 157
3 158 159 160
3 161 162 163
3 164 165 166
3 167 168 169
3 125 122 96
3 136 170 171
3 119 172 120
3 139 173 174
3 66 131 67
3 175 160 159
3 176 177 178
3 70 157 156
3 145 179 180
3 130 111 113
3 164 181 182
3 141 183 184
3 155 185 186
3 131 132 67
3 187 184 183
3 176 182 181
3 133 188 189
3 190 180 179
3 125 126 65
3 191 186 185
3 175 166 165
3 187 169 168
3 192 174 173
3 193 143 142
3 194 70 156
3 161 171 170
3 158 154 195
3 66 128 113
3 167 196 197
3 191 138 137
3 129 130 113
3 126 127 65
3 110 198 111
3 192 147 146
3 68 195 154
3 199 197 196
3 200 157 201
3 202 155 200
3 203 52 193
3 204 173 205
3 206 181 207
3 87 208 79
3 209 133 210
3 211 175 212
3 213 197 214
3 215 191 216
3 217 34 190
3 218 147 219
3 219 192 204
3 86 220 72
3 221 167 213
3 222 223 79
3 216 185 202
3 224 145 218
3 220 225 72
3 226 138 215
3 210 189 227
3 228 141 229
3 212 159 230
3 231 170 232
3 230 158 233
3 225 234 72
3 207 164 235
3 233 195 236
3 237 134 209
3 49 238 177
3 235 166 211
3 239 50 52
3 240 32 34
3 229 184 241
3 242 243 244
3 245 246 247
3 214 199 248
3 241 187 249
3 250 161 231
3 234 251 72
3 232 136 226
3 249 168 221
3 208 222 79
3 205 139 237
3 223 252 79
3 0 3 1
3 3 5 4
3 253 4 254
3 4 5 7
3 254 4 255
3 5 256 257
3 258 259 5
3 259 260 5
3 5 257 258
3 255 4 261
3 261 4 262
3 260 263 5
3 263 264 5
3 264 265 5
3 265 266 5
3 262 4 267
3 267 4 268
3 5 266 6
3 269 4 270
3 269 268 4
3 270 4 7
3 10 244 8
3 8 247 9
3 13 271 272
3 271 4 272
3 4 253 272
3 273 244 274
3 244 13 274
3 13 272 275
3 13 275 276
3 277 274 13
3 12 277 13
3 13 276 11
3 256 5 278
3 5 279 278
3 14 247 280
3 247 281 280
3 282 278 14
3 278 279 14
3 14 280 283
3 14 283 15
3 284 282 14
3 16 284 14
3 19 285 286
3 287 288 19
3 288 289 19
3 19 286 287
3 290 291 19
3 18 290 19
3 289 292 19
3 292 17 19
3 20 23 21
3 23 25 24
3 293 24 27
3 24 25 27
3 294 295 296
3 295 21 296
3 24 297 298
3 297 299 298
3 300 296 24
3 296 21 24
3 24 298 301
3 24 301 302
3 303 300 24
3 304 303 24
3 24 302 305
3 24 305 28
3 29 304 24
3 25 23 306
3 23 307 306
3 307 308 306
3 309 310 311
3 310 25 311
3 25 306 312
3 25 312 313
3 314 311 25
3 315 314 25
3 25 313 316
3 25 316 317
3 31 315 25
3 25 317 30
3 45 68 46
3 46 153 44
3 48 248 238
3 248 199 238
3 199 196 178
3 199 178 238
3 48 238 49
3 63 70 64
3 64 194 62
3 65 128 66
3 45 318 69
3 69 236 68
3 236 195 68
3 63 319 71
3 71 201 70
3 201 157 70
3 77 320 78
3 84 321 85
3 76 78 86
3 81 85 87
3 92 140 93
3 109 198 110
3 89 123 122
3 91 124 123
3 98 126 125
3 100 127 126
3 106 129 128
3 108 130 129
3 115 131 66
3 117 132 131
3 67 122 125
3 132 119 120
3 136 171 137
3 139 174 135
3 124 93 94
3 127 102 103
3 102 101 144
3 145 180 146
3 22 322 323
3 324 325 22
3 325 326 22
3 22 323 324
3 327 20 328
3 20 22 149
3 328 20 329
3 329 20 330
3 22 326 331
3 330 20 332
3 333 332 20
3 333 20 334
3 22 331 335
3 335 336 22
3 336 337 22
3 337 338 22
3 338 149 22
3 339 20 148
3 339 334 20
3 152 340 341
3 342 343 152
3 343 344 152
3 152 341 342
3 345 285 152
3 151 346 152
3 346 347 152
3 347 345 152
3 152 344 150
3 153 46 68
3 155 186 156
3 164 182 165
3 119 118 172
3 175 165 160
3 130 110 111
3 141 143 183
3 176 178 182
3 133 135 188
3 190 348 180
3 191 137 186
3 187 183 169
3 192 146 174
3 193 349 143
3 194 64 70
3 161 163 171
3 158 160 154
3 167 169 196
3 200 155 157
3 202 185 155
3 142 228 203
3 52 349 193
3 193 142 203
3 204 192 173
3 206 176 181
3 209 134 133
3 211 166 175
3 213 167 197
3 215 138 191
3 179 224 217
3 34 348 190
3 190 179 217
3 218 145 147
3 219 147 192
3 221 168 167
3 216 191 185
3 224 179 145
3 226 136 138
3 210 133 189
3 228 142 141
3 212 175 159
3 231 161 170
3 230 159 158
3 207 181 164
3 233 158 195
3 237 139 134
3 177 176 49
3 176 206 49
3 238 178 177
3 206 48 49
3 235 164 166
3 52 203 239
3 239 350 50
3 34 217 240
3 240 351 32
3 229 141 184
3 244 273 352
3 353 354 244
3 354 355 244
3 244 352 353
3 356 8 244
3 243 357 244
3 357 358 244
3 358 356 244
3 355 242 244
3 247 8 359
3 360 361 247
3 361 245 247
3 247 359 360
3 362 281 247
3 363 364 247
3 364 362 247
3 246 363 247
3 214 197 199
3 241 184 187
3 250 162 161
3 234 365 251
3 232 170 136
3 249 187 168
3 205 173 139
3 223 366 252
