ply
format ascii 1.0
comment Created in Blender version 4.2.2 LTS
element vertex 367
property float x
property float y
property float z
property float nx
property float ny
property float nz
property uchar red
property uchar green
property uchar blue
property uchar alpha
property float s
property float t
element face 411
property list uchar uint vertex_indices
end_header
-0.135 -0.2 0.24000001 -0.33334312 -0.666694 0.66663456 190 116 5 255 0.625 0
-0.135 0.3 0.16 -0.33332774 0.66666263 -0.66667354 190 116 5 255 0.375 0.25
-0.135 -0.2 0.16 -0.33334467 -0.6666912 -0.6666364 190 116 5 255 0.375 0
-0.135 0.3 0.24000001 -0.3333389 0.666643 0.66668755 195 125 19 255 0.625 0.25
-0.085 0.3 0.16000001 0.33332634 0.6666487 -0.6666881 190 116 5 255 0.375 0.5
-0.085 0.3 0.24000001 0.33332354 0.6666662 0.666672 190 116 5 255 0.625 0.5
-0.08500001 -0.100072056 0.2007316 0.4472108 0.89012176 0.087668896 190 116 5 255 0.5022862 0.7000359
-0.08500001 -0.10000001 0.2 0.47091773 0.8821771 -7.629274e-07 190 116 5 255 0.4999999 0.6999999
-0.085 -0.2 0.20000002 -0.43249655 -0.90115327 -0.029488869 190 116 5 255 0.5 0.75
-0.135 -0.2 0.24000001 -0.33334312 -0.666694 0.66663456 190 116 5 255 0.625 1
-0.135 -0.2 0.16 -0.33334467 -0.6666912 -0.6666364 190 116 5 255 0.375 1
-0.1 -0.1458194 0.16 -0.4472141 -4.6786777e-08 -0.894427 190 116 5 255 0.29999998 0.7229097
-0.1 -0.16200502 0.16000001 -0.44721082 -4.058982e-07 -0.89442855 190 116 5 255 0.3 0.73100245
-0.135 -0.2 0.16 -0.33334467 -0.6666912 -0.6666364 190 116 5 255 0.125 0.75
-0.135 -0.2 0.24000001 -0.33334312 -0.666694 0.66663456 190 116 5 255 0.875 0.75
-0.1 -0.1716998 0.24 -0.44721374 2.0026116e-07 0.89442706 190 116 5 255 0.6999999 0.7358499
-0.1 -0.15418057 0.24 -0.44721362 0 0.8944272 190 116 5 255 0.70000005 0.72709036
0.085 -0.19157349 0.17222148 -0.25788185 -0.80334634 -0.536779 190 116 5 255 0.41319212 0.0042132605
0.085000016 -0.18582171 0.16521291 -0.24253175 -0.74993247 -0.6154509 190 116 5 255 0.39129037 0.00708915
0.085 -0.2 0.16 -0.33332434 -0.66668624 -0.6666516 190 116 5 255 0.375 0
0.085 0.3 0.24 -0.33332646 0.6666486 0.666688 190 116 5 255 0.625 0.25
0.135 0.3 0.16 0.33333877 0.666643 -0.66668755 190 116 5 255 0.375 0.5
0.085 0.3 0.16 -0.3333236 0.66666615 -0.66667205 190 116 5 255 0.375 0.25
0.135 0.3 0.24000001 0.33332768 0.66666263 0.6666736 190 116 5 255 0.625 0.5
0.135 -0.2 0.16 0.33334777 -0.6667032 -0.6666228 192 117 5 255 0.375 0.75
0.135 -0.2 0.24000001 0.3333447 -0.66669106 0.66663665 190 116 5 255 0.625 0.75
0.085 -0.2 0.24 -0.33331713 -0.66668826 0.6666532 190 116 5 255 0.625 1
0.085 -0.2 0.2 -0.25700635 -0.96524554 0.047419723 190 116 5 255 0.5 1
0.1 -0.16579437 0.16000001 0.7071066 4.0778097e-08 -0.707107 190 116 5 255 0.2 0.7328973
0.1 -0.1462263 0.16 0.70711225 -3.0810828e-08 -0.7071012 190 116 5 255 0.19999999 0.7231132
0.1 -0.1537737 0.24 0.7071123 -2.7225084e-07 0.7071013 190 116 5 255 0.8 0.72688687
0.1 -0.16879378 0.24 0.70710665 9.759886e-08 0.70710695 190 116 5 255 0.79999995 0.7343968
-0.1 -0.12222149 0.24157348 -0.42611697 0.5026043 0.75220555 190 116 5 255 0.84375 1
0.1 -0.13086583 0.24619398 0.42611822 0.34620178 0.8358035 190 116 5 255 0.8125 0.5
0.1 -0.12222149 0.24157348 0.4261314 0.5026005 0.7522 190 116 5 255 0.84375 0.5
-0.1 -0.13086583 0.24619399 -0.4261093 0.34620222 0.8358079 190 116 5 255 0.8125 1
0.1 -0.1402455 0.24903926 0.42609492 0.17649461 0.8872952 190 116 5 255 0.78125 0.5
-0.1 -0.1402455 0.24903928 -0.4261181 0.17649136 0.8872847 190 116 5 255 0.78125 1
0.10000001 -0.15 0.25 0.4261181 5.448965e-07 0.9046675 190 116 5 255 0.75 0.5
-0.099999994 -0.15 0.25 -0.4261145 -5.432792e-07 0.9046692 190 116 5 255 0.75 1
0.1 -0.15975451 0.24903926 0.42610437 -0.17649268 0.88729113 190 116 5 255 0.71875 0.5
-0.1 -0.15975451 0.24903928 -0.426112 -0.176493 0.8872874 190 116 5 255 0.71875 1
0.1 -0.16913418 0.24619398 0.42611822 -0.34620064 0.835804 190 116 5 255 0.6875 0.5
-0.1 -0.16913418 0.24619399 -0.42609763 -0.3462057 0.8358124 190 116 5 255 0.6875 1
0.1 -0.17777851 0.24157348 0.42611808 -0.5026042 0.7522051 190 116 5 255 0.65625 0.5
-0.1 -0.17777851 0.24157348 -0.42612204 -0.502603 0.75220364 190 116 5 255 0.65625 1
0.085 -0.1796958 0.24 -0.045386955 -0.52647233 0.84898 190 116 5 255 0.6483424 0.5375
-0.1 -0.2 0.20000002 0 0 0 190 116 5 255 0.5 1
-0.085 -0.2 0.20000002 -0.43249655 -0.90115327 -0.029488869 190 116 5 255 0.5 0.9625
-0.085 -0.2 0.20000002 -0.8320483 -0.55203223 0.054370537 190 116 5 255 0.5 0.9625
-0.1 -0.17777851 0.15842652 -0.42611706 -0.5026044 -0.7522055 190 116 5 255 0.34375 1
0.1 -0.16913418 0.15380602 0.4261181 -0.34620178 -0.8358036 190 116 5 255 0.3125 0.5
0.1 -0.17777851 0.15842652 0.42613098 -0.5026006 -0.75220007 190 116 5 255 0.34375 0.5
-0.1 -0.16913418 0.15380603 -0.42611304 -0.34620157 -0.8358063 190 116 5 255 0.3125 1
0.1 -0.15975451 0.15096073 0.42609486 -0.17649458 -0.8872952 190 116 5 255 0.28125 0.5
-0.1 -0.15975451 0.15096074 -0.42611217 -0.17649193 -0.88728744 190 116 5 255 0.28125 1
0.099999994 -0.15 0.14999999 0.426118 -5.448965e-07 -0.9046676 190 116 5 255 0.25 0.5
-0.10000001 -0.15 0.15 -0.42611548 5.4328035e-07 -0.90466875 190 116 5 255 0.25 1
0.1 -0.1402455 0.15096073 0.4261042 0.17649266 -0.88729113 190 116 5 255 0.21875 0.5
-0.1 -0.1402455 0.15096074 -0.42611825 0.17649248 -0.88728446 190 116 5 255 0.21875 1
0.1 -0.13086583 0.15380602 0.4261181 0.34620064 -0.8358041 190 116 5 255 0.1875 0.5
-0.1 -0.13086583 0.15380603 -0.42609388 0.34620625 -0.8358142 190 116 5 255 0.1875 1
0.1 -0.12222149 0.15842652 0.42611796 0.5026041 -0.7522051 190 116 5 255 0.15625 0.5
-0.1 -0.12222149 0.15842652 -0.42612222 0.50260305 -0.7522034 190 116 5 255 0.15625 1
0.085 -0.12030419 0.16 -0.045387067 0.5264723 -0.84898 190 116 5 255 0.14834225 0.5375
0.1 -0.19903927 0.20975451 0.42608824 -0.8872987 0.17649314 190 116 5 255 0.79682165 0.014611542
0.1 -0.1462263 0.16 0.70711225 -3.0810828e-08 -0.7071012 190 116 5 255 0.558 0.26811376
0.1 -0.10096075 0.19024548 0.42608818 0.8872987 -0.1764932 190 116 5 255 0.70317835 0.48538846
0.085000016 -0.18478708 0.2358217 -0.24253006 -0.6154539 0.7499305 190 116 5 255 0.6273438 0.53749996
-0.085 -0.17969581 0.24000001 0.057084564 -0.4966253 0.86608577 190 116 5 255 0.6483422 0.9624999
0.085000016 -0.11521293 0.1641783 -0.2425301 0.6154543 -0.74993 190 116 5 255 0.12734374 0.53749996
-0.085 -0.120304205 0.16000001 0.05708454 0.49662635 -0.86608523 190 116 5 255 0.1483423 0.9625
-0.1 -0.13086583 0.15380603 -0.42609388 0.34620625 -0.8358142 190 116 5 255 0.028268918 0.34184402
-0.1 -0.1402455 0.15096074 -0.42611825 0.17649248 -0.88728446 190 116 5 255 0.014611542 0.29682168
-0.10000001 -0.15 0.15 -0.42611548 5.4328035e-07 -0.90466875 190 116 5 255 0.010000005 0.25
-0.1 -0.15975451 0.15096074 -0.42611217 -0.17649193 -0.88728744 190 116 5 255 0.014611542 0.20317832
-0.1 -0.16913418 0.15380603 -0.42611304 -0.34620157 -0.8358063 190 116 5 255 0.028268918 0.15815598
-0.1 -0.17777851 0.15842652 -0.42611706 -0.5026044 -0.7522055 190 116 5 255 0.0504473 0.11666314
-0.1 -0.17840411 0.16000001 -0.44722334 1.2781918e-06 -0.8944223 190 116 5 255 0.05799999 0.113660306
-0.1 -0.16913418 0.24619399 -0.42609763 -0.3462057 0.8358124 190 116 5 255 0.47173107 0.15815598
-0.1 -0.15975451 0.24903928 -0.426112 -0.176493 0.8872874 190 116 5 255 0.48538846 0.20317832
-0.1 -0.13086583 0.24619399 -0.4261093 0.34620222 0.8358079 190 116 5 255 0.47173107 0.34184402
-0.099999994 -0.15 0.25 -0.4261145 -5.432792e-07 0.9046692 190 116 5 255 0.49 0.25
-0.1 -0.1402455 0.24903928 -0.4261181 0.17649136 0.8872847 190 116 5 255 0.48538846 0.29682168
-0.1 -0.12222149 0.24157348 -0.42611697 0.5026043 0.75220555 190 116 5 255 0.4495527 0.38333684
-0.1 -0.121595874 0.24 -0.4472197 -5.4840907e-06 0.89442414 190 116 5 255 0.44199994 0.3863398
-0.1 -0.16200502 0.16000001 -0.44721082 -4.058982e-07 -0.89442855 190 116 5 255 0.05799998 0.1923759
-0.1 -0.13799492 0.24 -0.447211 0 0.89442855 190 116 5 255 0.44199997 0.3076245
0.1 -0.10000001 0.19999999 0.42611015 0.9046713 1.4079249e-06 190 116 5 255 0.75 0.49
0.1 -0.10096075 0.20975451 0.42608944 0.8872976 0.17649603 190 116 5 255 0.79682165 0.48538846
0.1 -0.103806034 0.21913417 0.42611018 0.8358067 0.34620407 190 116 5 255 0.841844 0.47173107
0.1 -0.108426526 0.22777851 0.42608693 0.75221485 0.50261587 190 116 5 255 0.88333684 0.4495527
0.1 -0.11464466 0.23535533 0.4261077 0.63969857 0.6397015 190 116 5 255 0.9197056 0.41970563
0.1 -0.12064802 0.24 0.7070981 -1.6302656e-05 0.7071155 190 116 5 255 0.94200003 0.39088956
0.1 -0.12222149 0.24157348 0.4261314 0.5026005 0.7522 190 116 5 255 0.9495527 0.38333684
0.1 -0.13086583 0.24619398 0.42611822 0.34620178 0.8358035 190 116 5 255 0.97173107 0.34184402
0.1 -0.1402455 0.24903926 0.42609492 0.17649461 0.8872952 190 116 5 255 0.98538846 0.29682168
0.10000001 -0.15 0.25 0.4261181 5.448965e-07 0.9046675 190 116 5 255 0.99 0.25
0.1 -0.15975451 0.24903926 0.42610437 -0.17649268 0.88729113 190 116 5 255 0.98538846 0.20317832
0.1 -0.16913418 0.24619398 0.42611822 -0.34620064 0.835804 190 116 5 255 0.97173107 0.15815598
0.1 -0.17777851 0.24157348 0.42611808 -0.5026042 0.7522051 190 116 5 255 0.9495527 0.11666314
0.1 -0.1796958 0.24 0.20727283 -0.2630017 0.94226754 190 116 5 255 0.94200003 0.107460186
0.1 -0.17935199 0.24000001 0.7071041 -3.9193324e-06 0.7071095 190 116 5 255 0.94200003 0.10911047
0.1 -0.19157349 0.22777851 0.42610204 -0.7522107 0.50260943 190 116 5 255 0.88333684 0.0504473
0.1 -0.19619398 0.21913417 0.42611018 -0.8358078 0.34620133 190 116 5 255 0.841844 0.028268918
0.1 -0.2 0.19999999 0.42611015 -0.9046714 -1.4852008e-06 190 116 5 255 0.75 0.010000005
0.1 -0.19903927 0.19024548 0.4260892 -0.8872977 -0.17649606 190 116 5 255 0.70317835 0.014611542
0.1 -0.19619398 0.18086582 0.42611012 -0.8358067 -0.34620413 190 116 5 255 0.658156 0.028268918
0.1 -0.19157349 0.17222148 0.42608702 -0.75221485 -0.5026159 190 116 5 255 0.61666316 0.0504473
0.1 -0.18535535 0.16464466 0.42610762 -0.63969857 -0.63970155 190 116 5 255 0.5802944 0.080294386
0.1 -0.17935202 0.16 0.70710444 0 -0.7071091 190 116 5 255 0.5580001 0.1091104
0.1 -0.17777851 0.15842652 0.42613098 -0.5026006 -0.75220007 190 116 5 255 0.5504473 0.11666314
0.1 -0.16913418 0.15380602 0.4261181 -0.34620178 -0.8358036 190 116 5 255 0.52826893 0.15815598
0.1 -0.15975451 0.15096073 0.42609486 -0.17649458 -0.8872952 190 116 5 255 0.51461154 0.20317832
0.099999994 -0.15 0.14999999 0.426118 -5.448965e-07 -0.9046676 190 116 5 255 0.51 0.25
0.1 -0.1402455 0.15096073 0.4261042 0.17649266 -0.88729113 190 116 5 255 0.51461154 0.29682168
0.1 -0.13086583 0.15380602 0.4261181 0.34620064 -0.8358041 190 116 5 255 0.52826893 0.34184402
0.1 -0.12222149 0.15842652 0.42611796 0.5026041 -0.7522051 190 116 5 255 0.5504473 0.38333684
0.1 -0.12030419 0.16000001 0.2072724 0.2629912 -0.94227046 190 116 5 255 0.5580001 0.39253992
0.1 -0.120648004 0.16 0.7071105 1.5504926e-05 -0.70710295 190 116 5 255 0.558 0.3908896
0.1 -0.108426526 0.17222148 0.42610154 0.75221074 -0.5026096 190 116 5 255 0.61666316 0.4495527
0.1 -0.103806034 0.18086582 0.42611012 0.8358078 -0.3462014 190 116 5 255 0.658156 0.47173107
0.1 -0.13420565 0.24000001 0.70710665 -2.5456815e-08 0.70710695 190 116 5 255 0.94200003 0.3258129
0.1 -0.13120623 0.24000001 0.70710176 1.2349752e-06 0.7071117 190 116 5 255 0.94200003 0.3402101
0.1 -0.12671728 0.24 0.7071045 1.00063154e-07 0.7071091 190 116 5 255 0.94200003 0.3617571
0.1 -0.1537737 0.24 0.7071123 -2.7225084e-07 0.7071013 190 116 5 255 0.94200003 0.23188631
0.1 -0.16879378 0.24 0.70710665 9.759886e-08 0.70710695 190 116 5 255 0.94200003 0.15978989
0.1 -0.17882988 0.24000001 0.7071069 4.6801185e-07 0.70710665 190 116 5 255 0.94200003 0.111616604
0.1 -0.16579437 0.16000001 0.7071066 4.0778097e-08 -0.707107 190 116 5 255 0.558 0.17418703
0.1 -0.1687938 0.16 0.707102 1.6808291e-06 -0.70711154 190 116 5 255 0.5580001 0.15978982
0.1 -0.17328274 0.16 0.7071044 0 -0.7071092 190 116 5 255 0.5580001 0.13824284
0.1 -0.13120621 0.16 0.7071067 5.523718e-07 -0.7071069 190 116 5 255 0.5580001 0.3402102
0.1 -0.12117012 0.16000001 0.7071024 -1.0688786e-05 -0.7071111 190 116 5 255 0.558 0.38838345
0.085000016 -0.100888684 0.20902292 -0.24253152 0.9654722 0.09508959 190 116 5 255 0.9710938 0.53749996
0.085 -0.10096075 0.20975451 -0.25788417 0.9476112 0.18849054 190 116 5 255 0.96875 0.5375
0.1 -0.10096075 0.20975451 0.42608944 0.8872976 0.17649603 190 116 5 255 0.96875 0.5
0.085000016 -0.10117414 0.18954201 -0.24253146 0.9283695 -0.2816178 190 116 5 255 0.033593748 0.53749996
0.1 -0.103806034 0.18086582 0.42611012 0.8358078 -0.3462014 190 116 5 255 0.0625 0.5
0.085 -0.103806034 0.18086582 -0.2578834 0.8926295 -0.36974126 190 116 5 255 0.0625 0.5375
0.085000016 -0.103592634 0.2184307 -0.24253146 0.92836994 0.28161618 190 116 5 255 0.9398438 0.53749996
0.1 -0.12030421 0.24000001 0.20727323 0.2629858 0.9422719 190 116 5 255 0.94200003 0.3925398
0.085000016 -0.18582171 0.16521291 -0.24253175 -0.74993247 -0.6154509 190 116 5 255 0.37734374 0.53749996
0.085 -0.18535535 0.16464466 -0.25787902 -0.68319136 -0.68318945 190 116 5 255 0.375 0.5375
0.1 -0.18535535 0.16464466 0.42610762 -0.63969857 -0.63970155 190 116 5 255 0.375 0.5
0.1 -0.18535535 0.23535533 0.42610914 -0.63970065 0.63969845 190 116 5 255 0.9197056 0.080294386
0.085000016 -0.1141783 0.23478708 -0.2425315 0.7499313 0.61545247 190 116 5 255 0.8773437 0.53749996
0.1 -0.108426526 0.22777851 0.42608693 0.75221485 0.50261587 190 116 5 255 0.90625 0.5
0.085 -0.108426526 0.22777851 -0.25787827 0.8033479 0.5367783 190 116 5 255 0.90625 0.5375
0.085000016 -0.100888684 0.20902292 -0.24253152 0.9654722 0.09508959 190 116 5 255 0.52819663 0.04955566
0.085 -0.10000001 0.2 -0.25787953 0.96617705 -2.7064115e-07 190 116 5 255 0.5 0.05
0.085000016 -0.19584745 0.2197825 -0.24253255 -0.85558975 0.45732298 190 116 5 255 0.5618203 0.00207628
0.085 -0.19619398 0.21913417 -0.25788575 -0.8926304 0.3697377 190 116 5 255 0.55979425 0.0019030123
0.085 -0.2 0.24 -0.33331713 -0.66668826 0.6666532 190 116 5 255 0.625 0
0.1 -0.1796958 0.24 0.20727283 -0.2630017 0.94226754 190 116 5 255 0.6483424 0.5
0.1 -0.18535535 0.23535533 0.42610914 -0.63970065 0.63969845 190 116 5 255 0.625 0.5
0.085000016 -0.10889289 0.17165323 -0.24253139 0.7499298 -0.6154542 190 116 5 255 0.096093744 0.53749996
0.1 -0.11464466 0.16464466 0.42610955 0.6397003 -0.63969845 190 116 5 255 0.125 0.5
0.085 -0.11464466 0.16464466 -0.25788072 0.6831904 -0.68318975 190 116 5 255 0.125 0.5375
0.085000016 -0.19110712 0.22834677 -0.24253164 -0.7499294 0.61545455 190 116 5 255 0.5960937 0.53749996
0.085 -0.19157349 0.22777851 -0.2578826 -0.8033449 0.5367806 190 116 5 255 0.59375 0.5375
0.1 -0.19157349 0.22777851 0.42610204 -0.7522107 0.50260943 190 116 5 255 0.59375 0.5
0.085 -0.100072056 0.1992684 -0.24253136 0.96547204 -0.09509127 190 116 5 255 0.0023437499 0.5375
0.085 -0.10000001 0.2 -0.25787953 0.96617705 -2.7064115e-07 190 116 5 255 0 0.5375
0.1 -0.10000001 0.19999999 0.42611015 0.9046713 1.4079249e-06 190 116 5 255 0 0.5
0.085000016 -0.19882587 0.21045798 -0.24253377 -0.92836785 0.28162116 190 116 5 255 0.5335938 0.53749996
0.1 -0.19619398 0.21913417 0.42611018 -0.8358078 0.34620133 190 116 5 255 0.5625 0.5
0.085 -0.19619398 0.21913417 -0.25788575 -0.8926304 0.3697377 190 116 5 255 0.5625 0.5375
0.085000016 -0.19640738 0.1815693 -0.24253133 -0.9283695 -0.28161773 190 116 5 255 0.43984374 0.53749996
0.085 -0.19619398 0.18086582 -0.25788432 -0.89263165 -0.3697357 190 116 5 255 0.4375 0.5375
0.1 -0.19619398 0.18086582 0.42611012 -0.8358067 -0.34620413 190 116 5 255 0.4375 0.5
0.085 -0.10096075 0.19024548 -0.25788435 0.947611 -0.18849151 190 116 5 255 0.03125 0.5375
0.1 -0.10096075 0.19024548 0.42608818 0.8872987 -0.1764932 190 116 5 255 0.03125 0.5
0.1 -0.11464466 0.16464466 0.42610955 0.6397003 -0.63969845 190 116 5 255 0.5802944 0.41970563
0.085 -0.103806034 0.21913417 -0.257884 0.8926304 0.3697389 190 116 5 255 0.9375 0.5375
0.1 -0.103806034 0.21913417 0.42611018 0.8358067 0.34620407 190 116 5 255 0.9375 0.5
0.085000016 -0.19584745 0.2197825 -0.24253255 -0.85558975 0.45732298 190 116 5 255 0.5648438 0.53749996
0.085000016 -0.19992796 0.20073159 -0.24254046 -0.96546936 0.095094904 190 116 5 255 0.5023438 0.53749996
0.085 -0.2 0.2 -0.25700635 -0.96524554 0.047419723 190 116 5 255 0.5 0.5375
0.1 -0.2 0.19999999 0.42611015 -0.9046714 -1.4852008e-06 190 116 5 255 0.5 0.5
0.085 -0.11464466 0.23535533 -0.25788122 0.68319035 0.68318975 190 116 5 255 0.875 0.5375
0.1 -0.11464466 0.23535533 0.4261077 0.63969857 0.6397015 190 116 5 255 0.875 0.5
0.085 -0.19903927 0.20975451 -0.25788113 -0.947612 0.18849145 190 116 5 255 0.53125 0.5375
0.1 -0.19903927 0.20975451 0.42608824 -0.8872987 0.17649314 190 116 5 255 0.53125 0.5
0.1 -0.19157349 0.17222148 0.42608702 -0.75221485 -0.5026159 190 116 5 255 0.40625 0.5
0.085 -0.19157349 0.17222148 -0.25788185 -0.80334634 -0.536779 190 116 5 255 0.40625 0.5375
0.085 -0.108426526 0.17222148 -0.25787815 0.80334604 -0.5367812 190 116 5 255 0.09375 0.5375
0.1 -0.108426526 0.17222148 0.42610154 0.75221074 -0.5026096 190 116 5 255 0.09375 0.5
0.085000016 -0.19192003 0.1728698 -0.24253123 -0.8555898 -0.4573233 190 116 5 255 0.40859374 0.53749996
0.1 -0.10000001 0.19999999 0.42611015 0.9046713 1.4079249e-06 190 116 5 255 1 0.5
0.085 -0.10000001 0.2 -0.25787953 0.96617705 -2.7064115e-07 190 116 5 255 1 0.5375
0.085 -0.120304205 0.24 -0.045386057 0.52647346 0.84897923 190 116 5 255 0.8516576 0.5375
0.085000016 -0.10415256 0.1802175 -0.24253139 0.8555902 -0.4573226 190 116 5 255 0.06484375 0.53749996
0.085000016 -0.108079985 0.22713019 -0.24253197 0.8555918 0.4573193 190 116 5 255 0.9085938 0.53749996
0.085 -0.17969581 0.16 -0.04538613 -0.5264737 -0.8489791 190 116 5 255 0.35165775 0.5375
0.1 -0.12030419 0.16000001 0.2072724 0.2629912 -0.94227046 190 116 5 255 0.14834224 0.5
0.085 -0.18535535 0.23535533 -0.2578784 -0.6831904 0.6831908 190 116 5 255 0.625 0.5375
0.1 -0.19903927 0.19024548 0.4260892 -0.8872977 -0.17649606 190 116 5 255 0.46875 0.5
0.085 -0.19903927 0.19024548 -0.2578743 -0.9476148 -0.18848622 190 116 5 255 0.46875 0.5375
0.1 -0.17969581 0.16 0.2072767 -0.2629902 -0.9422698 190 116 5 255 0.558 0.1074601
0.085000016 -0.19911133 0.19097707 -0.24253196 -0.96547186 -0.095091484 190 116 5 255 0.47109374 0.53749996
-0.085 -0.1141783 0.16521293 0.44720936 0.6913987 -0.56742555 190 116 5 255 0.12265625 0.9625
-0.085 -0.11464466 0.16464467 0.47091892 0.62378997 -0.623796 190 116 5 255 0.125 0.9625
-0.085 -0.108426526 0.1722215 0.47091472 0.7335052 -0.49011168 190 116 5 255 0.09375 0.9625
-0.085 -0.18478708 0.16417831 0.44720966 -0.5674181 -0.69140446 190 116 5 255 0.37265623 0.96250004
-0.08500001 -0.10415256 0.2197825 0.44721022 0.78881574 0.42163113 190 116 5 255 0.9351563 0.96250004
-0.08500001 -0.10380603 0.21913418 0.47092432 0.81502223 0.3375933 190 116 5 255 0.9375 0.96250004
-0.08500001 -0.19911133 0.20902294 0.44721174 -0.89012104 0.08767013 190 116 5 255 0.5289062 0.96250004
-0.08500001 -0.19903927 0.20975453 0.4709203 -0.86522484 0.17210439 190 116 5 255 0.53125 0.96250004
-0.1 -0.15418057 0.24 -0.44721362 0 0.8944272 190 116 5 255 0.44199994 0.22993325
-0.08500001 -0.10096075 0.20975453 0.47092488 0.86522347 0.17209914 190 116 5 255 0.96875 0.96250004
-0.08500001 -0.100072056 0.2007316 0.4472108 0.89012176 0.087668896 190 116 5 255 0.9976562 0.96250004
-0.08500001 -0.196194 0.21913418 0.47092745 -0.81502086 0.3375919 190 116 5 255 0.5625 0.96250004
-0.08500001 -0.19192003 0.22713019 0.44721073 -0.7888154 0.42163116 190 116 5 255 0.5914063 0.96250004
-0.08500001 -0.19882587 0.18954203 0.44721046 -0.8559151 -0.25963873 190 116 5 255 0.46640626 0.96250004
-0.08500001 -0.19903927 0.1902455 0.47092056 -0.86522484 -0.1721036 190 116 5 255 0.46875 0.96250004
-0.08500001 -0.10380603 0.18086584 0.4709245 0.81502223 -0.33759293 190 116 5 255 0.0625 0.96250004
-0.085 -0.108079985 0.17286982 0.447212 0.78881603 -0.42162848 190 116 5 255 0.09140625 0.9625
-0.085 -0.11521293 0.23582171 0.44721004 0.56741816 0.6914042 190 116 5 255 0.8726562 0.96250004
-0.08500001 -0.10889289 0.22834678 0.4472109 0.69140226 0.5674199 190 116 5 255 0.9039063 0.9625
-0.08500001 -0.108426526 0.22777852 0.47091666 0.7335057 0.49010912 190 116 5 255 0.90625 0.96250004
-0.1 -0.1458194 0.16 -0.4472141 -4.6786777e-08 -0.894427 190 116 5 255 0.05799997 0.27006692
-0.08500001 -0.196194 0.18086584 0.4709271 -0.81502056 -0.337593 190 116 5 255 0.4375 0.96250004
-0.1 -0.1716998 0.24 -0.44721374 2.0026116e-07 0.89442706 190 116 5 255 0.4419999 0.14584093
-0.1 -0.17840414 0.24000001 -0.44722372 -3.884785e-07 0.8944221 190 116 5 255 0.44199994 0.1136602
-0.08500001 -0.11464466 0.23535535 0.4709226 0.6237923 0.623791 190 116 5 255 0.875 0.96250004
-0.1 -0.1283002 0.16 -0.44721422 1.0494406e-06 -0.8944268 190 116 5 255 0.05799997 0.35415903
-0.08500001 -0.103592634 0.18156931 0.44720995 0.85591555 -0.25963783 190 116 5 255 0.060156252 0.96250004
-0.08500001 -0.10000001 0.2 0.47091773 0.8821771 -7.629274e-07 190 116 5 255 1 0.96250004
-0.08500001 -0.18535535 0.16464467 0.4709177 -0.6237928 -0.6237941 190 116 5 255 0.375 0.96250004
-0.08500001 -0.19110712 0.17165324 0.4472104 -0.6914015 -0.5674213 190 116 5 255 0.40390626 0.9625
-0.08500001 -0.19157349 0.22777852 0.47092155 -0.7335014 0.49011084 190 116 5 255 0.59375 0.96250004
-0.08500001 -0.100888684 0.19097708 0.44721055 0.8901217 -0.08766999 190 116 5 255 0.028906252 0.96250004
-0.08500001 -0.10096075 0.1902455 0.4709244 0.8652227 -0.17210442 190 116 5 255 0.03125 0.96250004
-0.08500001 -0.18582171 0.23478709 0.447211 -0.6914071 0.56741387 190 116 5 255 0.6226562 0.9625
-0.1 -0.121595904 0.16000001 -0.4472234 7.939145e-08 -0.8944223 190 116 5 255 0.057999983 0.38633972
-0.08500001 -0.19640738 0.21843071 0.44721016 -0.8559156 0.25963768 190 116 5 255 0.5601562 0.96250004
-0.08500001 -0.18535535 0.23535535 0.470918 -0.62379694 0.6237896 190 116 5 255 0.625 0.96250004
-0.08500001 -0.10117414 0.210458 0.44721076 0.8559157 0.25963598 190 116 5 255 0.9664063 0.96250004
0.085 -0.2 0.2 -0.447213 -0.89012057 -0.08766925 190 116 5 255 0.5 0.5375
-0.085 -0.1796958 0.16000001 0.057085287 -0.49662504 -0.86608595 190 116 5 255 0.3516577 0.96250004
-0.085 -0.12030419 0.24000001 0.05708539 0.49662474 0.8660861 190 116 5 255 0.85165775 0.96250004
-0.08500001 -0.19157349 0.1722215 0.4709218 -0.73350036 -0.49011204 190 116 5 255 0.40625 0.96250004
-0.08500001 -0.19584745 0.1802175 0.44720975 -0.7888148 -0.4216334 190 116 5 255 0.4381797 0.74792373
-0.08500001 -0.196194 0.18086584 0.4709271 -0.81502056 -0.337593 190 116 5 255 0.4402057 0.748097
-0.085 -0.2 0.16000001 0.33331624 -0.6666885 -0.66665345 190 116 5 255 0.375 0.75
-0.08500001 -0.196194 0.21913418 0.47092745 -0.81502086 0.3375919 190 116 5 255 0.5597943 0.748097
-0.08500001 -0.19192003 0.22713019 0.44721073 -0.7888154 0.42163116 190 116 5 255 0.5847819 0.74596
-0.085 -0.2 0.24000001 0.33332464 -0.6666862 0.6666515 190 116 5 255 0.625 0.75
-0.08500001 -0.19992796 0.19926842 0.44722548 -0.8901141 -0.087670855 190 116 5 255 0.49765626 0.96250004
-0.08500001 -0.19584745 0.1802175 0.44720975 -0.7888148 -0.4216334 190 116 5 255 0.43515626 0.96250004
-0.08500001 -0.10000001 0.2 0.47091773 0.8821771 -7.629274e-07 190 116 5 255 0 0.96250004
-0.1 -0.12222149 0.15842652 -0.42612222 0.50260305 -0.7522034 190 116 5 255 0.0504473 0.38333684
-0.1 -0.17777851 0.24157348 -0.42612204 -0.502603 0.75220364 190 116 5 255 0.4495527 0.11666314
-0.085 -0.120304205 0.16000001 0.05708454 0.49662635 -0.86608523 190 116 5 255 0.375 0.71015215
-0.085 -0.11464466 0.16464467 0.47091892 0.62378997 -0.623796 190 116 5 255 0.38951457 0.70732236
-0.085 -0.1141783 0.16521293 0.44720936 0.6913987 -0.56742555 190 116 5 255 0.3912904 0.70708925
-0.085 -0.12030419 0.24000001 0.05708539 0.49662474 0.8660861 190 116 5 255 0.625 0.7101521
-0.085 -0.11521293 0.23582171 0.44721004 0.56741816 0.6914042 190 116 5 255 0.61194265 0.70760643
-0.08500001 -0.11464466 0.23535535 0.4709226 0.6237923 0.623791 190 116 5 255 0.6104855 0.70732236
-0.08500001 -0.10889289 0.22834678 0.4472109 0.69140226 0.5674199 190 116 5 255 0.5885837 0.70444655
-0.08500001 -0.108426526 0.22777852 0.47091666 0.7335057 0.49010912 190 116 5 255 0.5868079 0.7042133
-0.085 -0.108426526 0.1722215 0.47091472 0.7335052 -0.49011168 190 116 5 255 0.4131922 0.7042134
-0.085 -0.108079985 0.17286982 0.447212 0.78881603 -0.42162848 190 116 5 255 0.41521823 0.70404005
-0.08500001 -0.10415256 0.2197825 0.44721022 0.78881574 0.42163113 190 116 5 255 0.5618204 0.7020763
-0.08500001 -0.10380603 0.21913418 0.47092432 0.81502223 0.3375933 190 116 5 255 0.5597943 0.7019029
-0.08500001 -0.10117414 0.210458 0.44721076 0.8559157 0.25963598 190 116 5 255 0.5326812 0.70058703
-0.08500001 -0.10096075 0.20975453 0.47092488 0.86522347 0.17209914 190 116 5 255 0.5304828 0.7004803
-0.08500001 -0.10380603 0.18086584 0.4709245 0.81502223 -0.33759293 190 116 5 255 0.44020572 0.701903
-0.08500001 -0.103592634 0.18156931 0.44720995 0.85591555 -0.25963783 190 116 5 255 0.44240406 0.7017963
-0.08500001 -0.10096075 0.1902455 0.4709244 0.8652227 -0.17210442 190 116 5 255 0.46951714 0.7004803
-0.08500001 -0.100888684 0.19097708 0.44721055 0.8901217 -0.08766999 190 116 5 255 0.47180328 0.7004442
-0.135 0.3 0.16 -0.33332774 0.66666263 -0.66667354 190 116 5 255 0.125 0.5
-0.1 -0.12030421 0.16000001 -0.05708507 0.16554205 -0.9845492 190 116 5 255 0.3 0.71015215
-0.085 -0.1796958 0.16000001 0.057085287 -0.49662504 -0.86608595 190 116 5 255 0.375 0.7398479
-0.1 -0.1796958 0.16 -0.057086702 -0.16554254 -0.984549 190 116 5 255 0.3 0.7398479
-0.1 -0.121595904 0.16000001 -0.4472234 7.939145e-08 -0.8944223 190 116 5 255 0.3 0.71079797
-0.1 -0.1283002 0.16 -0.44721422 1.0494406e-06 -0.8944268 190 116 5 255 0.3 0.71415013
-0.1 -0.17840411 0.16000001 -0.44722334 1.2781918e-06 -0.8944223 190 116 5 255 0.29999998 0.739202
-0.1 -0.12030419 0.24000001 -0.057084963 0.16554177 0.9845492 190 116 5 255 0.7 0.7101521
-0.135 0.3 0.24000001 -0.3333389 0.666643 0.66668755 195 125 19 255 0.875 0.5
-0.1 -0.17969581 0.24 -0.057085432 -0.1655477 0.9845483 190 116 5 255 0.7 0.7398479
-0.085 -0.17969581 0.24000001 0.057084564 -0.4966253 0.86608577 190 116 5 255 0.625 0.7398479
-0.1 -0.121595874 0.24 -0.4472197 -5.4840907e-06 0.89442414 190 116 5 255 0.7 0.71079797
-0.1 -0.17840414 0.24000001 -0.44722372 -3.884785e-07 0.8944221 190 116 5 255 0.7 0.7392021
-0.1 -0.13799492 0.24 -0.447211 0 0.89442855 190 116 5 255 0.6999999 0.71899736
0.085 -0.2 0.2 -0.25700635 -0.96524554 0.047419723 190 116 5 255 0.5 0
0.085000016 -0.19911133 0.19097707 -0.24253196 -0.96547186 -0.095091484 190 116 5 255 0.47180334 0.0004443407
0.085 -0.19903927 0.19024548 -0.2578743 -0.9476148 -0.18848622 190 116 5 255 0.46951717 0.00048036876
0.085000016 -0.19640738 0.1815693 -0.24253133 -0.9283695 -0.28161773 190 116 5 255 0.44240406 0.001796314
0.085 -0.19619398 0.18086582 -0.25788432 -0.89263165 -0.3697357 190 116 5 255 0.4402056 0.0019030124
0.085 -0.18535535 0.16464466 -0.25787902 -0.68319136 -0.68318945 190 116 5 255 0.38951454 0.00732233
0.085 -0.17969581 0.16 -0.04538613 -0.5264737 -0.8489791 190 116 5 255 0.375 0.010152092
0.085000016 -0.19192003 0.1728698 -0.24253123 -0.8555898 -0.4573233 190 116 5 255 0.41521817 0.0040399926
0.085 -0.2 0.16 -0.33332434 -0.66668624 -0.6666516 190 116 5 255 0.375 1
0.085 -0.12030419 0.16 -0.045387067 0.5264723 -0.84898 190 116 5 255 0.125 0.7101521
0.085 0.3 0.16 -0.3333236 0.66666615 -0.66667205 190 116 5 255 0.125 0.5
0.1 -0.12030419 0.16000001 0.2072724 0.2629912 -0.94227046 190 116 5 255 0.19999999 0.7101521
0.085 -0.2 0.16 -0.33332434 -0.66668624 -0.6666516 190 116 5 255 0.125 0.75
0.1 -0.17969581 0.16 0.2072767 -0.2629902 -0.9422698 190 116 5 255 0.19999999 0.7398479
0.085 -0.17969581 0.16 -0.04538613 -0.5264737 -0.8489791 190 116 5 255 0.125 0.7398479
0.1 -0.120648004 0.16 0.7071105 1.5504926e-05 -0.70710295 190 116 5 255 0.2 0.71032405
0.1 -0.17935202 0.16 0.70710444 0 -0.7071091 190 116 5 255 0.2 0.739676
0.1 -0.17328274 0.16 0.7071044 0 -0.7071092 190 116 5 255 0.19999997 0.7366413
0.1 -0.12117012 0.16000001 0.7071024 -1.0688786e-05 -0.7071111 190 116 5 255 0.20000002 0.7105851
0.1 -0.13120621 0.16 0.7071067 5.523718e-07 -0.7071069 190 116 5 255 0.19999997 0.715603
0.1 -0.1687938 0.16 0.707102 1.6808291e-06 -0.70711154 190 116 5 255 0.2 0.73439693
0.1 -0.12030421 0.24000001 0.20727323 0.2629858 0.9422719 190 116 5 255 0.8000001 0.71015215
0.085 0.3 0.24 -0.33332646 0.6666486 0.666688 190 116 5 255 0.875 0.5
0.085 -0.120304205 0.24 -0.045386057 0.52647346 0.84897923 190 116 5 255 0.875 0.71015215
0.085 -0.1796958 0.24 -0.045386955 -0.52647233 0.84898 190 116 5 255 0.875 0.7398479
0.085 -0.2 0.24 -0.33331713 -0.66668826 0.6666532 190 116 5 255 0.875 0.75
0.1 -0.1796958 0.24 0.20727283 -0.2630017 0.94226754 190 116 5 255 0.8000001 0.7398479
0.1 -0.12064802 0.24 0.7070981 -1.6302656e-05 0.7071155 190 116 5 255 0.7999999 0.7103239
0.1 -0.12671728 0.24 0.7071045 1.00063154e-07 0.7071091 190 116 5 255 0.79999995 0.71335864
0.1 -0.17935199 0.24000001 0.7071041 -3.9193324e-06 0.7071095 190 116 5 255 0.8000001 0.739676
0.1 -0.17882988 0.24000001 0.7071069 4.6801185e-07 0.70710665 190 116 5 255 0.79999995 0.7394149
0.1 -0.13120623 0.24000001 0.70710176 1.2349752e-06 0.7071117 190 116 5 255 0.8000001 0.7156031
0.1 -0.13420565 0.24000001 0.70710665 -2.5456815e-08 0.70710695 190 116 5 255 0.79999995 0.71710277
-0.1 -0.17969581 0.24 -0.057085432 -0.1655477 0.9845483 190 116 5 255 0.64834225 1
-0.1 -0.12030421 0.16000001 -0.05708507 0.16554205 -0.9845492 190 116 5 255 0.14834231 1
-0.1 -0.1796958 0.16 -0.057086702 -0.16554254 -0.984549 190 116 5 255 0.057999976 0.107460186
-0.1 -0.12030419 0.24000001 -0.057084963 0.16554177 0.9845492 190 116 5 255 0.44199997 0.39253992
0.085 -0.12030419 0.16 -0.045387067 0.5264723 -0.84898 190 116 5 255 0.375 0.03984791
0.085000016 -0.11521293 0.1641783 -0.2425301 0.6154543 -0.74993 190 116 5 255 0.38805717 0.042393543
0.085 -0.11464466 0.16464466 -0.25788072 0.6831904 -0.68318975 190 116 5 255 0.38951454 0.04267768
0.085000016 -0.10889289 0.17165323 -0.24253139 0.7499298 -0.6154542 190 116 5 255 0.4114163 0.045553558
0.085 -0.108426526 0.17222148 -0.25787815 0.80334604 -0.5367812 190 116 5 255 0.4131921 0.04578674
0.085 -0.120304205 0.24 -0.045386057 0.52647346 0.84897923 190 116 5 255 0.625 0.0398479
0.085 -0.11464466 0.23535533 -0.25788122 0.68319035 0.68318975 190 116 5 255 0.61048543 0.042677667
0.085000016 -0.1141783 0.23478708 -0.2425315 0.7499313 0.61545247 190 116 5 255 0.6087096 0.042910855
0.085 -0.108426526 0.22777851 -0.25787827 0.8033479 0.5367783 190 116 5 255 0.58680785 0.045786742
0.085000016 -0.10415256 0.1802175 -0.24253139 0.8555902 -0.4573226 190 116 5 255 0.4381797 0.04792372
0.085000016 -0.108079985 0.22713019 -0.24253197 0.8555918 0.4573193 190 116 5 255 0.5847818 0.045960013
0.085 -0.103806034 0.21913417 -0.257884 0.8926304 0.3697389 190 116 5 255 0.55979425 0.048096985
0.085000016 -0.103592634 0.2184307 -0.24253146 0.92836994 0.28161618 190 116 5 255 0.55759597 0.048203684
0.085 -0.103806034 0.18086582 -0.2578834 0.8926295 -0.36974126 190 116 5 255 0.44020566 0.04809699
0.085000016 -0.10117414 0.18954201 -0.24253146 0.9283695 -0.2816178 190 116 5 255 0.4673187 0.049412932
0.085 -0.10096075 0.19024548 -0.25788435 0.947611 -0.18849151 190 116 5 255 0.4695171 0.049519632
0.085 -0.100072056 0.1992684 -0.24253136 0.96547204 -0.09509127 190 116 5 255 0.49771377 0.049963966
0.085 -0.10096075 0.20975451 -0.25788417 0.9476112 0.18849054 190 116 5 255 0.5304828 0.04951963
0.085 -0.1796958 0.24 -0.045386955 -0.52647233 0.84898 190 116 5 255 0.625 0.0101521015
0.085000016 -0.18478708 0.2358217 -0.24253006 -0.6154539 0.7499305 190 116 5 255 0.6119428 0.0076064616
0.085 -0.18535535 0.23535533 -0.2578784 -0.6831904 0.6831908 190 116 5 255 0.6104854 0.00732233
0.085000016 -0.19110712 0.22834677 -0.24253164 -0.7499294 0.61545455 190 116 5 255 0.58858365 0.0044464413
0.085 -0.19157349 0.22777851 -0.2578826 -0.8033449 0.5367806 190 116 5 255 0.5868078 0.00421326
0.085000016 -0.19992796 0.20073159 -0.24254046 -0.96546936 0.095094904 190 116 5 255 0.50228626 3.602803e-05
0.085000016 -0.19882587 0.21045798 -0.24253377 -0.92836785 0.28162116 190 116 5 255 0.5326811 0.0005870669
0.085 -0.19903927 0.20975451 -0.25788113 -0.947612 0.18849145 190 116 5 255 0.5304829 0.0004803687
0.1 -0.12030421 0.24000001 0.20727323 0.2629858 0.9422719 190 116 5 255 0.8516576 0.5
0.1 -0.17969581 0.16 0.2072767 -0.2629902 -0.9422698 190 116 5 255 0.35165775 0.5
-0.1 -0.1796958 0.16 -0.057086702 -0.16554254 -0.984549 190 116 5 255 0.3516577 1
-0.1 -0.12030419 0.24000001 -0.057084963 0.16554177 0.9845492 190 116 5 255 0.85165775 1
-0.085 -0.18478708 0.16417831 0.44720966 -0.5674181 -0.69140446 190 116 5 255 0.38805723 0.7423935
-0.08500001 -0.18535535 0.16464467 0.4709177 -0.6237928 -0.6237941 190 116 5 255 0.38951457 0.7426777
-0.08500001 -0.19110712 0.17165324 0.4472104 -0.6914015 -0.5674213 190 116 5 255 0.41141635 0.74555355
-0.08500001 -0.19157349 0.1722215 0.4709218 -0.73350036 -0.49011204 190 116 5 255 0.41319218 0.7457868
-0.08500001 -0.19992796 0.19926842 0.44722548 -0.8901141 -0.087670855 190 116 5 255 0.4977138 0.749964
-0.08500001 -0.19882587 0.18954203 0.44721046 -0.8559151 -0.25963873 190 116 5 255 0.46731874 0.749413
-0.08500001 -0.19903927 0.1902455 0.47092056 -0.86522484 -0.1721036 190 116 5 255 0.4695171 0.7495196
-0.08500001 -0.19911133 0.20902294 0.44721174 -0.89012104 0.08767013 190 116 5 255 0.52819663 0.74955565
-0.08500001 -0.19903927 0.20975453 0.4709203 -0.86522484 0.17210439 190 116 5 255 0.5304829 0.74951965
-0.08500001 -0.19640738 0.21843071 0.44721016 -0.8559156 0.25963768 190 116 5 255 0.55759597 0.74820364
-0.08500001 -0.18535535 0.23535535 0.470918 -0.62379694 0.6237896 190 116 5 255 0.6104854 0.7426776
-0.08500001 -0.19157349 0.22777852 0.47092155 -0.7335014 0.49011084 190 116 5 255 0.5868078 0.7457868
-0.08500001 -0.18582171 0.23478709 0.447211 -0.6914071 0.56741387 190 116 5 255 0.6087097 0.74291086
-0.1 -0.12030421 0.16000001 -0.05708507 0.16554205 -0.9845492 190 116 5 255 0.057999983 0.3925398
-0.1 -0.17969581 0.24 -0.057085432 -0.1655477 0.9845483 190 116 5 255 0.44199997 0.10746008
3 0 1 2
3 3 4 1
3 5 6 7
3 8 9 10
3 11 12 13
3 14 15 16
3 17 18 19
3 20 21 22
3 23 24 21
3 25 26 27
3 24 28 29
3 30 31 25
3 32 33 34
3 35 36 33
3 37 38 36
3 39 40 38
3 41 42 40
3 43 44 42
3 45 46 44
3 47 48 49
3 50 51 52
3 53 54 51
3 55 56 54
3 57 58 56
3 59 60 58
3 61 62 60
3 63 64 62
3 65 66 67
3 32 35 33
3 35 37 36
3 37 39 38
3 39 41 40
3 41 43 42
3 43 45 44
3 68 45 69
3 50 53 51
3 53 55 54
3 55 57 56
3 57 59 58
3 59 61 60
3 61 63 62
3 70 63 71
3 72 73 74
3 74 75 72
3 75 76 72
3 77 78 76
3 79 80 81
3 80 82 81
3 82 83 81
3 84 85 81
3 76 86 72
3 81 87 79
3 67 88 89
3 89 90 91
3 92 93 91
3 94 95 96
3 96 97 98
3 98 99 100
3 100 101 102
3 103 104 65
3 65 105 106
3 106 107 108
3 109 110 108
3 111 112 113
3 113 114 115
3 115 116 117
3 117 118 119
3 120 121 67
3 89 122 67
3 91 123 89
3 91 93 124
3 98 125 96
3 100 126 98
3 100 102 127
3 106 128 65
3 108 129 106
3 108 110 130
3 115 66 113
3 117 131 115
3 117 119 132
3 67 125 65
3 132 120 67
3 133 134 135
3 128 129 113
3 136 137 138
3 123 124 96
3 139 135 134
3 93 140 94
3 124 94 96
3 127 103 65
3 141 142 143
3 102 144 103
3 145 146 147
3 148 20 149
3 150 151 152
3 153 68 154
3 122 123 96
3 155 156 157
3 158 159 160
3 161 162 163
3 164 165 166
3 167 168 169
3 125 122 96
3 136 170 171
3 119 172 120
3 139 173 174
3 66 131 67
3 175 160 159
3 176 177 178
3 70 157 156
3 145 179 180
3 130 111 113
3 164 181 182
3 141 183 184
3 155 185 186
3 131 132 67
3 187 184 183
3 176 182 181
3 133 188 189
3 190 180 179
3 125 126 65
3 191 186 185
3 175 166 165
3 187 169 168
3 192 174 173
3 193 143 142
3 194 70 156
3 161 171 170
3 158 154 195
3 66 128 113
3 167 196 197
3 191 138 137
3 129 130 113
3 126 127 65
3 110 198 111
3 192 147 146
3 68 195 154
3 199 197 196
3 200 157 201
3 202 155 200
3 203 52 193
3 204 173 205
3 206 181 207
3 87 208 79
3 209 133 210
3 211 175 212
3 213 197 214
3 215 191 216
3 217 34 190
3 218 147 219
3 219 192 204
3 86 220 72
3 221 167 213
3 222 223 79
3 216 185 202
3 224 145 218
3 220 225 72
3 226 138 215
3 210 189 227
3 228 141 229
3 212 159 230
3 231 170 232
3 230 158 233
3 225 234 72
3 207 164 235
3 233 195 236
3 237 134 209
3 49 238 177
3 235 166 211
3 239 50 52
3 240 32 34
3 229 184 241
3 242 243 244
3 245 246 247
3 214 199 248
3 241 187 249
3 250 161 231
3 234 251 72
3 232 136 226
3 249 168 221
3 208 222 79
3 205 139 237
3 223 252 79
3 0 3 1
3 3 5 4
3 253 4 254
3 4 5 7
3 254 4 255
3 5 256 257
3 258 259 5
3 259 260 5
3 5 257 258
3 255 4 261
3 261 4 262
3 260 263 5
3 263 264 5
3 264 265 5
3 265 266 5
3 262 4 267
3 267 4 268
3 5 266 6
3 269 4 270
3 269 268 4
3 270 4 7
3 10 244 8
3 8 247 9
3 13 271 272
3 271 4 272
3 4 253 272
3 273 244 274
3 244 13 274
3 13 272 275
3 13 275 276
3 277 274 13
3 12 277 13
3 13 276 11
3 256 5 278
3 5 279 278
3 14 247 280
3 247 281 280
3 282 278 14
3 278 279 14
3 14 280 283
3 14 283 15
3 284 282 14
3 16 284 14
3 19 285 286
3 287 288 19
3 288 289 19
3 19 286 287
3 290 291 19
3 18 290 19
3 289 292 19
3 292 17 19
3 20 23 21
3 23 25 24
3 293 24 27
3 24 25 27
3 294 295 296
3 295 21 296
3 24 297 298
3 297 299 298
3 300 296 24
3 296 21 24
3 24 298 301
3 24 301 302
3 303 300 24
3 304 303 24
3 24 302 305
3 24 305 28
3 29 304 24
3 25 23 306
3 23 307 306
3 307 308 306
3 309 310 311
3 310 25 311
3 25 306 312
3 25 312 313
3 314 311 25
3 315 314 25
3 25 313 316
3 25 316 317
3 31 315 25
3 25 317 30
3 45 68 46
3 46 153 44
3 48 248 238
3 248 199 238
3 199 196 178
3 199 178 238
3 48 238 49
3 63 70 64
3 64 194 62
3 65 128 66
3 45 318 69
3 69 236 68
3 236 195 68
3 63 319 71
3 71 201 70
3 201 157 70
3 77 320 78
3 84 321 85
3 76 78 86
3 81 85 87
3 92 140 93
3 109 198 110
3 89 123 122
3 91 124 123
3 98 126 125
3 100 127 126
3 106 129 128
3 108 130 129
3 115 131 66
3 117 132 131
3 67 122 125
3 132 119 120
3 136 171 137
3 139 174 135
3 124 93 94
3 127 102 103
3 102 101 144
3 145 180 146
3 22 322 323
3 324 325 22
3 325 326 22
3 22 323 324
3 327 20 328
3 20 22 149
3 328 20 329
3 329 20 330
3 22 326 331
3 330 20 332
3 333 332 20
3 333 20 334
3 22 331 335
3 335 336 22
3 336 337 22
3 337 338 22
3 338 149 22
3 339 20 148
3 339 334 20
3 152 340 341
3 342 343 152
3 343 344 152
3 152 341 342
3 345 285 152
3 151 346 152
3 346 347 152
3 347 345 152
3 152 344 150
3 153 46 68
3 155 186 156
3 164 182 165
3 119 118 172
3 175 165 160
3 130 110 111
3 141 143 183
3 176 178 182
3 133 135 188
3 190 348 180
3 191 137 186
3 187 183 169
3 192 146 174
3 193 349 143
3 194 64 70
3 161 163 171
3 158 160 154
3 167 169 196
3 200 155 157
3 202 185 155
3 142 228 203
3 52 349 193
3 193 142 203
3 204 192 173
3 206 176 181
3 209 134 133
3 211 166 175
3 213 167 197
3 215 138 191
3 179 224 217
3 34 348 190
3 190 179 217
3 218 145 147
3 219 147 192
3 221 168 167
3 216 191 185
3 224 179 145
3 226 136 138
3 210 133 189
3 228 142 141
3 212 175 159
3 231 161 170
3 230 159 158
3 207 181 164
3 233 158 195
3 237 139 134
3 177 176 49
3 176 206 49
3 238 178 177
3 206 48 49
3 235 164 166
3 52 203 239
3 239 350 50
3 34 217 240
3 240 351 32
3 229 141 184
3 244 273 352
3 353 354 244
3 354 355 244
3 244 352 353
3 356 8 244
3 243 357 244
3 357 358 244
3 358 356 244
3 355 242 244
3 247 8 359
3 360 361 247
3 361 245 247
3 247 359 360
3 362 281 247
3 363 364 247
3 364 362 247
3 246 363 247
3 214 197 199
3 241 184 187
3 250 162 161
3 234 365 251
3 232 170 136
3 249 187 168
3 205 173 139
3 223 366 252
