ply
format ascii 1.0
comment Created in Blender version 4.2.2 LTS
element vertex 184
property float x
property float y
property float z
property float nx
property float ny
property float nz
property uchar red
property uchar green
property uchar blue
property uchar alpha
property float s
property float t
element face 176
property list uchar uint vertex_indices
end_header
0.5 0.040000003 0.039999995 0.66664946 0.33334062 0.66668016 190 20 22 255 0.625 0.25
0.5 -0.040000003 -0.039999995 0.6666494 -0.3333405 -0.6666802 190 21 22 255 0.375 0.5
0.5 0.039999995 -0.040000003 0.66666555 0.33333763 -0.6666656 190 20 22 255 0.375 0.25
0.5 -0.039999995 0.040000003 0.6666656 -0.33333752 0.6666656 190 20 22 255 0.625 0.5
0.049039263 -0.04 0.009754514 0.8652161 -0.47093657 0.17210463 190 20 22 255 0.5304828 0.7254803
0.05 -0.04 -1.7484555e-09 0.88217294 -0.4709255 2.225758e-06 190 20 22 255 0.5 0.725
0.029695803 0.03999999 -0.040000003 0.4966239 0.05708521 -0.86608654 190 20 22 255 0.125 0.73515207
0.5 0.039999995 -0.040000003 0.66666555 0.33333763 -0.6666656 190 20 22 255 0.125 0.5
0.5 0.040000003 0.039999995 0.66664946 0.33334062 0.66668016 190 20 22 255 0.875 0.5
0.029695803 -0.03999999 0.040000003 0.4966239 -0.05708521 0.86608654 190 20 22 255 0.625 0.73515207
0.05 0.04 1.7484555e-09 0.88217306 0.4709255 2.268195e-06 190 20 22 255 1 0.65
0.049039263 0.1 -0.0097545115 0.88728803 0.4261095 -0.17649503 190 20 22 255 0.96875 0.5
0.05 0.1 4.371139e-09 0.9046623 0.42612928 -2.2817485e-06 190 20 22 255 1 0.5
0.049039263 0.04 -0.009754514 0.865217 0.47093657 -0.17210022 190 20 22 255 0.96875 0.65000004
0.046193976 0.1 -0.01913417 0.835798 0.4261294 -0.34620142 190 20 22 255 0.9375 0.5
0.046193976 0.04 -0.019134171 0.81501806 0.47093442 -0.33758885 190 20 22 255 0.9375 0.65000004
0.04157348 0.1 -0.027778508 0.7522047 0.4261111 -0.5026105 190 20 22 255 0.90625 0.5
0.04157348 0.04 -0.02777851 0.73350114 0.4709258 -0.49010694 190 20 22 255 0.90625 0.65000004
0.03535534 0.1 -0.035355337 0.6396901 0.42613578 -0.6396913 190 20 22 255 0.875 0.5
0.029695803 0.03999999 -0.040000003 0.4966239 0.05708521 -0.86608654 190 20 22 255 0.8516576 0.65
0.029695807 -0.040000003 -0.039999995 0.4966236 -0.057085343 -0.8660868 190 20 22 255 0.8516576 0.84999996
0.027778512 -0.1 -0.041573483 0.502607 -0.42611542 -0.7522046 190 20 22 255 0.84375 1
0.019134173 0.1 -0.046193972 0.34620178 0.4261182 -0.83580357 190 20 22 255 0.8125 0.5
0.027778512 0.1 -0.041573476 0.50260925 0.4261108 -0.7522058 190 20 22 255 0.84375 0.5
0.019134173 -0.1 -0.04619398 0.34620407 -0.42609912 -0.8358124 190 20 22 255 0.8125 1
0.009754516 0.1 -0.04903926 0.1764946 0.42609483 -0.8872951 190 20 22 255 0.78125 0.5
0.009754516 -0.1 -0.049039267 0.17649136 -0.42611814 -0.88728464 190 20 22 255 0.78125 1
0 0.1 -0.049999997 5.448965e-07 0.42611808 -0.90466756 190 20 22 255 0.75 0.5
0 -0.1 -0.050000004 -5.432793e-07 -0.4261146 -0.9046692 190 20 22 255 0.75 1
-0.009754516 0.1 -0.04903926 -0.17649323 0.42609847 -0.88729376 190 20 22 255 0.71875 0.5
-0.009754516 -0.1 -0.049039267 -0.176493 -0.42611203 -0.8872873 190 20 22 255 0.71875 1
-0.019134173 0.1 -0.046193972 -0.34620064 0.4261182 -0.83580405 190 20 22 255 0.6875 0.5
-0.019134173 -0.1 -0.04619398 -0.3462056 -0.42609742 -0.83581257 190 20 22 255 0.6875 1
-0.027778512 0.1 -0.041573476 -0.50261045 0.4261 -0.7522112 190 20 22 255 0.65625 0.5
-0.027778512 -0.1 -0.041573483 -0.5026069 -0.42611808 -0.75220317 190 20 22 255 0.65625 1
-0.03535534 0.1 -0.035355337 -0.6396963 0.42611808 -0.6396969 190 20 22 255 0.625 0.5
-0.03535534 -0.1 -0.035355344 -0.6397034 -0.42609853 -0.63970274 190 21 22 255 0.625 1
-0.04157348 0.1 -0.027778508 -0.7522061 0.426111 -0.50260866 190 20 22 255 0.59375 0.5
-0.04157348 -0.1 -0.027778516 -0.75220376 -0.42611808 -0.502606 190 21 22 255 0.59375 1
-0.046193976 0.1 -0.01913417 -0.83580357 0.4261182 -0.34620172 190 20 22 255 0.5625 0.5
-0.046193976 -0.1 -0.019134177 -0.8358123 -0.42609912 -0.34620422 190 21 22 255 0.5625 1
-0.049039263 0.1 -0.0097545115 -0.88729036 0.42610532 -0.17649366 190 20 22 255 0.53125 0.5
-0.049039263 -0.1 -0.009754521 -0.88728464 -0.4261182 -0.17649136 190 21 22 255 0.53125 1
-0.05 0.1 4.371139e-09 -0.90466756 0.4261181 -5.262703e-07 190 20 22 255 0.5 0.5
-0.05 -0.1 -4.371139e-09 -0.9046688 -0.42611548 5.2465424e-07 190 21 22 255 0.5 1
-0.049039263 0.1 0.009754521 -0.8872938 0.4260984 0.1764933 190 20 22 255 0.46875 0.5
-0.049039263 -0.1 0.0097545115 -0.88728726 -0.42611212 0.17649305 190 22 22 255 0.46875 1
-0.046193976 0.1 0.019134177 -0.83580405 0.42611814 0.3462007 190 20 22 255 0.4375 0.5
-0.046193976 -0.1 0.01913417 -0.83580804 -0.426108 0.3462036 192 23 24 255 0.4375 1
-0.04157348 0.1 0.027778516 -0.75221074 0.42609996 0.5026111 190 20 22 255 0.40625 0.5
-0.04157348 -0.1 0.027778508 -0.7522033 -0.42611814 0.50260675 192 24 25 255 0.40625 1
-0.03535534 0.1 0.035355344 -0.63969696 0.42611808 0.63969624 190 21 22 255 0.375 0.5
-0.03535534 -0.1 0.035355337 -0.6397028 -0.4260986 0.6397034 193 29 30 255 0.375 1
-0.027778512 0.1 0.041573483 -0.5026091 0.42611125 0.7522056 192 22 23 255 0.34375 0.5
-0.027778512 -0.1 0.041573476 -0.5026058 -0.42611814 0.75220394 193 32 33 255 0.34375 1
-0.019134173 0.1 0.04619398 -0.34620178 0.42611814 0.83580357 192 24 25 255 0.3125 0.5
-0.019134173 -0.1 0.046193972 -0.34620345 -0.42610282 0.8358107 193 34 36 255 0.3125 1
-0.009754516 0.1 0.049039267 -0.17649463 0.4260948 0.88729525 192 22 23 255 0.28125 0.5
-0.009754516 -0.1 0.04903926 -0.17649193 -0.42611215 0.8872875 192 27 28 255 0.28125 1
0 0.1 0.050000004 -5.448965e-07 0.42611802 0.90466756 190 21 22 255 0.25 0.5
0 -0.1 0.049999997 5.4328035e-07 -0.42611545 0.9046688 190 22 23 255 0.25 1
0.009754516 0.1 0.049039267 0.17649323 0.4260984 0.88729376 190 20 22 255 0.21875 0.5
0.009754516 -0.1 0.04903926 0.17649247 -0.4261182 0.8872844 190 20 22 255 0.21875 1
0.019134173 0.1 0.04619398 0.34620064 0.42611814 0.83580405 190 20 22 255 0.1875 0.5
0.019134173 -0.1 0.046193972 0.34620625 -0.42609385 0.8358141 190 20 22 255 0.1875 1
0.027778512 0.1 0.041573483 0.5026116 0.42609736 0.7522118 190 20 22 255 0.15625 0.5
0.029695803 -0.03999999 0.040000003 0.4966239 -0.05708521 0.86608654 190 20 22 255 0.14834228 0.84999996
0.029695813 0.040000003 0.039999995 0.49662253 0.057085328 0.8660873 190 20 22 255 0.14834227 0.65000004
0.03535534 0.04 0.03535534 0.6237874 0.4709311 0.62378937 190 20 22 255 0.125 0.65000004
0.04157348 0.1 0.027778516 0.7522033 0.4261221 0.5026034 190 20 22 255 0.09375 0.5
0.03535534 0.1 0.035355344 0.63969487 0.4261268 0.6396925 190 20 22 255 0.125 0.5
0.04157348 0.04 0.027778514 0.7334986 0.4709258 0.49011087 190 20 22 255 0.09375 0.65000004
0.046193976 0.1 0.019134177 0.8357998 0.4261293 0.3461971 190 20 22 255 0.0625 0.5
-0.046193976 -0.1 0.01913417 -0.83580804 -0.426108 0.3462036 192 23 24 255 0.15815598 0.028268918
-0.019134173 -0.1 -0.04619398 -0.3462056 -0.42609742 -0.83581257 190 20 22 255 0.47173107 0.15815598
0.046193976 -0.1 -0.019134177 0.83580405 -0.42611545 -0.34620392 190 20 22 255 0.34184402 0.47173107
0.046193976 0.04 0.019134175 0.81501627 0.47093448 0.33759305 190 20 22 255 0.0625 0.65000004
0.049039263 0.1 0.009754521 0.8872858 0.42611644 0.17648983 190 20 22 255 0.03125 0.5
0.049039263 0.04 0.009754518 0.86521596 0.47093657 0.17210464 190 20 22 255 0.03125 0.65000004
0.05 0.1 4.371139e-09 0.9046623 0.42612928 -2.2817485e-06 190 20 22 255 0 0.5
-0.049039263 0.1 -0.0097545115 -0.88729036 0.42610532 -0.17649366 190 20 22 255 0.79682165 0.014611542
-0.009754516 0.1 0.049039267 -0.17649463 0.4260948 0.88729525 192 22 23 255 0.51461154 0.20317832
0.049039263 0.1 0.009754521 0.8872858 0.42611644 0.17648983 190 20 22 255 0.70317835 0.48538846
0.05 -0.04 -1.7484555e-09 0.88217294 -0.4709255 2.225758e-06 190 20 22 255 1 0.84999996
0.049039263 -0.1 -0.009754521 0.88727903 -0.4261293 -0.17649312 190 20 22 255 0.96875 1
0.049039263 -0.04 -0.009754518 0.865217 -0.47093657 -0.17210025 190 20 22 255 0.96875 0.85
0.046193976 -0.1 -0.019134177 0.83580405 -0.42611545 -0.34620392 190 20 22 255 0.9375 1
0.046193976 -0.04 -0.019134175 0.815018 -0.47093454 -0.33758894 190 20 22 255 0.9375 0.85
0.04157348 -0.1 -0.027778516 0.75219786 -0.42612922 -0.50260544 190 20 22 255 0.90625 1
0.04157348 -0.04 -0.027778514 0.73350126 -0.4709258 -0.490107 190 20 22 255 0.90625 0.85
0.03535534 -0.1 -0.035355344 0.63969666 -0.4261161 -0.63969773 190 20 22 255 0.875 1
0.03535534 -0.04 -0.03535534 0.6237924 -0.47092175 -0.6237914 190 20 22 255 0.875 0.85
0.049039263 -0.04 0.009754514 0.8652161 -0.47093657 0.17210463 190 20 22 255 0.03125 0.85
0.05 -0.1 -4.371139e-09 0.90466356 -0.42612663 -2.3190048e-06 190 20 22 255 0 1
0.05 -0.04 -1.7484555e-09 0.88217294 -0.4709255 2.225758e-06 190 20 22 255 0 0.84999996
0.03535534 -0.04 0.03535534 0.62378657 -0.47093064 0.62379056 190 20 22 255 0.125 0.85
0.04157348 -0.1 0.027778508 0.7522005 -0.42612928 0.5026015 190 20 22 255 0.09375 1
0.04157348 -0.04 0.02777851 0.7334986 -0.47092587 0.49011087 190 20 22 255 0.09375 0.85
0.046193976 -0.04 0.019134171 0.8150163 -0.47093445 0.337593 190 20 22 255 0.0625 0.85
0.049039263 -0.1 0.0097545115 0.8872826 -0.4261232 0.17648917 190 20 22 255 0.03125 1
0.049039263 0.04 -0.009754514 0.865217 0.47093657 -0.17210022 190 20 22 255 0.46951714 0.02451963
0.05 0.04 1.7484555e-09 0.88217306 0.4709255 2.268195e-06 190 20 22 255 0.49999997 0.024999999
0.046193976 -0.1 0.01913417 0.8358066 -0.42611393 0.3461998 190 20 22 255 0.0625 1
0.029695807 -0.040000003 -0.039999995 0.4966236 -0.057085343 -0.8660868 190 20 22 255 0.37499997 0.73515207
0.03535534 -0.04 -0.03535534 0.6237924 -0.47092175 -0.6237914 190 20 22 255 0.38951457 0.73232234
0.04157348 -0.04 -0.027778514 0.73350126 -0.4709258 -0.490107 190 20 22 255 0.4131921 0.7292131
0.03535534 -0.04 0.03535534 0.62378657 -0.47093064 0.62379056 190 20 22 255 0.6104854 0.73232234
0.04157348 -0.04 0.02777851 0.7334986 -0.47092587 0.49011087 190 20 22 255 0.58680785 0.7292132
0.046193976 -0.04 -0.019134175 0.815018 -0.47093454 -0.33758894 190 20 22 255 0.44020566 0.72690296
0.049039263 -0.04 -0.009754518 0.865217 -0.47093657 -0.17210025 190 20 22 255 0.46951708 0.72548026
0.046193976 -0.04 0.019134171 0.8150163 -0.47093445 0.337593 190 20 22 255 0.55979425 0.72690296
0.029695813 0.040000003 0.039999995 0.49662253 0.057085328 0.8660873 190 20 22 255 0.875 0.73515207
0.03535534 0.04 -0.03535534 0.6237918 0.4709212 -0.62379247 190 20 22 255 0.875 0.65000004
0.027778512 -0.1 0.041573476 0.50260705 -0.4261176 0.75220335 190 20 22 255 0.15625 1
0.03535534 -0.1 0.035355337 0.6397013 -0.42610717 0.639699 190 20 22 255 0.125 1
0.049039263 -0.1 -0.009754521 0.88727903 -0.4261293 -0.17649312 190 20 22 255 0.29682168 0.48538846
0.05 -0.1 -4.371139e-09 0.90466356 -0.42612663 -2.3190048e-06 190 20 22 255 0.25 0.49
0.049039263 -0.1 0.0097545115 0.8872826 -0.4261232 0.17648917 190 20 22 255 0.20317832 0.48538846
0.046193976 -0.1 0.01913417 0.8358066 -0.42611393 0.3461998 190 20 22 255 0.15815598 0.47173107
0.04157348 -0.1 0.027778508 0.7522005 -0.42612928 0.5026015 190 20 22 255 0.11666314 0.4495527
0.03535534 -0.1 0.035355337 0.6397013 -0.42610717 0.639699 190 20 22 255 0.080294386 0.41970563
0.027778512 -0.1 0.041573476 0.50260705 -0.4261176 0.75220335 190 20 22 255 0.0504473 0.38333684
0.019134173 -0.1 0.046193972 0.34620625 -0.42609385 0.8358141 190 20 22 255 0.028268918 0.34184402
0.009754516 -0.1 0.04903926 0.17649247 -0.4261182 0.8872844 190 20 22 255 0.014611542 0.29682168
0 -0.1 0.049999997 5.4328035e-07 -0.42611545 0.9046688 190 22 23 255 0.010000005 0.25
-0.009754516 -0.1 0.04903926 -0.17649193 -0.42611215 0.8872875 192 27 28 255 0.014611542 0.20317832
-0.019134173 -0.1 0.046193972 -0.34620345 -0.42610282 0.8358107 193 34 36 255 0.028268918 0.15815598
-0.027778512 -0.1 0.041573476 -0.5026058 -0.42611814 0.75220394 193 32 33 255 0.0504473 0.11666314
-0.03535534 -0.1 0.035355337 -0.6397028 -0.4260986 0.6397034 193 29 30 255 0.080294386 0.080294386
-0.04157348 -0.1 0.027778508 -0.7522033 -0.42611814 0.50260675 192 24 25 255 0.11666314 0.0504473
-0.049039263 -0.1 0.0097545115 -0.88728726 -0.42611212 0.17649305 190 22 22 255 0.20317832 0.014611542
-0.046193976 -0.1 -0.019134177 -0.8358123 -0.42609912 -0.34620422 190 21 22 255 0.34184402 0.028268918
-0.05 -0.1 -4.371139e-09 -0.9046688 -0.42611548 5.2465424e-07 190 21 22 255 0.25 0.010000005
-0.049039263 -0.1 -0.009754521 -0.88728464 -0.4261182 -0.17649136 190 21 22 255 0.29682168 0.014611542
-0.04157348 -0.1 -0.027778516 -0.75220376 -0.42611808 -0.502606 190 21 22 255 0.38333684 0.0504473
-0.03535534 -0.1 -0.035355344 -0.6397034 -0.42609853 -0.63970274 190 21 22 255 0.41970563 0.080294386
-0.027778512 -0.1 -0.041573483 -0.5026069 -0.42611808 -0.75220317 190 20 22 255 0.4495527 0.11666314
-0.009754516 -0.1 -0.049039267 -0.176493 -0.42611203 -0.8872873 190 20 22 255 0.48538846 0.20317832
0.019134173 -0.1 -0.04619398 0.34620407 -0.42609912 -0.8358124 190 20 22 255 0.47173107 0.34184402
0 -0.1 -0.050000004 -5.432793e-07 -0.4261146 -0.9046692 190 20 22 255 0.49 0.25
0.009754516 -0.1 -0.049039267 0.17649136 -0.42611814 -0.88728464 190 20 22 255 0.48538846 0.29682168
0.027778512 -0.1 -0.041573483 0.502607 -0.42611542 -0.7522046 190 20 22 255 0.4495527 0.38333684
0.03535534 -0.1 -0.035355344 0.63969666 -0.4261161 -0.63969773 190 20 22 255 0.41970563 0.41970563
0.04157348 -0.1 -0.027778516 0.75219786 -0.42612922 -0.50260544 190 20 22 255 0.38333684 0.4495527
0.05 0.04 1.7484555e-09 0.88217306 0.4709255 2.268195e-06 190 20 22 255 0 0.65
0.05 0.1 4.371139e-09 0.9046623 0.42612928 -2.2817485e-06 190 20 22 255 0.75 0.49
0.049039263 0.1 -0.0097545115 0.88728803 0.4261095 -0.17649503 190 20 22 255 0.79682165 0.48538846
0.046193976 0.1 -0.01913417 0.835798 0.4261294 -0.34620142 190 20 22 255 0.841844 0.47173107
0.04157348 0.1 -0.027778508 0.7522047 0.4261111 -0.5026105 190 20 22 255 0.88333684 0.4495527
0.03535534 0.1 -0.035355337 0.6396901 0.42613578 -0.6396913 190 20 22 255 0.9197056 0.41970563
0.027778512 0.1 -0.041573476 0.50260925 0.4261108 -0.7522058 190 20 22 255 0.9495527 0.38333684
0.019134173 0.1 -0.046193972 0.34620178 0.4261182 -0.83580357 190 20 22 255 0.97173107 0.34184402
0.009754516 0.1 -0.04903926 0.1764946 0.42609483 -0.8872951 190 20 22 255 0.98538846 0.29682168
0 0.1 -0.049999997 5.448965e-07 0.42611808 -0.90466756 190 20 22 255 0.99 0.25
-0.009754516 0.1 -0.04903926 -0.17649323 0.42609847 -0.88729376 190 20 22 255 0.98538846 0.20317832
-0.019134173 0.1 -0.046193972 -0.34620064 0.4261182 -0.83580405 190 20 22 255 0.97173107 0.15815598
-0.027778512 0.1 -0.041573476 -0.50261045 0.4261 -0.7522112 190 20 22 255 0.9495527 0.11666314
-0.03535534 0.1 -0.035355337 -0.6396963 0.42611808 -0.6396969 190 20 22 255 0.9197056 0.080294386
-0.04157348 0.1 -0.027778508 -0.7522061 0.426111 -0.50260866 190 20 22 255 0.88333684 0.0504473
-0.046193976 0.1 -0.01913417 -0.83580357 0.4261182 -0.34620172 190 20 22 255 0.841844 0.028268918
-0.05 0.1 4.371139e-09 -0.90466756 0.4261181 -5.262703e-07 190 20 22 255 0.75 0.010000005
-0.049039263 0.1 0.009754521 -0.8872938 0.4260984 0.1764933 190 20 22 255 0.70317835 0.014611542
-0.046193976 0.1 0.019134177 -0.83580405 0.42611814 0.3462007 190 20 22 255 0.658156 0.028268918
-0.04157348 0.1 0.027778516 -0.75221074 0.42609996 0.5026111 190 20 22 255 0.61666316 0.0504473
-0.03535534 0.1 0.035355344 -0.63969696 0.42611808 0.63969624 190 21 22 255 0.5802944 0.080294386
-0.027778512 0.1 0.041573483 -0.5026091 0.42611125 0.7522056 192 22 23 255 0.5504473 0.11666314
-0.019134173 0.1 0.04619398 -0.34620178 0.42611814 0.83580357 192 24 25 255 0.52826893 0.15815598
0 0.1 0.050000004 -5.448965e-07 0.42611802 0.90466756 190 21 22 255 0.51 0.25
0.009754516 0.1 0.049039267 0.17649323 0.4260984 0.88729376 190 20 22 255 0.51461154 0.29682168
0.019134173 0.1 0.04619398 0.34620064 0.42611814 0.83580405 190 20 22 255 0.52826893 0.34184402
0.027778512 0.1 0.041573483 0.5026116 0.42609736 0.7522118 190 20 22 255 0.5504473 0.38333684
0.03535534 0.1 0.035355344 0.63969487 0.4261268 0.6396925 190 20 22 255 0.5802944 0.41970563
0.04157348 0.1 0.027778516 0.7522033 0.4261221 0.5026034 190 20 22 255 0.61666316 0.4495527
0.046193976 0.1 0.019134177 0.8357998 0.4261293 0.3461971 190 20 22 255 0.658156 0.47173107
0.05 -0.1 -4.371139e-09 0.90466356 -0.42612663 -2.3190048e-06 190 20 22 255 1 1
0.029695803 0.03999999 -0.040000003 0.4966239 0.05708521 -0.86608654 190 20 22 255 0.375 0.014847904
0.03535534 0.04 -0.03535534 0.6237918 0.4709212 -0.62379247 190 20 22 255 0.3895146 0.017677672
0.04157348 0.04 -0.02777851 0.73350114 0.4709258 -0.49010694 190 20 22 255 0.41319218 0.020786744
0.029695813 0.040000003 0.039999995 0.49662253 0.057085328 0.8660873 190 20 22 255 0.625 0.014847905
0.03535534 0.04 0.03535534 0.6237874 0.4709311 0.62378937 190 20 22 255 0.61048543 0.01767767
0.04157348 0.04 0.027778514 0.7334986 0.4709258 0.49011087 190 20 22 255 0.58680785 0.020786742
0.046193976 0.04 0.019134175 0.81501627 0.47093448 0.33759305 190 20 22 255 0.5597943 0.023096988
0.046193976 0.04 -0.019134171 0.81501806 0.47093442 -0.33758885 190 20 22 255 0.4402057 0.023096988
0.049039263 0.04 0.009754518 0.86521596 0.47093657 0.17210464 190 20 22 255 0.5304829 0.024519632
3 0 1 2
3 3 4 5
3 1 6 7
3 8 9 3
3 10 11 12
3 13 14 11
3 15 16 14
3 17 18 16
3 19 20 21
3 21 22 23
3 24 25 22
3 26 27 25
3 28 29 27
3 30 31 29
3 32 33 31
3 34 35 33
3 36 37 35
3 38 39 37
3 40 41 39
3 42 43 41
3 44 45 43
3 46 47 45
3 48 49 47
3 50 51 49
3 52 53 51
3 54 55 53
3 56 57 55
3 58 59 57
3 60 61 59
3 62 63 61
3 64 65 63
3 66 67 65
3 68 69 70
3 71 72 69
3 73 74 75
3 76 77 72
3 78 79 77
3 80 81 82
3 83 84 85
3 85 86 87
3 87 88 89
3 89 90 91
3 92 93 94
3 95 96 97
3 98 99 92
3 2 100 101
3 97 102 98
3 0 3 1
3 103 1 104
3 1 3 5
3 104 1 105
3 3 9 106
3 3 106 107
3 105 1 108
3 108 1 109
3 3 107 110
3 3 110 4
3 109 1 5
3 1 103 6
3 8 111 9
3 10 13 11
3 13 15 14
3 15 17 16
3 17 112 18
3 23 18 19
3 18 112 19
3 91 90 20
3 90 21 20
3 23 19 21
3 21 24 22
3 24 26 25
3 26 28 27
3 28 30 29
3 30 32 31
3 32 34 33
3 34 36 35
3 36 38 37
3 38 40 39
3 40 42 41
3 42 44 43
3 44 46 45
3 46 48 47
3 48 50 49
3 50 52 51
3 52 54 53
3 54 56 55
3 56 58 57
3 58 60 59
3 60 62 61
3 62 64 63
3 64 113 65
3 113 114 66
3 114 95 66
3 68 70 67
3 70 65 67
3 113 66 65
3 68 71 69
3 71 76 72
3 75 115 116
3 116 117 75
3 117 118 75
3 118 119 120
3 120 121 122
3 122 123 124
3 124 125 122
3 125 126 122
3 126 127 128
3 128 129 73
3 73 130 131
3 130 132 131
3 132 133 131
3 131 134 135
3 135 136 74
3 74 137 138
3 137 139 138
3 139 140 138
3 138 141 142
3 142 143 75
3 118 120 75
3 120 122 75
3 126 128 122
3 128 73 122
3 131 135 73
3 135 74 73
3 138 142 74
3 142 75 74
3 75 122 73
3 76 78 77
3 78 144 79
3 82 145 146
3 146 147 148
3 148 149 150
3 150 151 152
3 152 153 154
3 154 155 156
3 156 157 158
3 158 159 80
3 80 160 161
3 161 162 163
3 163 164 165
3 165 166 81
3 81 167 168
3 168 169 170
3 170 171 172
3 172 173 82
3 82 146 152
3 146 148 152
3 148 150 152
3 152 154 80
3 154 156 80
3 156 158 80
3 80 161 81
3 161 163 81
3 163 165 81
3 81 168 82
3 168 170 82
3 170 172 82
3 82 152 80
3 83 174 84
3 85 84 86
3 87 86 88
3 89 88 90
3 92 99 93
3 95 114 96
3 98 102 99
3 2 175 176
3 2 176 177
3 178 0 179
3 0 2 101
3 179 0 180
3 180 0 181
3 2 177 182
3 2 182 100
3 181 0 183
3 183 0 101
3 97 96 102
