ply
format ascii 1.0
comment Created in Blender version 4.2.2 LTS
element vertex 130
property float x
property float y
property float z
property float nx
property float ny
property float nz
property uchar red
property uchar green
property uchar blue
property uchar alpha
property float s
property float t
element face 124
property list uchar uint vertex_indices
end_header
0 -0.024999997 0.060000002 0.01733716 -0.84901714 0.5280807 107 16 190 255 1 1
0.011705419 0.025000004 0.05884711 0.04837067 0.9548428 0.29314762 107 16 190 255 0.96875 0.5
0 0.025000004 0.059999995 -0.025579568 0.62632793 0.77913994 107 16 190 255 1 0.5
0.011705419 -0.024999997 0.05884712 0.17709069 -0.62632775 0.7591787 109 17 190 255 0.96875 1
0.022961007 0.025000004 0.055432767 0.27453148 0.6263279 0.7296203 107 16 190 255 0.9375 0.5
0.022961007 -0.024999997 0.055432774 0.056548744 -0.9905722 0.124774724 107 16 190 255 0.9375 1
0.033334214 0.025000004 0.04988817 0.15687142 0.9548428 0.25232244 107 16 190 255 0.90625 0.5
0.033334214 -0.024999997 0.04988818 0.45413557 -0.6263278 0.63362 107 16 190 255 0.90625 1
0.042426404 0.025000004 0.0424264 0.53284764 0.62632793 0.5690226 107 16 190 255 0.875 0.5
0.042426404 -0.024999997 0.042426407 0.21687013 -0.9548428 0.20308293 107 16 190 255 0.875 1
0.049888175 0.025000002 0.03333421 0.31147146 0.9236606 0.22324146 107 16 190 255 0.84375 0.5
0.049888175 -0.024999999 0.033334218 0.66204244 -0.6263279 0.4115984 107 16 190 255 0.84375 1
0.05543277 0.025000002 0.022961006 0.71004254 0.6263279 0.32179624 107 16 190 255 0.8125 0.5
0.05543277 -0.024999999 0.02296101 0.226084 -0.9703862 0.08506785 107 16 190 255 0.8125 1
0.058847114 0.025 0.011705417 0.1704847 0.98455757 0.039768234 107 16 190 255 0.78125 0.5
0.058847114 -0.025 0.011705421 0.7691593 -0.6263278 0.12691474 107 16 190 255 0.78125 1
0.06 0.025 -1.8874475e-09 0.77913994 0.6263278 0.02557952 107 16 190 255 0.75 0.5
0.06 -0.025 1.8874475e-09 0.52808064 -0.8490172 -0.017337097 107 16 190 255 0.75 1
0.058847114 0.025 -0.011705421 0.29314768 0.9548428 -0.04837074 107 16 190 255 0.71875 0.5
0.058847114 -0.025 -0.011705417 0.51455146 -0.8490172 -0.12002738 107 16 190 255 0.71875 1
0.05543277 0.024999999 -0.02296101 0.72962034 0.6263278 -0.27453154 107 16 190 255 0.6875 0.5
0.05543277 -0.025000002 -0.022961006 0.18500462 -0.9791544 -0.083845325 107 16 190 255 0.6875 1
0.049888175 0.024999999 -0.033334218 0.25232252 0.9548428 -0.1568715 107 16 190 255 0.65625 0.5
0.049888175 -0.025000002 -0.03333421 0.63361996 -0.62632793 -0.45413554 107 16 190 255 0.65625 1
0.042426404 0.024999997 -0.042426407 0.5690226 0.6263278 -0.53284764 107 16 190 255 0.625 0.5
0.042426404 -0.025000004 -0.0424264 0.20308286 -0.9548428 -0.21687005 107 16 190 255 0.625 1
0.033334214 0.024999997 -0.04988818 0.2232415 0.92366046 -0.3114715 107 16 190 255 0.59375 0.5
0.033334214 -0.025000004 -0.04988817 0.41159838 -0.62632793 -0.6620424 107 16 190 255 0.59375 1
0.022961007 0.024999997 -0.055432774 0.32179633 0.6263278 -0.71004266 107 16 190 255 0.5625 0.5
0.022961007 -0.025000004 -0.055432767 0.08506778 -0.9703862 -0.22608392 107 16 190 255 0.5625 1
0.011705419 0.024999997 -0.05884712 0.034922916 0.9881126 -0.14971282 107 16 190 255 0.53125 0.5
0.011705419 -0.025000004 -0.05884711 0.1269147 -0.62632793 -0.7691593 107 16 190 255 0.53125 1
0 0.024999997 -0.060000002 0.025579566 0.62632775 -0.77914 107 16 190 255 0.5 0.5
0 -0.025000004 -0.059999995 -0.01733716 -0.8490173 -0.5280805 107 16 190 255 0.5 1
-0.011705419 0.024999997 -0.05884712 -0.048370667 0.9548427 -0.29314774 107 16 190 255 0.46875 0.5
-0.011705419 -0.025000004 -0.05884711 -0.12002744 -0.8490173 -0.5145514 107 16 190 255 0.46875 1
-0.022961007 0.024999997 -0.055432774 -0.27453148 0.62632775 -0.7296204 107 16 190 255 0.4375 0.5
-0.022961007 -0.025000004 -0.055432767 -0.072264075 -0.98455757 -0.1594504 107 16 190 255 0.4375 1
-0.033334214 0.024999997 -0.04988818 -0.15687141 0.9548427 -0.25232255 107 16 190 255 0.40625 0.5
-0.033334214 -0.025000004 -0.04988817 -0.45413557 -0.62632793 -0.63361996 107 16 190 255 0.40625 1
-0.042426404 0.024999997 -0.042426407 -0.53284764 0.6263278 -0.56902266 107 16 190 255 0.375 0.5
-0.042426404 -0.025000004 -0.0424264 -0.21687013 -0.9548428 -0.20308279 107 16 190 255 0.375 1
-0.049888175 0.024999999 -0.033334218 -0.31147146 0.9236606 -0.22324158 107 16 190 255 0.34375 0.5
-0.049888175 -0.025000002 -0.03333421 -0.6620424 -0.62632793 -0.4115983 107 16 190 255 0.34375 1
-0.05543277 0.024999999 -0.02296101 -0.7100426 0.6263278 -0.32179636 107 16 190 255 0.3125 0.5
-0.05543277 -0.025000002 -0.022961006 -0.35866284 -0.9236606 -0.13495265 107 16 190 255 0.3125 1
-0.058847114 0.025 -0.011705421 -0.1704847 0.98455757 -0.039768383 107 16 190 255 0.28125 0.5
-0.058847114 -0.025 -0.011705417 -0.521316 -0.8490172 -0.08601939 107 16 190 255 0.28125 1
-0.06 0.025 -1.8874475e-09 -0.77913994 0.6263278 -0.025579613 107 16 190 255 0.25 0.5
-0.06 -0.025 1.8874475e-09 -0.52808064 -0.8490172 0.017337225 107 16 190 255 0.25 1
-0.058847114 0.025 0.011705417 -0.29314768 0.9548428 0.0483706 107 16 190 255 0.21875 0.5
-0.058847114 -0.025 0.011705421 -0.75917864 -0.6263278 0.17709073 107 16 190 255 0.21875 1
-0.05543277 0.025000002 0.022961006 -0.72962034 0.6263278 0.27453145 107 16 190 255 0.1875 0.5
-0.05543277 -0.024999999 0.02296101 -0.1400229 -0.9881125 0.06345945 107 16 190 255 0.1875 1
-0.049888175 0.025000002 0.03333421 -0.25232252 0.9548428 0.15687136 107 16 190 255 0.15625 0.5
-0.049888175 -0.024999999 0.033334218 -0.63361996 -0.6263278 0.45413563 107 16 190 255 0.15625 1
-0.042426404 0.025000004 0.0424264 -0.5690226 0.62632793 0.5328476 107 16 190 255 0.125 0.5
-0.042426404 -0.024999997 0.042426407 -0.20308286 -0.9548428 0.21687019 107 16 190 255 0.125 1
-0.033334214 0.025000004 0.04988817 -0.22324152 0.9236606 0.3114714 107 16 190 255 0.09375 0.5
-0.033334214 -0.024999997 0.04988818 -0.41159835 -0.6263278 0.66204244 107 16 190 255 0.09375 1
-0.022961007 0.025000004 0.055432767 -0.32179633 0.62632793 0.7100426 107 16 190 255 0.0625 0.5
-0.022961007 -0.025000004 -0.055432767 -0.072264075 -0.98455757 -0.1594504 107 16 190 255 0.15815598 0.028268918
0.05543277 -0.025000002 -0.022961006 0.18500462 -0.9791544 -0.083845325 107 16 190 255 0.47173107 0.15815598
0.022961007 -0.024999997 0.055432774 0.056548744 -0.9905722 0.124774724 107 16 190 255 0.34184402 0.47173107
-0.022961007 -0.024999997 0.055432774 -0.13495271 -0.9236606 0.3586629 107 16 190 255 0.0625 1
-0.011705419 0.025000004 0.05884711 -0.034922916 0.9881126 0.14971267 107 16 190 255 0.03125 0.5
-0.011705419 -0.024999997 0.05884712 -0.08601946 -0.84901714 0.52131605 107 16 190 255 0.03125 1
0 0.025000004 0.059999995 -0.025579568 0.62632793 0.77913994 107 16 190 255 0 0.5
0.011705419 0.024999997 -0.05884712 0.034922916 0.9881126 -0.14971282 107 16 190 255 0.79682165 0.014611542
-0.058847114 0.025 -0.011705421 -0.1704847 0.98455757 -0.039768383 107 16 190 255 0.51461154 0.20317832
-0.011705419 0.025000004 0.05884711 -0.034922916 0.9881126 0.14971267 107 16 190 255 0.70317835 0.48538846
0.011705419 -0.024999997 0.05884712 0.17709069 -0.62632775 0.7591787 109 17 190 255 0.29682168 0.48538846
0 -0.024999997 0.060000002 0.01733716 -0.84901714 0.5280807 107 16 190 255 0.25 0.49
-0.011705419 -0.024999997 0.05884712 -0.08601946 -0.84901714 0.52131605 107 16 190 255 0.20317832 0.48538846
-0.022961007 -0.024999997 0.055432774 -0.13495271 -0.9236606 0.3586629 107 16 190 255 0.15815598 0.47173107
-0.033334214 -0.024999997 0.04988818 -0.41159835 -0.6263278 0.66204244 107 16 190 255 0.11666314 0.4495527
-0.042426404 -0.024999997 0.042426407 -0.20308286 -0.9548428 0.21687019 107 16 190 255 0.080294386 0.41970563
-0.049888175 -0.024999999 0.033334218 -0.63361996 -0.6263278 0.45413563 107 16 190 255 0.0504473 0.38333684
-0.05543277 -0.024999999 0.02296101 -0.1400229 -0.9881125 0.06345945 107 16 190 255 0.028268918 0.34184402
-0.058847114 -0.025 0.011705421 -0.75917864 -0.6263278 0.17709073 107 16 190 255 0.014611542 0.29682168
-0.06 -0.025 1.8874475e-09 -0.52808064 -0.8490172 0.017337225 107 16 190 255 0.010000005 0.25
-0.058847114 -0.025 -0.011705417 -0.521316 -0.8490172 -0.08601939 107 16 190 255 0.014611542 0.20317832
-0.05543277 -0.025000002 -0.022961006 -0.35866284 -0.9236606 -0.13495265 107 16 190 255 0.028268918 0.15815598
-0.049888175 -0.025000002 -0.03333421 -0.6620424 -0.62632793 -0.4115983 107 16 190 255 0.0504473 0.11666314
-0.042426404 -0.025000004 -0.0424264 -0.21687013 -0.9548428 -0.20308279 107 16 190 255 0.080294386 0.080294386
-0.033334214 -0.025000004 -0.04988817 -0.45413557 -0.62632793 -0.63361996 107 16 190 255 0.11666314 0.0504473
-0.011705419 -0.025000004 -0.05884711 -0.12002744 -0.8490173 -0.5145514 107 16 190 255 0.20317832 0.014611542
0.022961007 -0.025000004 -0.055432767 0.08506778 -0.9703862 -0.22608392 107 16 190 255 0.34184402 0.028268918
0 -0.025000004 -0.059999995 -0.01733716 -0.8490173 -0.5280805 107 16 190 255 0.25 0.010000005
0.011705419 -0.025000004 -0.05884711 0.1269147 -0.62632793 -0.7691593 107 16 190 255 0.29682168 0.014611542
0.033334214 -0.025000004 -0.04988817 0.41159838 -0.62632793 -0.6620424 107 16 190 255 0.38333684 0.0504473
0.042426404 -0.025000004 -0.0424264 0.20308286 -0.9548428 -0.21687005 107 16 190 255 0.41970563 0.080294386
0.049888175 -0.025000002 -0.03333421 0.63361996 -0.62632793 -0.45413554 107 16 190 255 0.4495527 0.11666314
0.058847114 -0.025 -0.011705417 0.51455146 -0.8490172 -0.12002738 107 16 190 255 0.48538846 0.20317832
0.05543277 -0.024999999 0.02296101 0.226084 -0.9703862 0.08506785 107 16 190 255 0.47173107 0.34184402
0.06 -0.025 1.8874475e-09 0.52808064 -0.8490172 -0.017337097 107 16 190 255 0.49 0.25
0.058847114 -0.025 0.011705421 0.7691593 -0.6263278 0.12691474 107 16 190 255 0.48538846 0.29682168
0.049888175 -0.024999999 0.033334218 0.66204244 -0.6263279 0.4115984 107 16 190 255 0.4495527 0.38333684
0.042426404 -0.024999997 0.042426407 0.21687013 -0.9548428 0.20308293 107 16 190 255 0.41970563 0.41970563
0.033334214 -0.024999997 0.04988818 0.45413557 -0.6263278 0.63362 107 16 190 255 0.38333684 0.4495527
0 -0.024999997 0.060000002 0.01733716 -0.84901714 0.5280807 107 16 190 255 0 1
0 0.025000004 0.059999995 -0.025579568 0.62632793 0.77913994 107 16 190 255 0.75 0.49
0.011705419 0.025000004 0.05884711 0.04837067 0.9548428 0.29314762 107 16 190 255 0.79682165 0.48538846
0.022961007 0.025000004 0.055432767 0.27453148 0.6263279 0.7296203 107 16 190 255 0.841844 0.47173107
0.033334214 0.025000004 0.04988817 0.15687142 0.9548428 0.25232244 107 16 190 255 0.88333684 0.4495527
0.042426404 0.025000004 0.0424264 0.53284764 0.62632793 0.5690226 107 16 190 255 0.9197056 0.41970563
0.049888175 0.025000002 0.03333421 0.31147146 0.9236606 0.22324146 107 16 190 255 0.9495527 0.38333684
0.05543277 0.025000002 0.022961006 0.71004254 0.6263279 0.32179624 107 16 190 255 0.97173107 0.34184402
0.058847114 0.025 0.011705417 0.1704847 0.98455757 0.039768234 107 16 190 255 0.98538846 0.29682168
0.06 0.025 -1.8874475e-09 0.77913994 0.6263278 0.02557952 107 16 190 255 0.99 0.25
0.058847114 0.025 -0.011705421 0.29314768 0.9548428 -0.04837074 107 16 190 255 0.98538846 0.20317832
0.05543277 0.024999999 -0.02296101 0.72962034 0.6263278 -0.27453154 107 16 190 255 0.97173107 0.15815598
0.049888175 0.024999999 -0.033334218 0.25232252 0.9548428 -0.1568715 107 16 190 255 0.9495527 0.11666314
0.042426404 0.024999997 -0.042426407 0.5690226 0.6263278 -0.53284764 107 16 190 255 0.9197056 0.080294386
0.033334214 0.024999997 -0.04988818 0.2232415 0.92366046 -0.3114715 107 16 190 255 0.88333684 0.0504473
0.022961007 0.024999997 -0.055432774 0.32179633 0.6263278 -0.71004266 107 16 190 255 0.841844 0.028268918
0 0.024999997 -0.060000002 0.025579566 0.62632775 -0.77914 107 16 190 255 0.75 0.010000005
-0.011705419 0.024999997 -0.05884712 -0.048370667 0.9548427 -0.29314774 107 16 190 255 0.70317835 0.014611542
-0.022961007 0.024999997 -0.055432774 -0.27453148 0.62632775 -0.7296204 107 16 190 255 0.658156 0.028268918
-0.033334214 0.024999997 -0.04988818 -0.15687141 0.9548427 -0.25232255 107 16 190 255 0.61666316 0.0504473
-0.042426404 0.024999997 -0.042426407 -0.53284764 0.6263278 -0.56902266 107 16 190 255 0.5802944 0.080294386
-0.049888175 0.024999999 -0.033334218 -0.31147146 0.9236606 -0.22324158 107 16 190 255 0.5504473 0.11666314
-0.05543277 0.024999999 -0.02296101 -0.7100426 0.6263278 -0.32179636 107 16 190 255 0.52826893 0.15815598
-0.06 0.025 -1.8874475e-09 -0.77913994 0.6263278 -0.025579613 107 16 190 255 0.51 0.25
-0.058847114 0.025 0.011705417 -0.29314768 0.9548428 0.0483706 107 16 190 255 0.51461154 0.29682168
-0.05543277 0.025000002 0.022961006 -0.72962034 0.6263278 0.27453145 107 16 190 255 0.52826893 0.34184402
-0.049888175 0.025000002 0.03333421 -0.25232252 0.9548428 0.15687136 107 16 190 255 0.5504473 0.38333684
-0.042426404 0.025000004 0.0424264 -0.5690226 0.62632793 0.5328476 107 16 190 255 0.5802944 0.41970563
-0.033334214 0.025000004 0.04988817 -0.22324152 0.9236606 0.3114714 107 16 190 255 0.61666316 0.4495527
-0.022961007 0.025000004 0.055432767 -0.32179633 0.62632793 0.7100426 107 16 190 255 0.658156 0.47173107
3 0 1 2
3 3 4 1
3 5 6 4
3 7 8 6
3 9 10 8
3 11 12 10
3 13 14 12
3 15 16 14
3 17 18 16
3 19 20 18
3 21 22 20
3 23 24 22
3 25 26 24
3 27 28 26
3 29 30 28
3 31 32 30
3 33 34 32
3 35 36 34
3 37 38 36
3 39 40 38
3 41 42 40
3 43 44 42
3 45 46 44
3 47 48 46
3 49 50 48
3 51 52 50
3 53 54 52
3 55 56 54
3 57 58 56
3 59 60 58
3 61 62 63
3 64 65 60
3 66 67 65
3 68 69 70
3 0 3 1
3 3 5 4
3 5 7 6
3 7 9 8
3 9 11 10
3 11 13 12
3 13 15 14
3 15 17 16
3 17 19 18
3 19 21 20
3 21 23 22
3 23 25 24
3 25 27 26
3 27 29 28
3 29 31 30
3 31 33 32
3 33 35 34
3 35 37 36
3 37 39 38
3 39 41 40
3 41 43 42
3 43 45 44
3 45 47 46
3 47 49 48
3 49 51 50
3 51 53 52
3 53 55 54
3 55 57 56
3 57 59 58
3 59 64 60
3 63 71 72
3 72 73 63
3 73 74 63
3 74 75 76
3 76 77 78
3 78 79 80
3 80 81 78
3 81 82 78
3 82 83 84
3 84 85 61
3 61 86 87
3 86 88 87
3 88 89 87
3 87 90 91
3 91 92 62
3 62 93 94
3 93 95 94
3 95 96 94
3 94 97 98
3 98 99 63
3 74 76 63
3 76 78 63
3 82 84 78
3 84 61 78
3 87 91 61
3 91 62 61
3 94 98 62
3 98 63 62
3 63 78 61
3 64 66 65
3 66 100 67
3 70 101 102
3 102 103 104
3 104 105 106
3 106 107 108
3 108 109 110
3 110 111 112
3 112 113 114
3 114 115 68
3 68 116 117
3 117 118 119
3 119 120 121
3 121 122 69
3 69 123 124
3 124 125 126
3 126 127 128
3 128 129 70
3 70 102 108
3 102 104 108
3 104 106 108
3 108 110 68
3 110 112 68
3 112 114 68
3 68 117 69
3 117 119 69
3 119 121 69
3 69 124 70
3 124 126 70
3 126 128 70
3 70 108 68
