ply
format ascii 1.0
comment Created in Blender version 4.2.2 LTS
element vertex 184
property float x
property float y
property float z
property float nx
property float ny
property float nz
property uchar red
property uchar green
property uchar blue
property uchar alpha
property float s
property float t
element face 176
property list uchar uint vertex_indices
end_header
0.039999995 -0.040000003 0.5 0.66668016 -0.33334062 0.66664946 190 20 22 255 0.625 0.25
-0.039999995 0.040000003 0.5 -0.6666802 0.3333405 0.6666494 190 21 22 255 0.375 0.5
-0.040000003 -0.039999995 0.5 -0.6666656 -0.33333763 0.66666555 190 20 22 255 0.375 0.25
0.040000003 0.039999995 0.5 0.6666656 0.33333752 0.6666656 190 20 22 255 0.625 0.5
0.009754514 0.04 0.049039263 0.1721046 0.4709365 0.865216 190 20 22 255 0.5304828 0.7254803
-1.7484555e-09 0.04 0.05 2.225758e-06 0.4709255 0.88217294 190 20 22 255 0.5 0.725
-0.040000003 -0.03999999 0.029695803 -0.86608654 -0.05708521 0.4966239 190 20 22 255 0.125 0.73515207
-0.040000003 -0.039999995 0.5 -0.6666656 -0.33333763 0.66666555 190 20 22 255 0.125 0.5
0.039999995 -0.040000003 0.5 0.66668016 -0.33334062 0.66664946 190 20 22 255 0.875 0.5
0.040000003 0.03999999 0.029695803 0.86608654 0.05708521 0.4966239 190 20 22 255 0.625 0.73515207
1.7484555e-09 -0.04 0.05 2.268195e-06 -0.4709255 0.88217306 190 20 22 255 1 0.65
-0.0097545115 -0.1 0.049039263 -0.17649503 -0.4261095 0.88728803 190 20 22 255 0.96875 0.5
4.371139e-09 -0.1 0.05 -2.2817485e-06 -0.42612928 0.9046623 190 20 22 255 1 0.5
-0.009754514 -0.04 0.049039263 -0.17210022 -0.47093657 0.865217 190 20 22 255 0.96875 0.65000004
-0.01913417 -0.1 0.046193976 -0.34620142 -0.4261294 0.835798 190 20 22 255 0.9375 0.5
-0.019134171 -0.04 0.046193976 -0.33758885 -0.47093442 0.81501806 190 20 22 255 0.9375 0.65000004
-0.027778508 -0.1 0.04157348 -0.5026105 -0.4261111 0.7522047 190 20 22 255 0.90625 0.5
-0.02777851 -0.04 0.04157348 -0.49010694 -0.4709258 0.73350114 190 20 22 255 0.90625 0.65000004
-0.035355337 -0.1 0.03535534 -0.6396913 -0.42613578 0.6396901 190 20 22 255 0.875 0.5
-0.040000003 -0.03999999 0.029695803 -0.86608654 -0.05708521 0.4966239 190 20 22 255 0.8516576 0.65
-0.039999995 0.040000003 0.029695807 -0.8660868 0.057085343 0.4966236 190 20 22 255 0.8516576 0.84999996
-0.041573483 0.1 0.027778512 -0.7522046 0.42611542 0.502607 190 20 22 255 0.84375 1
-0.046193972 -0.1 0.019134173 -0.83580357 -0.4261182 0.34620178 190 20 22 255 0.8125 0.5
-0.041573476 -0.1 0.027778512 -0.7522058 -0.4261108 0.50260925 190 20 22 255 0.84375 0.5
-0.04619398 0.1 0.019134173 -0.83581233 0.4260991 0.34620404 190 20 22 255 0.8125 1
-0.04903926 -0.1 0.009754516 -0.8872951 -0.42609483 0.1764946 190 20 22 255 0.78125 0.5
-0.049039267 0.1 0.009754516 -0.88728464 0.42611814 0.17649136 190 20 22 255 0.78125 1
-0.049999997 -0.1 0 -0.90466756 -0.42611808 5.448965e-07 190 20 22 255 0.75 0.5
-0.050000004 0.1 0 -0.9046692 0.4261146 -5.432793e-07 190 20 22 255 0.75 1
-0.04903926 -0.1 -0.009754516 -0.88729376 -0.42609847 -0.17649323 190 20 22 255 0.71875 0.5
-0.049039267 0.1 -0.009754516 -0.8872873 0.42611203 -0.176493 190 20 22 255 0.71875 1
-0.046193972 -0.1 -0.019134173 -0.83580405 -0.4261182 -0.34620064 190 20 22 255 0.6875 0.5
-0.04619398 0.1 -0.019134173 -0.83581257 0.42609742 -0.3462056 190 20 22 255 0.6875 1
-0.041573476 -0.1 -0.027778512 -0.7522111 -0.42609996 -0.5026104 190 20 22 255 0.65625 0.5
-0.041573483 0.1 -0.027778512 -0.75220317 0.42611808 -0.5026069 190 20 22 255 0.65625 1
-0.035355337 -0.1 -0.03535534 -0.6396969 -0.42611808 -0.6396963 190 20 22 255 0.625 0.5
-0.035355344 0.1 -0.03535534 -0.63970274 0.42609853 -0.6397034 190 21 22 255 0.625 1
-0.027778508 -0.1 -0.04157348 -0.50260866 -0.426111 -0.7522061 190 20 22 255 0.59375 0.5
-0.027778516 0.1 -0.04157348 -0.502606 0.42611808 -0.75220376 190 21 22 255 0.59375 1
-0.01913417 -0.1 -0.046193976 -0.34620172 -0.4261182 -0.83580357 190 20 22 255 0.5625 0.5
-0.019134177 0.1 -0.046193976 -0.34620422 0.42609912 -0.8358123 190 21 22 255 0.5625 1
-0.0097545115 -0.1 -0.049039263 -0.17649366 -0.42610532 -0.88729036 190 20 22 255 0.53125 0.5
-0.009754521 0.1 -0.049039263 -0.17649136 0.4261182 -0.88728464 190 21 22 255 0.53125 1
4.371139e-09 -0.1 -0.05 -5.262703e-07 -0.4261181 -0.90466756 190 20 22 255 0.5 0.5
-4.371139e-09 0.1 -0.05 5.2465424e-07 0.42611548 -0.9046688 190 21 22 255 0.5 1
0.009754521 -0.1 -0.049039263 0.1764933 -0.4260984 -0.8872938 190 20 22 255 0.46875 0.5
0.0097545115 0.1 -0.049039263 0.17649305 0.42611212 -0.88728726 190 22 22 255 0.46875 1
0.019134177 -0.1 -0.046193976 0.3462007 -0.42611814 -0.83580405 190 20 22 255 0.4375 0.5
0.01913417 0.1 -0.046193976 0.3462036 0.426108 -0.83580804 192 23 24 255 0.4375 1
0.027778516 -0.1 -0.04157348 0.5026111 -0.42609996 -0.75221074 190 20 22 255 0.40625 0.5
0.027778508 0.1 -0.04157348 0.50260675 0.42611814 -0.7522033 192 24 25 255 0.40625 1
0.035355344 -0.1 -0.03535534 0.63969624 -0.42611808 -0.63969696 190 21 22 255 0.375 0.5
0.035355337 0.1 -0.03535534 0.6397034 0.4260986 -0.6397028 193 29 30 255 0.375 1
0.041573483 -0.1 -0.027778512 0.7522056 -0.42611125 -0.5026091 192 22 23 255 0.34375 0.5
0.041573476 0.1 -0.027778512 0.75220394 0.42611814 -0.5026058 193 32 33 255 0.34375 1
0.04619398 -0.1 -0.019134173 0.83580357 -0.42611814 -0.34620178 192 24 25 255 0.3125 0.5
0.046193972 0.1 -0.019134173 0.8358107 0.42610282 -0.34620345 193 34 36 255 0.3125 1
0.049039267 -0.1 -0.009754516 0.88729525 -0.4260948 -0.17649463 192 22 23 255 0.28125 0.5
0.04903926 0.1 -0.009754516 0.8872875 0.42611215 -0.17649193 192 27 28 255 0.28125 1
0.050000004 -0.1 0 0.90466756 -0.42611802 -5.448965e-07 190 21 22 255 0.25 0.5
0.049999997 0.1 0 0.9046688 0.42611545 5.4328035e-07 190 22 23 255 0.25 1
0.049039267 -0.1 0.009754516 0.88729376 -0.4260984 0.17649323 190 20 22 255 0.21875 0.5
0.04903926 0.1 0.009754516 0.8872844 0.4261182 0.17649247 190 20 22 255 0.21875 1
0.04619398 -0.1 0.019134173 0.83580405 -0.42611814 0.34620064 190 20 22 255 0.1875 0.5
0.046193972 0.1 0.019134173 0.8358141 0.42609385 0.34620625 190 20 22 255 0.1875 1
0.041573483 -0.1 0.027778512 0.7522118 -0.42609736 0.5026116 190 20 22 255 0.15625 0.5
0.040000003 0.03999999 0.029695803 0.86608654 0.05708521 0.4966239 190 20 22 255 0.14834228 0.84999996
0.039999995 -0.040000003 0.029695813 0.8660873 -0.057085328 0.49662253 190 20 22 255 0.14834227 0.65000004
0.03535534 -0.04 0.03535534 0.62378937 -0.4709311 0.6237874 190 20 22 255 0.125 0.65000004
0.027778516 -0.1 0.04157348 0.5026034 -0.4261221 0.7522033 190 20 22 255 0.09375 0.5
0.035355344 -0.1 0.03535534 0.6396925 -0.4261268 0.63969487 190 20 22 255 0.125 0.5
0.027778514 -0.04 0.04157348 0.49011087 -0.4709258 0.7334986 190 20 22 255 0.09375 0.65000004
0.019134177 -0.1 0.046193976 0.3461971 -0.4261293 0.8357998 190 20 22 255 0.0625 0.5
0.01913417 0.1 -0.046193976 0.3462036 0.426108 -0.83580804 192 23 24 255 0.15815598 0.028268918
-0.04619398 0.1 -0.019134173 -0.83581257 0.42609742 -0.3462056 190 20 22 255 0.47173107 0.15815598
-0.019134177 0.1 0.046193976 -0.34620392 0.42611545 0.83580405 190 20 22 255 0.34184402 0.47173107
0.019134175 -0.04 0.046193976 0.3375931 -0.47093454 0.8150164 190 20 22 255 0.0625 0.65000004
0.009754521 -0.1 0.049039263 0.17648983 -0.42611644 0.8872858 190 20 22 255 0.03125 0.5
0.009754518 -0.04 0.049039263 0.17210464 -0.47093657 0.86521596 190 20 22 255 0.03125 0.65000004
4.371139e-09 -0.1 0.05 -2.2817485e-06 -0.42612928 0.9046623 190 20 22 255 0 0.5
-0.0097545115 -0.1 -0.049039263 -0.17649366 -0.42610532 -0.88729036 190 20 22 255 0.79682165 0.014611542
0.049039267 -0.1 -0.009754516 0.88729525 -0.4260948 -0.17649463 192 22 23 255 0.51461154 0.20317832
0.009754521 -0.1 0.049039263 0.17648983 -0.42611644 0.8872858 190 20 22 255 0.70317835 0.48538846
-1.7484555e-09 0.04 0.05 2.225758e-06 0.4709255 0.88217294 190 20 22 255 1 0.84999996
-0.009754521 0.1 0.049039263 -0.17649312 0.4261293 0.88727903 190 20 22 255 0.96875 1
-0.009754518 0.04 0.049039263 -0.17210025 0.47093657 0.865217 190 20 22 255 0.96875 0.85
-0.019134177 0.1 0.046193976 -0.34620392 0.42611545 0.83580405 190 20 22 255 0.9375 1
-0.019134175 0.04 0.046193976 -0.33758894 0.47093454 0.815018 190 20 22 255 0.9375 0.85
-0.027778516 0.1 0.04157348 -0.5026055 0.42612928 0.7521979 190 20 22 255 0.90625 1
-0.027778514 0.04 0.04157348 -0.490107 0.4709258 0.73350126 190 20 22 255 0.90625 0.85
-0.035355344 0.1 0.03535534 -0.63969773 0.4261161 0.63969666 190 20 22 255 0.875 1
-0.03535534 0.04 0.03535534 -0.6237914 0.47092175 0.6237924 190 20 22 255 0.875 0.85
0.009754514 0.04 0.049039263 0.1721046 0.4709365 0.865216 190 20 22 255 0.03125 0.85
-4.371139e-09 0.1 0.05 -2.3190048e-06 0.42612663 0.90466356 190 20 22 255 0 1
-1.7484555e-09 0.04 0.05 2.225758e-06 0.4709255 0.88217294 190 20 22 255 0 0.84999996
0.03535534 0.04 0.03535534 0.62379056 0.47093064 0.62378657 190 20 22 255 0.125 0.85
0.027778508 0.1 0.04157348 0.5026015 0.42612928 0.7522005 190 20 22 255 0.09375 1
0.02777851 0.04 0.04157348 0.49011087 0.47092587 0.7334986 190 20 22 255 0.09375 0.85
0.019134171 0.04 0.046193976 0.337593 0.47093445 0.8150163 190 20 22 255 0.0625 0.85
0.0097545115 0.1 0.049039263 0.17648917 0.4261232 0.8872826 190 20 22 255 0.03125 1
-0.009754514 -0.04 0.049039263 -0.17210022 -0.47093657 0.865217 190 20 22 255 0.46951714 0.02451963
1.7484555e-09 -0.04 0.05 2.268195e-06 -0.4709255 0.88217306 190 20 22 255 0.49999997 0.024999999
0.01913417 0.1 0.046193976 0.3461998 0.42611393 0.8358066 190 20 22 255 0.0625 1
-0.039999995 0.040000003 0.029695807 -0.8660868 0.057085343 0.4966236 190 20 22 255 0.37499997 0.73515207
-0.03535534 0.04 0.03535534 -0.6237914 0.47092175 0.6237924 190 20 22 255 0.38951457 0.73232234
-0.027778514 0.04 0.04157348 -0.490107 0.4709258 0.73350126 190 20 22 255 0.4131921 0.7292131
0.03535534 0.04 0.03535534 0.62379056 0.47093064 0.62378657 190 20 22 255 0.6104854 0.73232234
0.02777851 0.04 0.04157348 0.49011087 0.47092587 0.7334986 190 20 22 255 0.58680785 0.7292132
-0.019134175 0.04 0.046193976 -0.33758894 0.47093454 0.815018 190 20 22 255 0.44020566 0.72690296
-0.009754518 0.04 0.049039263 -0.17210025 0.47093657 0.865217 190 20 22 255 0.46951708 0.72548026
0.019134171 0.04 0.046193976 0.337593 0.47093445 0.8150163 190 20 22 255 0.55979425 0.72690296
0.039999995 -0.040000003 0.029695813 0.8660873 -0.057085328 0.49662253 190 20 22 255 0.875 0.73515207
-0.03535534 -0.04 0.03535534 -0.62379247 -0.4709212 0.6237918 190 20 22 255 0.875 0.65000004
0.041573476 0.1 0.027778512 0.75220335 0.4261176 0.50260705 190 20 22 255 0.15625 1
0.035355337 0.1 0.03535534 0.639699 0.42610717 0.6397013 190 20 22 255 0.125 1
-0.009754521 0.1 0.049039263 -0.17649312 0.4261293 0.88727903 190 20 22 255 0.29682168 0.48538846
-4.371139e-09 0.1 0.05 -2.3190048e-06 0.42612663 0.90466356 190 20 22 255 0.25 0.49
0.0097545115 0.1 0.049039263 0.17648917 0.4261232 0.8872826 190 20 22 255 0.20317832 0.48538846
0.01913417 0.1 0.046193976 0.3461998 0.42611393 0.8358066 190 20 22 255 0.15815598 0.47173107
0.027778508 0.1 0.04157348 0.5026015 0.42612928 0.7522005 190 20 22 255 0.11666314 0.4495527
0.035355337 0.1 0.03535534 0.639699 0.42610717 0.6397013 190 20 22 255 0.080294386 0.41970563
0.041573476 0.1 0.027778512 0.75220335 0.4261176 0.50260705 190 20 22 255 0.0504473 0.38333684
0.046193972 0.1 0.019134173 0.8358141 0.42609385 0.34620625 190 20 22 255 0.028268918 0.34184402
0.04903926 0.1 0.009754516 0.8872844 0.4261182 0.17649247 190 20 22 255 0.014611542 0.29682168
0.049999997 0.1 0 0.9046688 0.42611545 5.4328035e-07 190 22 23 255 0.010000005 0.25
0.04903926 0.1 -0.009754516 0.8872875 0.42611215 -0.17649193 192 27 28 255 0.014611542 0.20317832
0.046193972 0.1 -0.019134173 0.8358107 0.42610282 -0.34620345 193 34 36 255 0.028268918 0.15815598
0.041573476 0.1 -0.027778512 0.75220394 0.42611814 -0.5026058 193 32 33 255 0.0504473 0.11666314
0.035355337 0.1 -0.03535534 0.6397034 0.4260986 -0.6397028 193 29 30 255 0.080294386 0.080294386
0.027778508 0.1 -0.04157348 0.50260675 0.42611814 -0.7522033 192 24 25 255 0.11666314 0.0504473
0.0097545115 0.1 -0.049039263 0.17649305 0.42611212 -0.88728726 190 22 22 255 0.20317832 0.014611542
-0.019134177 0.1 -0.046193976 -0.34620422 0.42609912 -0.8358123 190 21 22 255 0.34184402 0.028268918
-4.371139e-09 0.1 -0.05 5.2465424e-07 0.42611548 -0.9046688 190 21 22 255 0.25 0.010000005
-0.009754521 0.1 -0.049039263 -0.17649136 0.4261182 -0.88728464 190 21 22 255 0.29682168 0.014611542
-0.027778516 0.1 -0.04157348 -0.502606 0.42611808 -0.75220376 190 21 22 255 0.38333684 0.0504473
-0.035355344 0.1 -0.03535534 -0.63970274 0.42609853 -0.6397034 190 21 22 255 0.41970563 0.080294386
-0.041573483 0.1 -0.027778512 -0.75220317 0.42611808 -0.5026069 190 20 22 255 0.4495527 0.11666314
-0.049039267 0.1 -0.009754516 -0.8872873 0.42611203 -0.176493 190 20 22 255 0.48538846 0.20317832
-0.04619398 0.1 0.019134173 -0.83581233 0.4260991 0.34620404 190 20 22 255 0.47173107 0.34184402
-0.050000004 0.1 0 -0.9046692 0.4261146 -5.432793e-07 190 20 22 255 0.49 0.25
-0.049039267 0.1 0.009754516 -0.88728464 0.42611814 0.17649136 190 20 22 255 0.48538846 0.29682168
-0.041573483 0.1 0.027778512 -0.7522046 0.42611542 0.502607 190 20 22 255 0.4495527 0.38333684
-0.035355344 0.1 0.03535534 -0.63969773 0.4261161 0.63969666 190 20 22 255 0.41970563 0.41970563
-0.027778516 0.1 0.04157348 -0.5026055 0.42612928 0.7521979 190 20 22 255 0.38333684 0.4495527
1.7484555e-09 -0.04 0.05 2.268195e-06 -0.4709255 0.88217306 190 20 22 255 0 0.65
4.371139e-09 -0.1 0.05 -2.2817485e-06 -0.42612928 0.9046623 190 20 22 255 0.75 0.49
-0.0097545115 -0.1 0.049039263 -0.17649503 -0.4261095 0.88728803 190 20 22 255 0.79682165 0.48538846
-0.01913417 -0.1 0.046193976 -0.34620142 -0.4261294 0.835798 190 20 22 255 0.841844 0.47173107
-0.027778508 -0.1 0.04157348 -0.5026105 -0.4261111 0.7522047 190 20 22 255 0.88333684 0.4495527
-0.035355337 -0.1 0.03535534 -0.6396913 -0.42613578 0.6396901 190 20 22 255 0.9197056 0.41970563
-0.041573476 -0.1 0.027778512 -0.7522058 -0.4261108 0.50260925 190 20 22 255 0.9495527 0.38333684
-0.046193972 -0.1 0.019134173 -0.83580357 -0.4261182 0.34620178 190 20 22 255 0.97173107 0.34184402
-0.04903926 -0.1 0.009754516 -0.8872951 -0.42609483 0.1764946 190 20 22 255 0.98538846 0.29682168
-0.049999997 -0.1 0 -0.90466756 -0.42611808 5.448965e-07 190 20 22 255 0.99 0.25
-0.04903926 -0.1 -0.009754516 -0.88729376 -0.42609847 -0.17649323 190 20 22 255 0.98538846 0.20317832
-0.046193972 -0.1 -0.019134173 -0.83580405 -0.4261182 -0.34620064 190 20 22 255 0.97173107 0.15815598
-0.041573476 -0.1 -0.027778512 -0.7522111 -0.42609996 -0.5026104 190 20 22 255 0.9495527 0.11666314
-0.035355337 -0.1 -0.03535534 -0.6396969 -0.42611808 -0.6396963 190 20 22 255 0.9197056 0.080294386
-0.027778508 -0.1 -0.04157348 -0.50260866 -0.426111 -0.7522061 190 20 22 255 0.88333684 0.0504473
-0.01913417 -0.1 -0.046193976 -0.34620172 -0.4261182 -0.83580357 190 20 22 255 0.841844 0.028268918
4.371139e-09 -0.1 -0.05 -5.262703e-07 -0.4261181 -0.90466756 190 20 22 255 0.75 0.010000005
0.009754521 -0.1 -0.049039263 0.1764933 -0.4260984 -0.8872938 190 20 22 255 0.70317835 0.014611542
0.019134177 -0.1 -0.046193976 0.3462007 -0.42611814 -0.83580405 190 20 22 255 0.658156 0.028268918
0.027778516 -0.1 -0.04157348 0.5026111 -0.42609996 -0.75221074 190 20 22 255 0.61666316 0.0504473
0.035355344 -0.1 -0.03535534 0.63969624 -0.42611808 -0.63969696 190 21 22 255 0.5802944 0.080294386
0.041573483 -0.1 -0.027778512 0.7522056 -0.42611125 -0.5026091 192 22 23 255 0.5504473 0.11666314
0.04619398 -0.1 -0.019134173 0.83580357 -0.42611814 -0.34620178 192 24 25 255 0.52826893 0.15815598
0.050000004 -0.1 0 0.90466756 -0.42611802 -5.448965e-07 190 21 22 255 0.51 0.25
0.049039267 -0.1 0.009754516 0.88729376 -0.4260984 0.17649323 190 20 22 255 0.51461154 0.29682168
0.04619398 -0.1 0.019134173 0.83580405 -0.42611814 0.34620064 190 20 22 255 0.52826893 0.34184402
0.041573483 -0.1 0.027778512 0.7522118 -0.42609736 0.5026116 190 20 22 255 0.5504473 0.38333684
0.035355344 -0.1 0.03535534 0.6396925 -0.4261268 0.63969487 190 20 22 255 0.5802944 0.41970563
0.027778516 -0.1 0.04157348 0.5026034 -0.4261221 0.7522033 190 20 22 255 0.61666316 0.4495527
0.019134177 -0.1 0.046193976 0.3461971 -0.4261293 0.8357998 190 20 22 255 0.658156 0.47173107
-4.371139e-09 0.1 0.05 -2.3190048e-06 0.42612663 0.90466356 190 20 22 255 1 1
-0.040000003 -0.03999999 0.029695803 -0.86608654 -0.05708521 0.4966239 190 20 22 255 0.375 0.014847904
-0.03535534 -0.04 0.03535534 -0.62379247 -0.4709212 0.6237918 190 20 22 255 0.3895146 0.017677672
-0.02777851 -0.04 0.04157348 -0.49010694 -0.4709258 0.73350114 190 20 22 255 0.41319218 0.020786744
0.039999995 -0.040000003 0.029695813 0.8660873 -0.057085328 0.49662253 190 20 22 255 0.625 0.014847905
0.03535534 -0.04 0.03535534 0.62378937 -0.4709311 0.6237874 190 20 22 255 0.61048543 0.01767767
0.027778514 -0.04 0.04157348 0.49011087 -0.4709258 0.7334986 190 20 22 255 0.58680785 0.020786742
0.019134175 -0.04 0.046193976 0.3375931 -0.47093454 0.8150164 190 20 22 255 0.5597943 0.023096988
-0.019134171 -0.04 0.046193976 -0.33758885 -0.47093442 0.81501806 190 20 22 255 0.4402057 0.023096988
0.009754518 -0.04 0.049039263 0.17210464 -0.47093657 0.86521596 190 20 22 255 0.5304829 0.024519632
3 0 1 2
3 3 4 5
3 1 6 7
3 8 9 3
3 10 11 12
3 13 14 11
3 15 16 14
3 17 18 16
3 19 20 21
3 21 22 23
3 24 25 22
3 26 27 25
3 28 29 27
3 30 31 29
3 32 33 31
3 34 35 33
3 36 37 35
3 38 39 37
3 40 41 39
3 42 43 41
3 44 45 43
3 46 47 45
3 48 49 47
3 50 51 49
3 52 53 51
3 54 55 53
3 56 57 55
3 58 59 57
3 60 61 59
3 62 63 61
3 64 65 63
3 66 67 65
3 68 69 70
3 71 72 69
3 73 74 75
3 76 77 72
3 78 79 77
3 80 81 82
3 83 84 85
3 85 86 87
3 87 88 89
3 89 90 91
3 92 93 94
3 95 96 97
3 98 99 92
3 2 100 101
3 97 102 98
3 0 3 1
3 103 1 104
3 1 3 5
3 104 1 105
3 3 9 106
3 3 106 107
3 105 1 108
3 108 1 109
3 3 107 110
3 3 110 4
3 109 1 5
3 1 103 6
3 8 111 9
3 10 13 11
3 13 15 14
3 15 17 16
3 17 112 18
3 23 18 19
3 18 112 19
3 91 90 20
3 90 21 20
3 23 19 21
3 21 24 22
3 24 26 25
3 26 28 27
3 28 30 29
3 30 32 31
3 32 34 33
3 34 36 35
3 36 38 37
3 38 40 39
3 40 42 41
3 42 44 43
3 44 46 45
3 46 48 47
3 48 50 49
3 50 52 51
3 52 54 53
3 54 56 55
3 56 58 57
3 58 60 59
3 60 62 61
3 62 64 63
3 64 113 65
3 113 114 66
3 114 95 66
3 68 70 67
3 70 65 67
3 113 66 65
3 68 71 69
3 71 76 72
3 75 115 116
3 116 117 75
3 117 118 75
3 118 119 120
3 120 121 122
3 122 123 124
3 124 125 122
3 125 126 122
3 126 127 128
3 128 129 73
3 73 130 131
3 130 132 131
3 132 133 131
3 131 134 135
3 135 136 74
3 74 137 138
3 137 139 138
3 139 140 138
3 138 141 142
3 142 143 75
3 118 120 75
3 120 122 75
3 126 128 122
3 128 73 122
3 131 135 73
3 135 74 73
3 138 142 74
3 142 75 74
3 75 122 73
3 76 78 77
3 78 144 79
3 82 145 146
3 146 147 148
3 148 149 150
3 150 151 152
3 152 153 154
3 154 155 156
3 156 157 158
3 158 159 80
3 80 160 161
3 161 162 163
3 163 164 165
3 165 166 81
3 81 167 168
3 168 169 170
3 170 171 172
3 172 173 82
3 82 146 152
3 146 148 152
3 148 150 152
3 152 154 80
3 154 156 80
3 156 158 80
3 80 161 81
3 161 163 81
3 163 165 81
3 81 168 82
3 168 170 82
3 170 172 82
3 82 152 80
3 83 174 84
3 85 84 86
3 87 86 88
3 89 88 90
3 92 99 93
3 95 114 96
3 98 102 99
3 2 175 176
3 2 176 177
3 178 0 179
3 0 2 101
3 179 0 180
3 180 0 181
3 2 177 182
3 2 182 100
3 181 0 183
3 183 0 101
3 97 96 102
