ply
format ascii 1.0
comment Created in Blender version 4.2.2 LTS
element vertex 45
property float x
property float y
property float z
property float nx
property float ny
property float nz
property uchar red
property uchar green
property uchar blue
property uchar alpha
property float s
property float t
element face 44
property list uchar uint vertex_indices
end_header
-0.06 0.030257324 0.05 -0.65940154 0.06494494 0.7489805 190 190 44 255 0.5630361 0.75
0.06 -0.0029776238 0.05 0.65938944 0.0649442 0.7489912 190 190 44 255 0.4937966 0.5
-0.0029776238 0.06 0.05 0.06494266 0.6593821 0.74899787 190 190 44 255 0.625 0.63120335
-0.0029776238 0.06 -0.05 0.06494437 0.6593804 -0.7489991 190 190 44 255 0.875 0.6312034
-0.030257324 0.06 0.05 -0.06494424 0.65937775 0.74900144 190 190 44 255 0.625 0.6880361
-0.0029776238 0.06 0.05 0.06494266 0.6593821 0.74899787 190 190 44 255 0.625 0.6312034
0.06 -0.0029776238 -0.05 0.65936637 0.06494233 -0.7490116 190 190 44 255 0.4937966 0.25
0.06 -0.06 0.05 0.5391407 -0.5391914 0.64699304 255 255 255 255 0.375 0.5
0.06 -0.06 -0.05 0.5391639 -0.5391639 -0.64699656 190 190 44 255 0.375 0.25
-0.06 -0.06 -0.05 -0.5391761 -0.5391888 -0.64696556 190 190 44 255 0.125 0.75
0.06 -0.06 -0.05 0.5391639 -0.5391639 -0.64699656 190 190 44 255 0.125 0.5
-0.030257324 0.06 -0.05 -0.064945586 0.65939766 -0.7489838 190 190 44 255 0.875 0.6880361
-0.04163935 0.05773597 0.05 -0.26123038 0.6306677 0.7307646 190 190 44 255 0.625 0.7117486
-0.04163935 0.05773597 -0.05 -0.2612238 0.63064754 -0.73078436 190 190 44 255 0.875 0.7117486
-0.051288567 0.051288567 0.05 -0.48267648 0.48267758 0.7307844 190 190 44 255 0.625 0.75
-0.051288567 0.051288567 -0.05 -0.4826925 0.4826914 -0.7307647 190 190 44 255 0.625 1
-0.05773597 0.04163935 0.05 -0.63065875 0.2612286 0.730773 190 190 44 255 0.58674866 0.75
-0.05773597 0.04163935 -0.05 -0.63064814 0.26122218 -0.7307844 190 190 44 255 0.58674866 1
-0.06 -0.06 -0.05 -0.5391761 -0.5391888 -0.64696556 190 190 44 255 0.375 1
-0.06 -0.06 0.05 -0.53917235 -0.53917235 0.6469825 190 190 44 255 0.375 0.75
0.02112287 0.055206113 -0.05 0.2612266 0.6306523 -0.7307793 190 190 44 255 0.875 0.580994
0.02112287 0.055206113 0.05 0.26121873 0.6306423 0.7307907 190 190 44 255 0.625 0.580994
0.04155428 0.04155428 -0.05 0.48267382 0.4826709 -0.7307905 190 190 44 255 0.875 0.5
0.04155428 0.04155428 0.05 0.48268586 0.48268822 0.73077124 190 190 44 255 0.625 0.5
0.055206113 0.02112287 -0.05 0.6306618 0.26122683 -0.73077106 190 190 44 255 0.544006 0.25
0.04155428 0.04155428 -0.05 0.48267382 0.4826709 -0.7307905 190 190 44 255 0.625 0.25
0.055206113 0.02112287 0.05 0.630641 0.26122183 0.7307907 190 190 44 255 0.544006 0.5
-0.06 0.030257324 -0.05 -0.6593931 0.064944595 -0.74898803 190 190 44 255 0.5630361 0
-0.051288567 0.051288567 -0.05 -0.4826925 0.4826914 -0.7307647 190 190 44 255 0.60685116 0.018148817
-0.030257324 0.06 -0.05 -0.064945586 0.65939766 -0.7489838 190 190 44 255 0.625 0.06196391
0.055206113 0.02112287 0.05 0.630641 0.26122183 0.7307907 190 190 44 255 0.54400593 0.5099873
0.04155428 0.04155428 0.05 0.48268586 0.48268822 0.73077124 190 190 44 255 0.58657146 0.53842866
0.02112287 0.055206113 0.05 0.26121873 0.6306423 0.7307907 190 190 44 255 0.6150129 0.58099407
-0.04163935 0.05773597 0.05 -0.26123038 0.6306677 0.7307646 190 190 44 255 0.62028325 0.71174866
-0.051288567 0.051288567 0.05 -0.48267648 0.48267758 0.7307844 190 190 44 255 0.6068512 0.73185116
-0.05773597 0.04163935 0.05 -0.63065875 0.2612286 0.730773 190 190 44 255 0.5867486 0.74528325
-0.051288567 0.051288567 -0.05 -0.4826925 0.4826914 -0.7307647 190 190 44 255 0.875 0.75
-0.06 0.030257324 -0.05 -0.6593931 0.064944595 -0.74898803 190 190 44 255 0.5630361 1
-0.06 -0.06 -0.05 -0.5391761 -0.5391888 -0.64696556 190 190 44 255 0.375 0
-0.05773597 0.04163935 -0.05 -0.63064814 0.26122218 -0.7307844 190 190 44 255 0.58674866 0.0047167316
-0.04163935 0.05773597 -0.05 -0.2612238 0.63064754 -0.73078436 190 190 44 255 0.6202833 0.038251355
-0.0029776238 0.06 -0.05 0.06494437 0.6593804 -0.7489991 190 190 44 255 0.625 0.11879662
0.02112287 0.055206113 -0.05 0.2612266 0.6306523 -0.7307793 190 190 44 255 0.61501276 0.16900598
0.055206113 0.02112287 -0.05 0.6306618 0.26122683 -0.73077106 190 190 44 255 0.544006 0.24001274
0.04155428 0.04155428 -0.05 0.48267382 0.4826709 -0.7307905 190 190 44 255 0.5865714 0.21157143
3 0 1 2
3 3 4 5
3 6 7 8
3 7 9 10
3 11 12 4
3 13 14 12
3 15 16 14
3 17 0 16
3 0 18 19
3 5 20 3
3 21 22 20
3 23 24 25
3 26 6 24
3 27 28 29
3 19 7 1
3 1 30 31
3 31 32 2
3 2 4 0
3 4 33 0
3 33 34 35
3 35 0 33
3 0 19 1
3 1 31 2
3 3 11 4
3 6 1 7
3 7 19 9
3 11 13 12
3 13 36 14
3 15 17 16
3 17 37 0
3 0 37 18
3 5 21 20
3 21 23 22
3 23 26 24
3 26 1 6
3 8 38 6
3 38 27 6
3 27 39 28
3 28 40 29
3 29 41 27
3 41 42 43
3 27 41 6
3 42 44 43
3 43 6 41
