ply
format ascii 1.0
comment Created in Blender version 4.2.2 LTS
element vertex 367
property float x
property float y
property float z
property float nx
property float ny
property float nz
property uchar red
property uchar green
property uchar blue
property uchar alpha
property float s
property float t
element face 411
property list uchar uint vertex_indices
end_header
-0.43607 -0.040000018 0.13784914 -0.6666936 -0.66663486 0.33334294 38 190 38 255 0.625 0
0.063930005 0.03999998 0.1378491 0.66666245 0.6666733 0.33332843 190 116 5 255 0.375 0.25
-0.43607 0.03999998 0.13784915 -0.6666911 0.6666366 0.33334467 38 190 38 255 0.375 0
0.063930005 -0.040000018 0.13784909 0.66664314 -0.6666877 0.33333823 166 135 22 255 0.625 0.25
0.063930005 0.039999984 0.087849125 0.66664886 0.6666883 -0.33332592 56 180 33 255 0.375 0.5
0.063930005 -0.04000001 0.08784911 0.66666603 -0.6666719 -0.33332434 175 122 7 255 0.625 0.5
-0.33614203 -0.00073160813 0.087849155 0.8901218 -0.087667584 -0.44721094 92 162 24 255 0.5022862 0.7000359
-0.33607 -1.9548628e-08 0.087849155 0.88217705 1.9627737e-06 -0.47091782 93 160 24 255 0.4999999 0.6999999
-0.43607 -2.252886e-08 0.08784916 -0.901153 0.029487608 0.43249688 38 190 38 255 0.5 0.75
-0.43607 -0.040000018 0.13784914 -0.6666936 -0.66663486 0.33334294 38 190 38 255 0.625 1
-0.43607 0.03999998 0.13784915 -0.6666911 0.6666366 0.33334467 38 190 38 255 0.375 1
-0.38188937 0.039999984 0.10284915 -7.690001e-09 0.89442676 0.44721466 38 190 38 255 0.29999998 0.7229097
-0.398075 0.03999998 0.10284915 -3.668008e-07 0.8944287 0.4472108 38 190 38 255 0.3 0.73100245
-0.43607 0.03999998 0.13784915 -0.6666911 0.6666366 0.33334467 38 190 38 255 0.125 0.75
-0.43607 -0.040000018 0.13784914 -0.6666936 -0.66663486 0.33334294 38 190 38 255 0.875 0.75
-0.4077698 -0.04000001 0.10284913 2.393581e-07 -0.89442706 0.4472139 38 190 38 255 0.6999999 0.7358499
-0.39025056 -0.04000001 0.10284913 3.9096662e-08 -0.8944273 0.44721353 38 190 38 255 0.70000005 0.72709036
-0.42764348 0.027778527 -0.08215085 -0.8033452 0.53678095 0.25788155 44 186 36 255 0.41319212 0.0042132605
-0.42189172 0.034787092 -0.082150854 -0.7499334 0.61544967 0.24253164 55 180 33 255 0.39129037 0.00708915
-0.43607002 0.040000007 -0.08215084 -0.6666861 0.6666514 0.33332467 70 173 30 255 0.375 0
0.063930005 -0.039999988 -0.0821509 0.66664886 -0.66668826 0.33332586 88 162 25 255 0.625 0.25
0.063930005 0.04000001 -0.13215089 0.6666431 0.6666878 -0.33333832 38 190 38 255 0.375 0.5
0.063930005 0.040000007 -0.082150884 0.6666661 0.6666718 0.3333243 88 164 26 255 0.375 0.25
0.063930005 -0.039999988 -0.1321509 0.6666624 -0.6666734 -0.33332852 72 171 29 255 0.625 0.5
-0.43607002 0.04000001 -0.13215084 -0.66669166 0.6666375 -0.3333418 76 169 29 255 0.375 0.75
-0.43607002 -0.039999988 -0.13215086 -0.6666733 -0.6666589 -0.33333585 38 190 38 255 0.625 0.75
-0.43607002 -0.039999988 -0.082150854 -0.6666882 -0.66665334 0.33331686 38 190 38 255 0.625 1
-0.43607002 1.3551594e-08 -0.08215085 -0.96524554 -0.047419753 0.25700638 38 190 38 255 0.5 1
-0.40186438 0.040000007 -0.09715085 -2.1039765e-08 0.7071071 -0.7071065 38 190 38 255 0.2 0.7328973
-0.3822963 0.04000001 -0.09715085 -9.262857e-08 0.70710135 -0.70711225 38 190 38 255 0.19999999 0.7231132
-0.3898437 -0.039999984 -0.09715086 -6.181772e-08 -0.70710117 -0.70711243 38 190 38 255 0.8 0.72688687
-0.40486377 -0.039999984 -0.09715086 -6.181719e-08 -0.7071071 -0.70710635 38 190 38 255 0.79999995 0.7343968
-0.35829148 -0.041573502 0.10284913 0.5026057 -0.75220394 0.42611828 38 190 38 255 0.84375 1
-0.36693582 -0.046193957 -0.09715086 0.34620175 -0.8358035 -0.42611837 38 190 38 255 0.8125 0.5
-0.3582915 -0.04157346 -0.09715086 0.50260043 -0.7522 -0.4261313 38 190 38 255 0.84375 0.5
-0.36693582 -0.046194 0.10284913 0.34620234 -0.8358078 0.42610934 38 190 38 255 0.8125 1
-0.3763155 -0.049039245 -0.09715086 0.17649461 -0.8872951 -0.42609516 38 190 38 255 0.78125 0.5
-0.37631547 -0.049039286 0.10284913 0.17649196 -0.887284 0.42611924 38 190 38 255 0.78125 1
-0.38607 -0.049999982 -0.09715086 5.16537e-07 -0.9046675 -0.42611828 38 190 38 255 0.75 0.5
-0.38606998 -0.050000023 0.10284913 -4.9740476e-07 -0.90466887 0.42611536 38 190 38 255 0.75 1
-0.39582452 -0.049039245 -0.09715086 -0.17649275 -0.887291 -0.42610452 38 190 38 255 0.71875 0.5
-0.3958245 -0.049039286 0.10284913 -0.17649296 -0.8872873 0.42611197 38 190 38 255 0.71875 1
-0.40520418 -0.046193957 -0.09715086 -0.34620067 -0.83580405 -0.4261183 38 190 38 255 0.6875 0.5
-0.40520418 -0.046194 0.10284913 -0.34620565 -0.8358125 0.42609757 38 190 38 255 0.6875 1
-0.41384852 -0.04157346 -0.09715086 -0.5026044 -0.7522049 -0.4261182 38 190 38 255 0.65625 0.5
-0.41384852 -0.041573502 0.10284913 -0.5026026 -0.7522039 0.4261219 38 190 38 255 0.65625 1
-0.41576582 -0.039999988 -0.082150854 -0.52647275 -0.8489797 0.045386903 38 190 38 255 0.6483424 0.5375
-0.43607 -2.2469234e-08 0.10284915 0 0 0 57 176 32 255 0.5 1
-0.43607 -2.252886e-08 0.08784916 -0.901153 0.029487608 0.43249688 38 190 38 255 0.5 0.9625
-0.43607 -2.252886e-08 0.08784916 -0.5520321 -0.054370638 0.8320483 38 190 38 255 0.5 0.9625
-0.41384852 0.041573457 0.102849156 -0.5026065 0.7522031 0.4261188 38 190 38 255 0.34375 1
-0.40520418 0.046193995 -0.09715084 -0.3462018 0.8358036 -0.42611796 38 190 38 255 0.3125 0.5
-0.41384852 0.0415735 -0.09715084 -0.50260043 0.75220037 -0.42613074 38 190 38 255 0.34375 0.5
-0.40520418 0.046193954 0.102849156 -0.34620136 0.8358064 0.42611298 38 190 38 255 0.3125 1
-0.39582452 0.049039282 -0.09715084 -0.17649464 0.88729525 -0.4260949 38 190 38 255 0.28125 0.5
-0.3958245 0.04903924 0.102849156 -0.17649187 0.88728744 0.4261123 38 190 38 255 0.28125 1
-0.38607 0.05000002 -0.09715084 -5.775676e-07 0.9046676 -0.42611793 38 190 38 255 0.25 0.5
-0.38606998 0.04999998 0.102849156 5.9346786e-07 0.9046686 0.42611566 38 190 38 255 0.25 1
-0.3763155 0.049039282 -0.09715085 0.17649269 0.8872912 -0.42610422 39 188 37 255 0.21875 0.5
-0.37631547 0.04903924 0.10284915 0.17649303 0.8872837 0.42611963 38 190 38 255 0.21875 1
-0.36693582 0.046193995 -0.09715085 0.34620062 0.8358041 -0.42611805 42 188 36 255 0.1875 0.5
-0.36693582 0.046193954 0.10284915 0.34620655 0.83581376 0.4260942 41 188 37 255 0.1875 1
-0.3582915 0.0415735 -0.09715085 0.5026041 0.7522052 -0.42611784 83 166 27 255 0.15625 0.5
-0.35829148 0.041573457 0.10284915 0.502605 0.75220126 0.42612377 47 182 35 255 0.15625 1
-0.3563742 0.040000007 -0.08215085 0.5264725 0.8489798 0.045387078 137 140 15 255 0.14834225 0.5375
-0.43510926 -0.009754499 -0.09715085 -0.88729876 -0.1764932 -0.42608815 38 190 38 255 0.79682165 0.014611542
-0.3822963 0.04000001 -0.09715085 -9.262857e-08 0.70710135 -0.70711225 38 190 38 255 0.558 0.26811376
-0.33703074 0.009754533 -0.097150855 0.88729864 0.17649336 -0.42608827 190 116 5 255 0.70317835 0.48538846
-0.42085707 -0.035821687 -0.08215087 -0.6154524 -0.7499318 0.24252973 38 190 38 255 0.6273438 0.53749996
-0.41576582 -0.04000001 0.087849155 -0.49662584 -0.8660855 -0.057084654 38 190 38 255 0.6483422 0.9624999
-0.35128292 0.035821717 -0.08215086 0.6154543 0.7499301 0.24253023 180 120 6 255 0.12734374 0.53749996
-0.3563742 0.039999984 0.08784916 0.49662665 0.86608505 -0.057084482 87 162 26 255 0.1483423 0.9625
-0.36693582 0.046193954 0.10284915 0.34620655 0.83581376 0.4260942 41 188 37 255 0.028268918 0.34184402
-0.37631547 0.04903924 0.10284915 0.17649303 0.8872837 0.42611963 38 190 38 255 0.014611542 0.29682168
-0.38606998 0.04999998 0.102849156 5.9346786e-07 0.9046686 0.42611566 38 190 38 255 0.010000005 0.25
-0.3958245 0.04903924 0.102849156 -0.17649187 0.88728744 0.4261123 38 190 38 255 0.014611542 0.20317832
-0.40520418 0.046193954 0.102849156 -0.34620136 0.8358064 0.42611298 38 190 38 255 0.028268918 0.15815598
-0.41384852 0.041573457 0.102849156 -0.5026065 0.7522031 0.4261188 38 190 38 255 0.0504473 0.11666314
-0.4144741 0.03999998 0.102849156 1.3172819e-06 0.894422 0.44722375 38 190 38 255 0.05799999 0.113660306
-0.40520418 -0.046194 0.10284913 -0.34620565 -0.8358125 0.42609757 38 190 38 255 0.47173107 0.15815598
-0.3958245 -0.049039286 0.10284913 -0.17649296 -0.8872873 0.42611197 38 190 38 255 0.48538846 0.20317832
-0.36693582 -0.046194 0.10284913 0.34620234 -0.8358078 0.42610934 38 190 38 255 0.47173107 0.34184402
-0.38606998 -0.050000023 0.10284913 -4.9740476e-07 -0.90466887 0.42611536 38 190 38 255 0.49 0.25
-0.37631547 -0.049039286 0.10284913 0.17649196 -0.887284 0.42611924 38 190 38 255 0.48538846 0.29682168
-0.35829148 -0.041573502 0.10284913 0.5026057 -0.75220394 0.42611828 38 190 38 255 0.4495527 0.38333684
-0.35766587 -0.04000001 0.10284913 -5.4446978e-06 -0.8944245 0.44721907 38 190 38 255 0.44199994 0.3863398
-0.398075 0.03999998 0.10284915 -3.668008e-07 0.8944287 0.4472108 38 190 38 255 0.05799998 0.1923759
-0.3740649 -0.04000001 0.10284913 3.909643e-08 -0.89442855 0.44721088 38 190 38 255 0.44199997 0.3076245
-0.33607 1.6472203e-08 -0.097150855 0.9046712 -1.3700638e-06 -0.4261103 186 117 5 255 0.75 0.49
-0.33703074 -0.009754499 -0.09715086 0.88729763 -0.17649595 -0.4260894 140 137 14 255 0.79682165 0.48538846
-0.33987603 -0.019134156 -0.09715086 0.83580667 -0.34620392 -0.42611048 59 176 33 255 0.841844 0.47173107
-0.34449652 -0.027778495 -0.09715086 0.75221497 -0.50261515 -0.42608756 38 190 38 255 0.88333684 0.4495527
-0.35071465 -0.035355322 -0.09715086 0.6396983 -0.63970155 -0.42610782 38 190 38 255 0.9197056 0.41970563
-0.356718 -0.039999984 -0.09715086 -6.181657e-08 -0.7071142 -0.7070993 38 190 38 255 0.94200003 0.39088956
-0.3582915 -0.04157346 -0.09715086 0.50260043 -0.7522 -0.4261313 38 190 38 255 0.9495527 0.38333684
-0.36693582 -0.046193957 -0.09715086 0.34620175 -0.8358035 -0.42611837 38 190 38 255 0.97173107 0.34184402
-0.3763155 -0.049039245 -0.09715086 0.17649461 -0.8872951 -0.42609516 38 190 38 255 0.98538846 0.29682168
-0.38607 -0.049999982 -0.09715086 5.16537e-07 -0.9046675 -0.42611828 38 190 38 255 0.99 0.25
-0.39582452 -0.049039245 -0.09715086 -0.17649275 -0.887291 -0.42610452 38 190 38 255 0.98538846 0.20317832
-0.40520418 -0.046193957 -0.09715086 -0.34620067 -0.83580405 -0.4261183 38 190 38 255 0.97173107 0.15815598
-0.41384852 -0.04157346 -0.09715086 -0.5026044 -0.7522049 -0.4261182 38 190 38 255 0.9495527 0.11666314
-0.41576582 -0.039999984 -0.097150855 -0.26299405 -0.94226956 -0.20727311 38 190 38 255 0.94200003 0.107460186
-0.415422 -0.039999988 -0.09715086 -6.181675e-08 -0.70711225 -0.70710135 38 190 38 255 0.94200003 0.10911047
-0.42764348 -0.027778495 -0.097150855 -0.7522105 -0.5026095 -0.42610216 38 190 38 255 0.88333684 0.0504473
-0.43226397 -0.019134156 -0.097150855 -0.8358078 -0.34620148 -0.42611015 38 190 38 255 0.841844 0.028268918
-0.43607002 1.6472201e-08 -0.09715085 -0.9046715 1.5230621e-06 -0.4261096 38 190 38 255 0.75 0.010000005
-0.43510926 0.009754533 -0.09715085 -0.8872977 0.17649616 -0.42608902 38 190 38 255 0.70317835 0.014611542
-0.43226397 0.01913419 -0.09715085 -0.8358067 0.3462042 -0.42611006 38 190 38 255 0.658156 0.028268918
-0.42764348 0.027778529 -0.09715085 -0.75221485 0.5026157 -0.42608714 39 190 38 255 0.61666316 0.0504473
-0.42142534 0.03535536 -0.09715084 -0.63970035 0.63969916 -0.42610818 43 188 36 255 0.5802944 0.080294386
-0.41542202 0.04000001 -0.09715084 -6.1817005e-08 0.70710963 -0.70710397 38 190 38 255 0.5580001 0.1091104
-0.41384852 0.0415735 -0.09715084 -0.50260043 0.75220037 -0.42613074 38 190 38 255 0.5504473 0.11666314
-0.40520418 0.046193995 -0.09715084 -0.3462018 0.8358036 -0.42611796 38 190 38 255 0.52826893 0.15815598
-0.39582452 0.049039282 -0.09715084 -0.17649464 0.88729525 -0.4260949 38 190 38 255 0.51461154 0.20317832
-0.38607 0.05000002 -0.09715084 -5.775676e-07 0.9046676 -0.42611793 38 190 38 255 0.51 0.25
-0.3763155 0.049039282 -0.09715085 0.17649269 0.8872912 -0.42610422 39 188 37 255 0.51461154 0.29682168
-0.36693582 0.046193995 -0.09715085 0.34620062 0.8358041 -0.42611805 42 188 36 255 0.52826893 0.34184402
-0.3582915 0.0415735 -0.09715085 0.5026041 0.7522052 -0.42611784 83 166 27 255 0.5504473 0.38333684
-0.3563742 0.040000007 -0.09715085 0.262989 0.94227153 -0.20727059 110 152 20 255 0.5580001 0.39253992
-0.356718 0.04000001 -0.09715085 1.5441452e-05 0.70710516 -0.7071084 106 153 22 255 0.558 0.3908896
-0.34449652 0.027778529 -0.097150855 0.7522107 0.50261 -0.42610118 190 116 5 255 0.61666316 0.4495527
-0.33987603 0.01913419 -0.097150855 0.83580774 0.34620127 -0.42611033 190 116 5 255 0.658156 0.47173107
-0.37027565 -0.039999988 -0.09715086 -6.181721e-08 -0.70710695 -0.70710665 38 190 38 255 0.94200003 0.3258129
-0.36727622 -0.039999988 -0.09715086 -6.181674e-08 -0.7071123 -0.7071013 38 190 38 255 0.94200003 0.3402101
-0.36278728 -0.039999984 -0.09715086 -6.1816934e-08 -0.70711005 -0.7071035 38 190 38 255 0.94200003 0.3617571
-0.3898437 -0.039999984 -0.09715086 -6.181772e-08 -0.70710117 -0.70711243 38 190 38 255 0.94200003 0.23188631
-0.40486377 -0.039999984 -0.09715086 -6.181719e-08 -0.7071071 -0.70710635 38 190 38 255 0.94200003 0.15978989
-0.4148999 -0.039999988 -0.09715086 -6.181737e-08 -0.7071051 -0.70710844 38 190 38 255 0.94200003 0.111616604
-0.40186438 0.040000007 -0.09715085 -2.1039765e-08 0.7071071 -0.7071065 38 190 38 255 0.558 0.17418703
-0.4048638 0.04000001 -0.09715085 1.6190094e-06 0.7071115 -0.707102 38 190 38 255 0.5580001 0.15978982
-0.40935275 0.04000001 -0.09715084 -6.181699e-08 0.70710975 -0.70710385 38 190 38 255 0.5580001 0.13824284
-0.36727622 0.04000001 -0.09715085 4.905546e-07 0.707107 -0.7071065 38 190 38 255 0.5580001 0.3402102
-0.3572401 0.040000007 -0.09715085 -1.0750619e-05 0.7071101 -0.70710343 98 159 23 255 0.558 0.38838345
-0.33695868 -0.009022914 -0.08215088 0.9654724 -0.09508765 0.24253143 159 131 10 255 0.9710938 0.53749996
-0.33703074 -0.009754502 -0.08215086 0.94761163 -0.18848872 0.25788417 153 131 12 255 0.96875 0.5375
-0.33703074 -0.009754499 -0.09715086 0.88729763 -0.17649595 -0.4260894 140 137 14 255 0.96875 0.5
-0.33724415 0.010458004 -0.08215087 0.9283695 0.28161782 0.2425314 190 116 5 255 0.033593748 0.53749996
-0.33987603 0.01913419 -0.097150855 0.83580774 0.34620127 -0.42611033 190 116 5 255 0.0625 0.5
-0.33987603 0.019134188 -0.082150854 0.8926291 0.36974275 0.25788325 190 116 5 255 0.0625 0.5375
-0.33966264 -0.018430684 -0.08215088 0.92837 -0.2816162 0.24253133 80 167 27 255 0.9398438 0.53749996
-0.3563742 -0.039999988 -0.09715086 0.26298717 -0.94227135 -0.20727396 38 190 38 255 0.94200003 0.3925398
-0.42189172 0.034787092 -0.082150854 -0.7499334 0.61544967 0.24253164 55 180 33 255 0.37734374 0.53749996
-0.42142534 0.035355356 -0.08215084 -0.68319243 0.6831884 0.2578795 55 180 33 255 0.375 0.5375
-0.42142534 0.03535536 -0.09715084 -0.63970035 0.63969916 -0.42610818 43 188 36 255 0.375 0.5
-0.42142534 -0.035355322 -0.097150855 -0.6397013 -0.63969713 -0.4261101 38 190 38 255 0.9197056 0.080294386
-0.3502483 -0.034787063 -0.08215088 0.74993116 -0.61545247 0.24253133 38 190 38 255 0.8773437 0.53749996
-0.34449652 -0.027778495 -0.09715086 0.75221497 -0.50261515 -0.42608756 38 190 38 255 0.90625 0.5
-0.34449652 -0.027778497 -0.08215086 0.80334723 -0.5367795 0.25787798 41 188 37 255 0.90625 0.5375
-0.33695868 -0.009022914 -0.08215088 0.9654724 -0.09508765 0.24253143 159 131 10 255 0.52819663 0.04955566
-0.33607 1.3551595e-08 -0.082150854 0.96617705 -1.7102876e-06 0.25787944 188 117 5 255 0.5 0.05
-0.43191746 -0.019782482 -0.08215087 -0.8555893 -0.4573237 0.24253249 38 190 38 255 0.5618203 0.00207628
-0.43226397 -0.019134158 -0.082150854 -0.8926302 -0.36973798 0.25788575 38 190 38 255 0.55979425 0.0019030123
-0.43607002 -0.039999988 -0.082150854 -0.6666882 -0.66665334 0.33331686 38 190 38 255 0.625 0
-0.41576582 -0.039999984 -0.097150855 -0.26299405 -0.94226956 -0.20727311 38 190 38 255 0.6483424 0.5
-0.42142534 -0.035355322 -0.097150855 -0.6397013 -0.63969713 -0.4261101 38 190 38 255 0.625 0.5
-0.3449629 0.02834679 -0.08215087 0.7499298 0.61545426 0.24253136 190 116 5 255 0.096093744 0.53749996
-0.35071465 0.03535536 -0.09715085 0.6397002 0.6396986 -0.4261095 176 122 7 255 0.125 0.5
-0.35071465 0.035355356 -0.08215085 0.6831915 0.6831886 0.25788113 182 119 6 255 0.125 0.5375
-0.42717713 -0.02834676 -0.08215087 -0.74992955 -0.6154544 0.24253148 38 190 38 255 0.5960937 0.53749996
-0.42764348 -0.027778497 -0.082150854 -0.80334526 -0.5367805 0.25788215 38 190 38 255 0.59375 0.5375
-0.42764348 -0.027778495 -0.097150855 -0.7522105 -0.5026095 -0.42610216 38 190 38 255 0.59375 0.5
-0.33614206 0.00073160214 -0.082150854 0.9654723 0.09508932 0.24253134 188 117 5 255 0.0023437499 0.5375
-0.33607 1.3551595e-08 -0.082150854 0.96617705 -1.7102876e-06 0.25787944 188 117 5 255 0 0.5375
-0.33607 1.6472203e-08 -0.097150855 0.9046712 -1.3700638e-06 -0.4261103 186 117 5 255 0 0.5
-0.43489587 -0.010457976 -0.08215087 -0.928368 -0.2816207 0.24253379 38 190 38 255 0.5335938 0.53749996
-0.43226397 -0.019134156 -0.097150855 -0.8358078 -0.34620148 -0.42611015 38 190 38 255 0.5625 0.5
-0.43226397 -0.019134158 -0.082150854 -0.8926302 -0.36973798 0.25788575 38 190 38 255 0.5625 0.5375
-0.43247738 0.018430714 -0.08215086 -0.9283694 0.28161794 0.2425314 38 190 38 255 0.43984374 0.53749996
-0.43226397 0.019134188 -0.08215085 -0.89263123 0.36973643 0.2578843 38 190 38 255 0.4375 0.5375
-0.43226397 0.01913419 -0.09715085 -0.8358067 0.3462042 -0.42611006 38 190 38 255 0.4375 0.5
-0.33703074 0.00975453 -0.082150854 0.947611 0.18849152 0.25788426 190 116 5 255 0.03125 0.5375
-0.33703074 0.009754533 -0.097150855 0.88729864 0.17649336 -0.42608827 190 116 5 255 0.03125 0.5
-0.35071465 0.03535536 -0.09715085 0.6397002 0.6396986 -0.4261095 176 122 7 255 0.5802944 0.41970563
-0.33987603 -0.019134158 -0.08215086 0.8926306 -0.36973867 0.25788385 75 171 28 255 0.9375 0.5375
-0.33987603 -0.019134156 -0.09715086 0.83580667 -0.34620392 -0.42611048 59 176 33 255 0.9375 0.5
-0.43191746 -0.019782482 -0.08215087 -0.8555893 -0.4573237 0.24253249 38 190 38 255 0.5648438 0.53749996
-0.43599796 -0.00073157455 -0.08215086 -0.96546924 -0.09509493 0.24254061 38 190 38 255 0.5023438 0.53749996
-0.43607002 1.3551594e-08 -0.08215085 -0.96524554 -0.047419753 0.25700638 38 190 38 255 0.5 0.5375
-0.43607002 1.6472201e-08 -0.09715085 -0.9046715 1.5230621e-06 -0.4261096 38 190 38 255 0.5 0.5
-0.35071465 -0.035355326 -0.08215086 0.68319017 -0.68319005 0.25788102 38 190 38 255 0.875 0.5375
-0.35071465 -0.035355322 -0.09715086 0.6396983 -0.63970155 -0.42610782 38 190 38 255 0.875 0.5
-0.43510926 -0.009754502 -0.08215085 -0.9476118 -0.1884915 0.25788113 38 190 38 255 0.53125 0.5375
-0.43510926 -0.009754499 -0.09715085 -0.88729876 -0.1764932 -0.42608815 38 190 38 255 0.53125 0.5
-0.42764348 0.027778529 -0.09715085 -0.75221485 0.5026157 -0.42608714 39 190 38 255 0.40625 0.5
-0.42764348 0.027778527 -0.08215085 -0.8033452 0.53678095 0.25788155 44 186 36 255 0.40625 0.5375
-0.34449652 0.027778527 -0.082150854 0.80334604 0.536781 0.25787815 190 116 5 255 0.09375 0.5375
-0.34449652 0.027778529 -0.097150855 0.7522107 0.50261 -0.42610118 190 116 5 255 0.09375 0.5
-0.42799002 0.027130205 -0.08215086 -0.85558844 0.4573256 0.2425319 43 186 36 255 0.40859374 0.53749996
-0.33607 1.6472203e-08 -0.097150855 0.9046712 -1.3700638e-06 -0.4261103 186 117 5 255 1 0.5
-0.33607 1.3551595e-08 -0.082150854 0.96617705 -1.7102876e-06 0.25787944 188 117 5 255 1 0.5375
-0.3563742 -0.039999988 -0.08215086 0.52647334 -0.84897935 0.04538589 38 190 38 255 0.8516576 0.5375
-0.34022257 0.019782512 -0.08215087 0.85559005 0.4573231 0.24253124 190 116 5 255 0.06484375 0.53749996
-0.34414998 -0.027130175 -0.08215088 0.8555908 -0.4573214 0.24253152 42 188 37 255 0.9085938 0.53749996
-0.41576582 0.040000007 -0.08215084 -0.5264736 0.8489791 0.04538626 38 188 37 255 0.35165775 0.5375
-0.3563742 0.040000007 -0.09715085 0.262989 0.94227153 -0.20727059 110 152 20 255 0.14834224 0.5
-0.42142534 -0.035355326 -0.082150854 -0.6831888 -0.68319225 0.25787836 38 190 38 255 0.625 0.5375
-0.43510926 0.009754533 -0.09715085 -0.8872977 0.17649616 -0.42608902 38 190 38 255 0.46875 0.5
-0.43510926 0.00975453 -0.08215085 -0.9476147 0.18848673 0.2578744 38 190 38 255 0.46875 0.5375
-0.41576582 0.04000001 -0.09715084 -0.26298958 0.94227016 -0.20727612 38 190 38 255 0.558 0.1074601
-0.43518132 0.009022942 -0.08215086 -0.96547174 0.0950915 0.24253212 38 190 38 255 0.47109374 0.53749996
-0.35024828 0.034787063 0.08784916 0.69139606 0.5674299 -0.44720772 188 117 5 255 0.12265625 0.9625
-0.35071465 0.035355322 0.08784916 0.62378865 0.6237981 -0.470918 188 117 5 255 0.125 0.9625
-0.34449652 0.027778491 0.087849155 0.73350316 0.490116 -0.4709135 175 122 7 255 0.09375 0.9625
-0.42085707 0.035821684 0.08784917 -0.567419 0.6914035 -0.44721025 38 190 38 255 0.37265623 0.96250004
-0.34022254 -0.019782517 0.08784915 0.78881395 -0.42163524 -0.4472093 82 166 27 255 0.9351563 0.96250004
-0.33987603 -0.019134194 0.08784915 0.81501937 -0.3376019 -0.47092283 82 166 27 255 0.9375 0.96250004
-0.43518132 -0.0090229465 0.08784916 -0.8901211 -0.08767009 -0.44721168 38 190 38 255 0.5289062 0.96250004
-0.43510926 -0.009754536 0.08784916 -0.86522484 -0.17210485 -0.47092026 38 190 38 255 0.53125 0.96250004
-0.39025056 -0.04000001 0.10284913 3.9096662e-08 -0.8944273 0.44721353 38 190 38 255 0.44199994 0.22993325
-0.33703074 -0.009754536 0.08784915 0.8652228 -0.17210303 -0.47092474 88 162 26 255 0.96875 0.96250004
-0.33614203 -0.00073160813 0.087849155 0.8901218 -0.087667584 -0.44721094 92 162 24 255 0.9976562 0.96250004
-0.43226397 -0.019134194 0.087849155 -0.8150223 -0.3375868 -0.47092858 38 188 37 255 0.5625 0.96250004
-0.42799002 -0.027130205 0.087849155 -0.7888144 -0.42163256 -0.447211 38 190 38 255 0.5914063 0.96250004
-0.43489587 0.010457973 0.08784916 -0.8559151 0.25963867 -0.4472103 38 190 38 255 0.46640626 0.96250004
-0.43510926 0.0097544985 0.08784916 -0.86522496 0.17210391 -0.4709203 38 190 38 255 0.46875 0.96250004
-0.33987603 0.019134156 0.087849155 0.81502324 0.33758938 -0.47092503 148 135 13 255 0.0625 0.96250004
-0.34414998 0.027130168 0.087849155 0.7888128 0.4216365 -0.44721034 173 123 8 255 0.09140625 0.9625
-0.35128292 -0.03582172 0.08784915 0.567419 -0.6914031 -0.44721082 47 184 36 255 0.8726562 0.96250004
-0.34496287 -0.028346794 0.08784915 0.69140136 -0.5674214 -0.4472105 66 175 31 255 0.9039063 0.9625
-0.34449652 -0.02777853 0.08784915 0.7335035 -0.49011356 -0.4709154 67 175 31 255 0.90625 0.96250004
-0.38188937 0.039999984 0.10284915 -7.690001e-09 0.89442676 0.44721466 38 190 38 255 0.05799997 0.27006692
-0.43226397 0.019134156 0.08784916 -0.8150201 0.33759382 -0.47092763 38 190 38 255 0.4375 0.96250004
-0.4077698 -0.04000001 0.10284913 2.393581e-07 -0.89442706 0.4472139 38 190 38 255 0.4419999 0.14584093
-0.41447413 -0.040000014 0.10284913 -3.4938265e-07 -0.8944221 0.44722375 38 190 38 255 0.44199994 0.1136602
-0.35071465 -0.03535536 0.08784915 0.62379736 -0.62378275 -0.47092655 48 184 36 255 0.875 0.96250004
-0.3643702 0.039999984 0.10284915 1.0885301e-06 0.8944267 0.44721448 39 188 37 255 0.05799997 0.35415903
-0.3396626 0.018430682 0.087849155 0.8559164 0.25963417 -0.4472105 144 135 13 255 0.060156252 0.96250004
-0.33607 -1.9548628e-08 0.087849155 0.88217705 1.9627737e-06 -0.47091782 93 160 24 255 1 0.96250004
-0.42142534 0.035355322 0.08784917 -0.62379473 0.62379116 -0.47091904 38 190 38 255 0.375 0.96250004
-0.4271771 0.028346756 0.08784916 -0.69140226 0.56742036 -0.44721046 38 190 38 255 0.40390626 0.9625
-0.42764348 -0.02777853 0.087849155 -0.7335009 -0.4901119 -0.47092116 38 190 38 255 0.59375 0.96250004
-0.33695868 0.009022909 0.087849155 0.89012164 0.08767005 -0.44721067 110 152 20 255 0.028906252 0.96250004
-0.33703074 0.0097544985 0.087849155 0.8652226 0.17210482 -0.4709245 112 152 20 255 0.03125 0.96250004
-0.4218917 -0.034787096 0.087849155 -0.6914059 -0.5674162 -0.4472102 38 190 38 255 0.6226562 0.9625
-0.3576659 0.03999998 0.10284915 1.1848853e-07 0.894422 0.44722396 47 184 36 255 0.057999983 0.38633972
-0.43247736 -0.01843072 0.087849155 -0.8559163 -0.25963554 -0.4472097 38 188 37 255 0.5601562 0.96250004
-0.42142534 -0.03535536 0.087849155 -0.62379646 -0.6237906 -0.47091767 38 190 38 255 0.625 0.96250004
-0.33724412 -0.01045801 0.08784915 0.855915 -0.25963855 -0.44721052 85 164 26 255 0.9664063 0.96250004
-0.43607002 1.3551594e-08 -0.08215085 -0.8901205 0.08766919 0.44721314 38 190 38 255 0.5 0.5375
-0.4157658 0.039999984 0.08784917 -0.4966258 0.8660855 -0.057085156 38 190 38 255 0.3516577 0.96250004
-0.35637417 -0.04000001 0.08784915 0.49662527 -0.8660858 -0.05708552 42 188 37 255 0.85165775 0.96250004
-0.42764348 0.027778493 0.08784916 -0.73350126 0.49011135 -0.47092125 38 190 38 255 0.40625 0.96250004
-0.43191743 0.01978248 0.08784916 -0.7888151 0.4216329 -0.44720966 38 190 38 255 0.4381797 0.74792373
-0.43226397 0.019134156 0.08784916 -0.8150201 0.33759382 -0.47092763 38 190 38 255 0.4402057 0.748097
-0.43607 0.039999984 0.08784917 -0.66668844 0.66665334 -0.3333165 38 190 38 255 0.375 0.75
-0.43226397 -0.019134194 0.087849155 -0.8150223 -0.3375868 -0.47092858 38 188 37 255 0.5597943 0.748097
-0.42799002 -0.027130205 0.087849155 -0.7888144 -0.42163256 -0.447211 38 190 38 255 0.5847819 0.74596
-0.43607 -0.04000001 0.087849155 -0.66668624 -0.6666509 -0.33332583 38 190 38 255 0.625 0.75
-0.43599796 0.00073156896 0.08784916 -0.89011407 0.08766925 -0.44722593 38 190 38 255 0.49765626 0.96250004
-0.43191743 0.01978248 0.08784916 -0.7888151 0.4216329 -0.44720966 38 190 38 255 0.43515626 0.96250004
-0.33607 -1.9548628e-08 0.087849155 0.88217705 1.9627737e-06 -0.47091782 93 160 24 255 0 0.96250004
-0.35829148 0.041573457 0.10284915 0.502605 0.75220126 0.42612377 47 182 35 255 0.0504473 0.38333684
-0.41384852 -0.041573502 0.10284913 -0.5026026 -0.7522039 0.4261219 38 190 38 255 0.4495527 0.11666314
-0.3563742 0.039999984 0.08784916 0.49662665 0.86608505 -0.057084482 87 162 26 255 0.375 0.71015215
-0.35071465 0.035355322 0.08784916 0.62378865 0.6237981 -0.470918 188 117 5 255 0.38951457 0.70732236
-0.35024828 0.034787063 0.08784916 0.69139606 0.5674299 -0.44720772 188 117 5 255 0.3912904 0.70708925
-0.35637417 -0.04000001 0.08784915 0.49662527 -0.8660858 -0.05708552 42 188 37 255 0.625 0.7101521
-0.35128292 -0.03582172 0.08784915 0.567419 -0.6914031 -0.44721082 47 184 36 255 0.61194265 0.70760643
-0.35071465 -0.03535536 0.08784915 0.62379736 -0.62378275 -0.47092655 48 184 36 255 0.6104855 0.70732236
-0.34496287 -0.028346794 0.08784915 0.69140136 -0.5674214 -0.4472105 66 175 31 255 0.5885837 0.70444655
-0.34449652 -0.02777853 0.08784915 0.7335035 -0.49011356 -0.4709154 67 175 31 255 0.5868079 0.7042133
-0.34449652 0.027778491 0.087849155 0.73350316 0.490116 -0.4709135 175 122 7 255 0.4131922 0.7042134
-0.34414998 0.027130168 0.087849155 0.7888128 0.4216365 -0.44721034 173 123 8 255 0.41521823 0.70404005
-0.34022254 -0.019782517 0.08784915 0.78881395 -0.42163524 -0.4472093 82 166 27 255 0.5618204 0.7020763
-0.33987603 -0.019134194 0.08784915 0.81501937 -0.3376019 -0.47092283 82 166 27 255 0.5597943 0.7019029
-0.33724412 -0.01045801 0.08784915 0.855915 -0.25963855 -0.44721052 85 164 26 255 0.5326812 0.70058703
-0.33703074 -0.009754536 0.08784915 0.8652228 -0.17210303 -0.47092474 88 162 26 255 0.5304828 0.7004803
-0.33987603 0.019134156 0.087849155 0.81502324 0.33758938 -0.47092503 148 135 13 255 0.44020572 0.701903
-0.3396626 0.018430682 0.087849155 0.8559164 0.25963417 -0.4472105 144 135 13 255 0.44240406 0.7017963
-0.33703074 0.0097544985 0.087849155 0.8652226 0.17210482 -0.4709245 112 152 20 255 0.46951714 0.7004803
-0.33695868 0.009022909 0.087849155 0.89012164 0.08767005 -0.44721067 110 152 20 255 0.47180328 0.7004442
0.063930005 0.03999998 0.1378491 0.66666245 0.6666733 0.33332843 190 116 5 255 0.125 0.5
-0.3563742 0.03999998 0.10284915 0.16554204 0.9845492 0.057085123 48 184 35 255 0.3 0.71015215
-0.4157658 0.039999984 0.08784917 -0.4966258 0.8660855 -0.057085156 38 190 38 255 0.375 0.7398479
-0.4157658 0.039999984 0.102849156 -0.16554269 0.9845489 0.057086833 38 190 38 255 0.3 0.7398479
-0.3576659 0.03999998 0.10284915 1.1848853e-07 0.894422 0.44722396 47 184 36 255 0.3 0.71079797
-0.3643702 0.039999984 0.10284915 1.0885301e-06 0.8944267 0.44721448 39 188 37 255 0.3 0.71415013
-0.4144741 0.03999998 0.102849156 1.3172819e-06 0.894422 0.44722375 38 190 38 255 0.29999998 0.739202
-0.35637417 -0.040000014 0.10284913 0.16554135 -0.98454934 0.05708479 38 190 38 255 0.7 0.7101521
0.063930005 -0.040000018 0.13784909 0.66664314 -0.6666877 0.33333823 166 135 22 255 0.875 0.5
-0.41576582 -0.04000001 0.10284914 -0.16554733 -0.9845483 0.057085235 38 190 38 255 0.7 0.7398479
-0.41576582 -0.04000001 0.087849155 -0.49662584 -0.8660855 -0.057084654 38 190 38 255 0.625 0.7398479
-0.35766587 -0.04000001 0.10284913 -5.4446978e-06 -0.8944245 0.44721907 38 190 38 255 0.7 0.71079797
-0.41447413 -0.040000014 0.10284913 -3.4938265e-07 -0.8944221 0.44722375 38 190 38 255 0.7 0.7392021
-0.3740649 -0.04000001 0.10284913 3.909643e-08 -0.89442855 0.44721088 38 190 38 255 0.6999999 0.71899736
-0.43607002 1.3551594e-08 -0.08215085 -0.96524554 -0.047419753 0.25700638 38 190 38 255 0.5 0
-0.43518132 0.009022942 -0.08215086 -0.96547174 0.0950915 0.24253212 38 190 38 255 0.47180334 0.0004443407
-0.43510926 0.00975453 -0.08215085 -0.9476147 0.18848673 0.2578744 38 190 38 255 0.46951717 0.00048036876
-0.43247738 0.018430714 -0.08215086 -0.9283694 0.28161794 0.2425314 38 190 38 255 0.44240406 0.001796314
-0.43226397 0.019134188 -0.08215085 -0.89263123 0.36973643 0.2578843 38 190 38 255 0.4402056 0.0019030124
-0.42142534 0.035355356 -0.08215084 -0.68319243 0.6831884 0.2578795 55 180 33 255 0.38951454 0.00732233
-0.41576582 0.040000007 -0.08215084 -0.5264736 0.8489791 0.04538626 38 188 37 255 0.375 0.010152092
-0.42799002 0.027130205 -0.08215086 -0.85558844 0.4573256 0.2425319 43 186 36 255 0.41521817 0.0040399926
-0.43607002 0.040000007 -0.08215084 -0.6666861 0.6666514 0.33332467 70 173 30 255 0.375 1
-0.3563742 0.040000007 -0.08215085 0.5264725 0.8489798 0.045387078 137 140 15 255 0.125 0.7101521
0.063930005 0.040000007 -0.082150884 0.6666661 0.6666718 0.3333243 88 164 26 255 0.125 0.5
-0.3563742 0.040000007 -0.09715085 0.262989 0.94227153 -0.20727059 110 152 20 255 0.19999999 0.7101521
-0.43607002 0.040000007 -0.08215084 -0.6666861 0.6666514 0.33332467 70 173 30 255 0.125 0.75
-0.41576582 0.04000001 -0.09715084 -0.26298958 0.94227016 -0.20727612 38 190 38 255 0.19999999 0.7398479
-0.41576582 0.040000007 -0.08215084 -0.5264736 0.8489791 0.04538626 38 188 37 255 0.125 0.7398479
-0.356718 0.04000001 -0.09715085 1.5441452e-05 0.70710516 -0.7071084 106 153 22 255 0.2 0.71032405
-0.41542202 0.04000001 -0.09715084 -6.1817005e-08 0.70710963 -0.70710397 38 190 38 255 0.2 0.739676
-0.40935275 0.04000001 -0.09715084 -6.181699e-08 0.70710975 -0.70710385 38 190 38 255 0.19999997 0.7366413
-0.3572401 0.040000007 -0.09715085 -1.0750619e-05 0.7071101 -0.70710343 98 159 23 255 0.20000002 0.7105851
-0.36727622 0.04000001 -0.09715085 4.905546e-07 0.707107 -0.7071065 38 190 38 255 0.19999997 0.715603
-0.4048638 0.04000001 -0.09715085 1.6190094e-06 0.7071115 -0.707102 38 190 38 255 0.2 0.73439693
-0.3563742 -0.039999988 -0.09715086 0.26298717 -0.94227135 -0.20727396 38 190 38 255 0.8000001 0.71015215
0.063930005 -0.039999988 -0.0821509 0.66664886 -0.66668826 0.33332586 88 162 25 255 0.875 0.5
-0.3563742 -0.039999988 -0.08215086 0.52647334 -0.84897935 0.04538589 38 190 38 255 0.875 0.71015215
-0.41576582 -0.039999988 -0.082150854 -0.52647275 -0.8489797 0.045386903 38 190 38 255 0.875 0.7398479
-0.43607002 -0.039999988 -0.082150854 -0.6666882 -0.66665334 0.33331686 38 190 38 255 0.875 0.75
-0.41576582 -0.039999984 -0.097150855 -0.26299405 -0.94226956 -0.20727311 38 190 38 255 0.8000001 0.7398479
-0.356718 -0.039999984 -0.09715086 -6.181657e-08 -0.7071142 -0.7070993 38 190 38 255 0.7999999 0.7103239
-0.36278728 -0.039999984 -0.09715086 -6.1816934e-08 -0.70711005 -0.7071035 38 190 38 255 0.79999995 0.71335864
-0.415422 -0.039999988 -0.09715086 -6.181675e-08 -0.70711225 -0.70710135 38 190 38 255 0.8000001 0.739676
-0.4148999 -0.039999988 -0.09715086 -6.181737e-08 -0.7071051 -0.70710844 38 190 38 255 0.79999995 0.7394149
-0.36727622 -0.039999988 -0.09715086 -6.181674e-08 -0.7071123 -0.7071013 38 190 38 255 0.8000001 0.7156031
-0.37027565 -0.039999988 -0.09715086 -6.181721e-08 -0.70710695 -0.70710665 38 190 38 255 0.79999995 0.71710277
-0.41576582 -0.04000001 0.10284914 -0.16554733 -0.9845483 0.057085235 38 190 38 255 0.64834225 1
-0.3563742 0.03999998 0.10284915 0.16554204 0.9845492 0.057085123 48 184 35 255 0.14834231 1
-0.4157658 0.039999984 0.102849156 -0.16554269 0.9845489 0.057086833 38 190 38 255 0.057999976 0.107460186
-0.35637417 -0.040000014 0.10284913 0.16554135 -0.98454934 0.05708479 38 190 38 255 0.44199997 0.39253992
-0.3563742 0.040000007 -0.08215085 0.5264725 0.8489798 0.045387078 137 140 15 255 0.375 0.03984791
-0.35128292 0.035821717 -0.08215086 0.6154543 0.7499301 0.24253023 180 120 6 255 0.38805717 0.042393543
-0.35071465 0.035355356 -0.08215085 0.6831915 0.6831886 0.25788113 182 119 6 255 0.38951454 0.04267768
-0.3449629 0.02834679 -0.08215087 0.7499298 0.61545426 0.24253136 190 116 5 255 0.4114163 0.045553558
-0.34449652 0.027778527 -0.082150854 0.80334604 0.536781 0.25787815 190 116 5 255 0.4131921 0.04578674
-0.3563742 -0.039999988 -0.08215086 0.52647334 -0.84897935 0.04538589 38 190 38 255 0.625 0.0398479
-0.35071465 -0.035355326 -0.08215086 0.68319017 -0.68319005 0.25788102 38 190 38 255 0.61048543 0.042677667
-0.3502483 -0.034787063 -0.08215088 0.74993116 -0.61545247 0.24253133 38 190 38 255 0.6087096 0.042910855
-0.34449652 -0.027778497 -0.08215086 0.80334723 -0.5367795 0.25787798 41 188 37 255 0.58680785 0.045786742
-0.34022257 0.019782512 -0.08215087 0.85559005 0.4573231 0.24253124 190 116 5 255 0.4381797 0.04792372
-0.34414998 -0.027130175 -0.08215088 0.8555908 -0.4573214 0.24253152 42 188 37 255 0.5847818 0.045960013
-0.33987603 -0.019134158 -0.08215086 0.8926306 -0.36973867 0.25788385 75 171 28 255 0.55979425 0.048096985
-0.33966264 -0.018430684 -0.08215088 0.92837 -0.2816162 0.24253133 80 167 27 255 0.55759597 0.048203684
-0.33987603 0.019134188 -0.082150854 0.8926291 0.36974275 0.25788325 190 116 5 255 0.44020566 0.04809699
-0.33724415 0.010458004 -0.08215087 0.9283695 0.28161782 0.2425314 190 116 5 255 0.4673187 0.049412932
-0.33703074 0.00975453 -0.082150854 0.947611 0.18849152 0.25788426 190 116 5 255 0.4695171 0.049519632
-0.33614206 0.00073160214 -0.082150854 0.9654723 0.09508932 0.24253134 188 117 5 255 0.49771377 0.049963966
-0.33703074 -0.009754502 -0.08215086 0.94761163 -0.18848872 0.25788417 153 131 12 255 0.5304828 0.04951963
-0.41576582 -0.039999988 -0.082150854 -0.52647275 -0.8489797 0.045386903 38 190 38 255 0.625 0.0101521015
-0.42085707 -0.035821687 -0.08215087 -0.6154524 -0.7499318 0.24252973 38 190 38 255 0.6119428 0.0076064616
-0.42142534 -0.035355326 -0.082150854 -0.6831888 -0.68319225 0.25787836 38 190 38 255 0.6104854 0.00732233
-0.42717713 -0.02834676 -0.08215087 -0.74992955 -0.6154544 0.24253148 38 190 38 255 0.58858365 0.0044464413
-0.42764348 -0.027778497 -0.082150854 -0.80334526 -0.5367805 0.25788215 38 190 38 255 0.5868078 0.00421326
-0.43599796 -0.00073157455 -0.08215086 -0.96546924 -0.09509493 0.24254061 38 190 38 255 0.50228626 3.602803e-05
-0.43489587 -0.010457976 -0.08215087 -0.928368 -0.2816207 0.24253379 38 190 38 255 0.5326811 0.0005870669
-0.43510926 -0.009754502 -0.08215085 -0.9476118 -0.1884915 0.25788113 38 190 38 255 0.5304829 0.0004803687
-0.3563742 -0.039999988 -0.09715086 0.26298717 -0.94227135 -0.20727396 38 190 38 255 0.8516576 0.5
-0.41576582 0.04000001 -0.09715084 -0.26298958 0.94227016 -0.20727612 38 190 38 255 0.35165775 0.5
-0.4157658 0.039999984 0.102849156 -0.16554269 0.9845489 0.057086833 38 190 38 255 0.3516577 1
-0.35637417 -0.040000014 0.10284913 0.16554135 -0.98454934 0.05708479 38 190 38 255 0.85165775 1
-0.42085707 0.035821684 0.08784917 -0.567419 0.6914035 -0.44721025 38 190 38 255 0.38805723 0.7423935
-0.42142534 0.035355322 0.08784917 -0.62379473 0.62379116 -0.47091904 38 190 38 255 0.38951457 0.7426777
-0.4271771 0.028346756 0.08784916 -0.69140226 0.56742036 -0.44721046 38 190 38 255 0.41141635 0.74555355
-0.42764348 0.027778493 0.08784916 -0.73350126 0.49011135 -0.47092125 38 190 38 255 0.41319218 0.7457868
-0.43599796 0.00073156896 0.08784916 -0.89011407 0.08766925 -0.44722593 38 190 38 255 0.4977138 0.749964
-0.43489587 0.010457973 0.08784916 -0.8559151 0.25963867 -0.4472103 38 190 38 255 0.46731874 0.749413
-0.43510926 0.0097544985 0.08784916 -0.86522496 0.17210391 -0.4709203 38 190 38 255 0.4695171 0.7495196
-0.43518132 -0.0090229465 0.08784916 -0.8901211 -0.08767009 -0.44721168 38 190 38 255 0.52819663 0.74955565
-0.43510926 -0.009754536 0.08784916 -0.86522484 -0.17210485 -0.47092026 38 190 38 255 0.5304829 0.74951965
-0.43247736 -0.01843072 0.087849155 -0.8559163 -0.25963554 -0.4472097 38 188 37 255 0.55759597 0.74820364
-0.42142534 -0.03535536 0.087849155 -0.62379646 -0.6237906 -0.47091767 38 190 38 255 0.6104854 0.7426776
-0.42764348 -0.02777853 0.087849155 -0.7335009 -0.4901119 -0.47092116 38 190 38 255 0.5868078 0.7457868
-0.4218917 -0.034787096 0.087849155 -0.6914059 -0.5674162 -0.4472102 38 190 38 255 0.6087097 0.74291086
-0.3563742 0.03999998 0.10284915 0.16554204 0.9845492 0.057085123 48 184 35 255 0.057999983 0.3925398
-0.41576582 -0.04000001 0.10284914 -0.16554733 -0.9845483 0.057085235 38 190 38 255 0.44199997 0.10746008
3 0 1 2
3 3 4 1
3 5 6 7
3 8 9 10
3 11 12 13
3 14 15 16
3 17 18 19
3 20 21 22
3 23 24 21
3 25 26 27
3 24 28 29
3 30 31 25
3 32 33 34
3 35 36 33
3 37 38 36
3 39 40 38
3 41 42 40
3 43 44 42
3 45 46 44
3 47 48 49
3 50 51 52
3 53 54 51
3 55 56 54
3 57 58 56
3 59 60 58
3 61 62 60
3 63 64 62
3 65 66 67
3 32 35 33
3 35 37 36
3 37 39 38
3 39 41 40
3 41 43 42
3 43 45 44
3 68 45 69
3 50 53 51
3 53 55 54
3 55 57 56
3 57 59 58
3 59 61 60
3 61 63 62
3 70 63 71
3 72 73 74
3 74 75 72
3 75 76 72
3 77 78 76
3 79 80 81
3 80 82 81
3 82 83 81
3 84 85 81
3 76 86 72
3 81 87 79
3 67 88 89
3 89 90 91
3 92 93 91
3 94 95 96
3 96 97 98
3 98 99 100
3 100 101 102
3 103 104 65
3 65 105 106
3 106 107 108
3 109 110 108
3 111 112 113
3 113 114 115
3 115 116 117
3 117 118 119
3 120 121 67
3 89 122 67
3 91 123 89
3 91 93 124
3 98 125 96
3 100 126 98
3 100 102 127
3 106 128 65
3 108 129 106
3 108 110 130
3 115 66 113
3 117 131 115
3 117 119 132
3 67 125 65
3 132 120 67
3 133 134 135
3 128 129 113
3 136 137 138
3 123 124 96
3 139 135 134
3 93 140 94
3 124 94 96
3 127 103 65
3 141 142 143
3 102 144 103
3 145 146 147
3 148 20 149
3 150 151 152
3 153 68 154
3 122 123 96
3 155 156 157
3 158 159 160
3 161 162 163
3 164 165 166
3 167 168 169
3 125 122 96
3 136 170 171
3 119 172 120
3 139 173 174
3 66 131 67
3 175 160 159
3 176 177 178
3 70 157 156
3 145 179 180
3 130 111 113
3 164 181 182
3 141 183 184
3 155 185 186
3 131 132 67
3 187 184 183
3 176 182 181
3 133 188 189
3 190 180 179
3 125 126 65
3 191 186 185
3 175 166 165
3 187 169 168
3 192 174 173
3 193 143 142
3 194 70 156
3 161 171 170
3 158 154 195
3 66 128 113
3 167 196 197
3 191 138 137
3 129 130 113
3 126 127 65
3 110 198 111
3 192 147 146
3 68 195 154
3 199 197 196
3 200 157 201
3 202 155 200
3 203 52 193
3 204 173 205
3 206 181 207
3 87 208 79
3 209 133 210
3 211 175 212
3 213 197 214
3 215 191 216
3 217 34 190
3 218 147 219
3 219 192 204
3 86 220 72
3 221 167 213
3 222 223 79
3 216 185 202
3 224 145 218
3 220 225 72
3 226 138 215
3 210 189 227
3 228 141 229
3 212 159 230
3 231 170 232
3 230 158 233
3 225 234 72
3 207 164 235
3 233 195 236
3 237 134 209
3 49 238 177
3 235 166 211
3 239 50 52
3 240 32 34
3 229 184 241
3 242 243 244
3 245 246 247
3 214 199 248
3 241 187 249
3 250 161 231
3 234 251 72
3 232 136 226
3 249 168 221
3 208 222 79
3 205 139 237
3 223 252 79
3 0 3 1
3 3 5 4
3 253 4 254
3 4 5 7
3 254 4 255
3 5 256 257
3 258 259 5
3 259 260 5
3 5 257 258
3 255 4 261
3 261 4 262
3 260 263 5
3 263 264 5
3 264 265 5
3 265 266 5
3 262 4 267
3 267 4 268
3 5 266 6
3 269 4 270
3 269 268 4
3 270 4 7
3 10 244 8
3 8 247 9
3 13 271 272
3 271 4 272
3 4 253 272
3 273 244 274
3 244 13 274
3 13 272 275
3 13 275 276
3 277 274 13
3 12 277 13
3 13 276 11
3 256 5 278
3 5 279 278
3 14 247 280
3 247 281 280
3 282 278 14
3 278 279 14
3 14 280 283
3 14 283 15
3 284 282 14
3 16 284 14
3 19 285 286
3 287 288 19
3 288 289 19
3 19 286 287
3 290 291 19
3 18 290 19
3 289 292 19
3 292 17 19
3 20 23 21
3 23 25 24
3 293 24 27
3 24 25 27
3 294 295 296
3 295 21 296
3 24 297 298
3 297 299 298
3 300 296 24
3 296 21 24
3 24 298 301
3 24 301 302
3 303 300 24
3 304 303 24
3 24 302 305
3 24 305 28
3 29 304 24
3 25 23 306
3 23 307 306
3 307 308 306
3 309 310 311
3 310 25 311
3 25 306 312
3 25 312 313
3 314 311 25
3 315 314 25
3 25 313 316
3 25 316 317
3 31 315 25
3 25 317 30
3 45 68 46
3 46 153 44
3 48 248 238
3 248 199 238
3 199 196 178
3 199 178 238
3 48 238 49
3 63 70 64
3 64 194 62
3 65 128 66
3 45 318 69
3 69 236 68
3 236 195 68
3 63 319 71
3 71 201 70
3 201 157 70
3 77 320 78
3 84 321 85
3 76 78 86
3 81 85 87
3 92 140 93
3 109 198 110
3 89 123 122
3 91 124 123
3 98 126 125
3 100 127 126
3 106 129 128
3 108 130 129
3 115 131 66
3 117 132 131
3 67 122 125
3 132 119 120
3 136 171 137
3 139 174 135
3 124 93 94
3 127 102 103
3 102 101 144
3 145 180 146
3 22 322 323
3 324 325 22
3 325 326 22
3 22 323 324
3 327 20 328
3 20 22 149
3 328 20 329
3 329 20 330
3 22 326 331
3 330 20 332
3 333 332 20
3 333 20 334
3 22 331 335
3 335 336 22
3 336 337 22
3 337 338 22
3 338 149 22
3 339 20 148
3 339 334 20
3 152 340 341
3 342 343 152
3 343 344 152
3 152 341 342
3 345 285 152
3 151 346 152
3 346 347 152
3 347 345 152
3 152 344 150
3 153 46 68
3 155 186 156
3 164 182 165
3 119 118 172
3 175 165 160
3 130 110 111
3 141 143 183
3 176 178 182
3 133 135 188
3 190 348 180
3 191 137 186
3 187 183 169
3 192 146 174
3 193 349 143
3 194 64 70
3 161 163 171
3 158 160 154
3 167 169 196
3 200 155 157
3 202 185 155
3 142 228 203
3 52 349 193
3 193 142 203
3 204 192 173
3 206 176 181
3 209 134 133
3 211 166 175
3 213 167 197
3 215 138 191
3 179 224 217
3 34 348 190
3 190 179 217
3 218 145 147
3 219 147 192
3 221 168 167
3 216 191 185
3 224 179 145
3 226 136 138
3 210 133 189
3 228 142 141
3 212 175 159
3 231 161 170
3 230 159 158
3 207 181 164
3 233 158 195
3 237 139 134
3 177 176 49
3 176 206 49
3 238 178 177
3 206 48 49
3 235 164 166
3 52 203 239
3 239 350 50
3 34 217 240
3 240 351 32
3 229 141 184
3 244 273 352
3 353 354 244
3 354 355 244
3 244 352 353
3 356 8 244
3 243 357 244
3 357 358 244
3 358 356 244
3 355 242 244
3 247 8 359
3 360 361 247
3 361 245 247
3 247 359 360
3 362 281 247
3 363 364 247
3 364 362 247
3 246 363 247
3 214 197 199
3 241 184 187
3 250 162 161
3 234 365 251
3 232 170 136
3 249 187 168
3 205 173 139
3 223 366 252
