ply
format ascii 1.0
comment Created in Blender version 4.2.2 LTS
element vertex 130
property float x
property float y
property float z
property uchar red
property uchar green
property uchar blue
property uchar alpha
property float s
property float t
element face 124
property list uchar uint vertex_indices
end_header
0 -0.10000001 0.2 175 190 27 255 1 1
0.009754516 -0.10096075 0.10000001 175 190 27 255 0.96875 0.5
0 -0.10000001 0.10000001 175 190 27 255 1 0.5
0.009754516 -0.10096075 0.2 175 190 27 255 0.96875 1
0.019134173 -0.103806034 0.10000001 175 190 27 255 0.9375 0.5
0.019134173 -0.103806034 0.2 175 190 27 255 0.9375 1
0.027778512 -0.108426526 0.10000001 175 190 27 255 0.90625 0.5
0.027778512 -0.108426526 0.2 175 190 27 255 0.90625 1
0.03535534 -0.11464466 0.10000001 175 190 27 255 0.875 0.5
0.03535534 -0.11464466 0.2 175 190 27 255 0.875 1
0.04157348 -0.12222149 0.10000001 175 190 27 255 0.84375 0.5
0.04157348 -0.12222149 0.2 175 190 27 255 0.84375 1
0.046193976 -0.13086583 0.10000001 175 190 27 255 0.8125 0.5
0.046193976 -0.13086583 0.2 178 193 34 255 0.8125 1
0.049039263 -0.1402455 0.10000001 175 190 27 255 0.78125 0.5
0.049039263 -0.1402455 0.2 184 197 48 255 0.78125 1
0.05 -0.15 0.10000001 175 190 27 255 0.75 0.5
0.05 -0.15 0.2 186 197 53 255 0.75 1
0.049039263 -0.15975451 0.10000001 175 190 27 255 0.71875 0.5
0.049039263 -0.15975451 0.2 182 195 46 255 0.71875 1
0.046193976 -0.16913418 0.10000001 175 190 27 255 0.6875 0.5
0.046193976 -0.16913418 0.2 178 193 36 255 0.6875 1
0.04157348 -0.17777851 0.10000001 175 190 27 255 0.65625 0.5
0.04157348 -0.17777851 0.2 176 192 31 255 0.65625 1
0.03535534 -0.18535535 0.10000001 175 190 27 255 0.625 0.5
0.03535534 -0.18535535 0.2 176 192 33 255 0.625 1
0.027778512 -0.19157349 0.10000001 175 190 27 255 0.59375 0.5
0.027778512 -0.19157349 0.2 178 193 39 255 0.59375 1
0.019134173 -0.19619398 0.10000001 175 190 27 255 0.5625 0.5
0.019134173 -0.19619398 0.2 186 199 53 255 0.5625 1
0.009754516 -0.19903927 0.10000001 175 190 27 255 0.53125 0.5
0.009754516 -0.19903927 0.2 193 205 73 255 0.53125 1
0 -0.2 0.10000001 175 190 27 255 0.5 0.5
0 -0.2 0.2 197 205 83 255 0.5 1
-0.009754516 -0.19903927 0.10000001 175 190 27 255 0.46875 0.5
-0.009754516 -0.19903927 0.2 193 203 73 255 0.46875 1
-0.019134173 -0.19619398 0.10000001 175 190 27 255 0.4375 0.5
-0.019134173 -0.19619398 0.2 176 192 31 255 0.4375 1
-0.027778512 -0.19157349 0.10000001 175 190 27 255 0.40625 0.5
-0.027778512 -0.19157349 0.2 175 190 27 255 0.40625 1
-0.03535534 -0.18535535 0.10000001 175 190 27 255 0.375 0.5
-0.03535534 -0.18535535 0.2 175 190 27 255 0.375 1
-0.04157348 -0.17777851 0.10000001 175 190 27 255 0.34375 0.5
-0.04157348 -0.17777851 0.2 175 190 27 255 0.34375 1
-0.046193976 -0.16913418 0.10000001 176 192 29 255 0.3125 0.5
-0.046193976 -0.16913418 0.2 178 193 35 255 0.3125 1
-0.049039263 -0.15975451 0.10000001 184 197 50 255 0.28125 0.5
-0.049039263 -0.15975451 0.2 175 192 29 255 0.28125 1
-0.05 -0.15 0.10000001 186 199 56 255 0.25 0.5
-0.05 -0.15 0.2 175 190 27 255 0.25 1
-0.049039263 -0.1402455 0.10000001 176 192 30 255 0.21875 0.5
-0.049039263 -0.1402455 0.2 175 190 27 255 0.21875 1
-0.046193976 -0.13086583 0.10000001 175 190 27 255 0.1875 0.5
-0.046193976 -0.13086583 0.2 175 190 27 255 0.1875 1
-0.04157348 -0.12222149 0.10000001 175 190 27 255 0.15625 0.5
-0.04157348 -0.12222149 0.2 175 190 27 255 0.15625 1
-0.03535534 -0.11464466 0.10000001 175 190 27 255 0.125 0.5
-0.03535534 -0.11464466 0.2 175 190 27 255 0.125 1
-0.027778512 -0.108426526 0.10000001 178 192 33 255 0.09375 0.5
-0.027778512 -0.108426526 0.2 175 190 27 255 0.09375 1
-0.019134173 -0.103806034 0.10000001 193 207 74 255 0.0625 0.5
-0.019134173 -0.19619398 0.2 176 192 31 255 0.15815598 0.028268918
0.046193976 -0.16913418 0.2 178 193 36 255 0.47173107 0.15815598
0.019134173 -0.103806034 0.2 175 190 27 255 0.34184402 0.47173107
-0.019134173 -0.103806034 0.2 175 190 27 255 0.0625 1
-0.009754516 -0.10096075 0.10000001 184 197 47 255 0.03125 0.5
-0.009754516 -0.10096075 0.2 175 190 27 255 0.03125 1
0 -0.10000001 0.10000001 175 190 27 255 0 0.5
0.009754516 -0.19903927 0.10000001 175 190 27 255 0.79682165 0.014611542
-0.049039263 -0.15975451 0.10000001 184 197 50 255 0.51461154 0.20317832
-0.009754516 -0.10096075 0.10000001 184 197 47 255 0.70317835 0.48538846
0.009754516 -0.10096075 0.2 175 190 27 255 0.29682168 0.48538846
0 -0.10000001 0.2 175 190 27 255 0.25 0.49
-0.009754516 -0.10096075 0.2 175 190 27 255 0.20317832 0.48538846
-0.019134173 -0.103806034 0.2 175 190 27 255 0.15815598 0.47173107
-0.027778512 -0.108426526 0.2 175 190 27 255 0.11666314 0.4495527
-0.03535534 -0.11464466 0.2 175 190 27 255 0.080294386 0.41970563
-0.04157348 -0.12222149 0.2 175 190 27 255 0.0504473 0.38333684
-0.046193976 -0.13086583 0.2 175 190 27 255 0.028268918 0.34184402
-0.049039263 -0.1402455 0.2 175 190 27 255 0.014611542 0.29682168
-0.05 -0.15 0.2 175 190 27 255 0.010000005 0.25
-0.049039263 -0.15975451 0.2 175 192 29 255 0.014611542 0.20317832
-0.046193976 -0.16913418 0.2 178 193 35 255 0.028268918 0.15815598
-0.04157348 -0.17777851 0.2 175 190 27 255 0.0504473 0.11666314
-0.03535534 -0.18535535 0.2 175 190 27 255 0.080294386 0.080294386
-0.027778512 -0.19157349 0.2 175 190 27 255 0.11666314 0.0504473
-0.009754516 -0.19903927 0.2 193 203 73 255 0.20317832 0.014611542
0.019134173 -0.19619398 0.2 186 199 53 255 0.34184402 0.028268918
0 -0.2 0.2 197 205 83 255 0.25 0.010000005
0.009754516 -0.19903927 0.2 193 205 73 255 0.29682168 0.014611542
0.027778512 -0.19157349 0.2 178 193 39 255 0.38333684 0.0504473
0.03535534 -0.18535535 0.2 176 192 33 255 0.41970563 0.080294386
0.04157348 -0.17777851 0.2 176 192 31 255 0.4495527 0.11666314
0.049039263 -0.15975451 0.2 182 195 46 255 0.48538846 0.20317832
0.046193976 -0.13086583 0.2 178 193 34 255 0.47173107 0.34184402
0.05 -0.15 0.2 186 197 53 255 0.49 0.25
0.049039263 -0.1402455 0.2 184 197 48 255 0.48538846 0.29682168
0.04157348 -0.12222149 0.2 175 190 27 255 0.4495527 0.38333684
0.03535534 -0.11464466 0.2 175 190 27 255 0.41970563 0.41970563
0.027778512 -0.108426526 0.2 175 190 27 255 0.38333684 0.4495527
0 -0.10000001 0.2 175 190 27 255 0 1
0 -0.10000001 0.10000001 175 190 27 255 0.75 0.49
0.009754516 -0.10096075 0.10000001 175 190 27 255 0.79682165 0.48538846
0.019134173 -0.103806034 0.10000001 175 190 27 255 0.841844 0.47173107
0.027778512 -0.108426526 0.10000001 175 190 27 255 0.88333684 0.4495527
0.03535534 -0.11464466 0.10000001 175 190 27 255 0.9197056 0.41970563
0.04157348 -0.12222149 0.10000001 175 190 27 255 0.9495527 0.38333684
0.046193976 -0.13086583 0.10000001 175 190 27 255 0.97173107 0.34184402
0.049039263 -0.1402455 0.10000001 175 190 27 255 0.98538846 0.29682168
0.05 -0.15 0.10000001 175 190 27 255 0.99 0.25
0.049039263 -0.15975451 0.10000001 175 190 27 255 0.98538846 0.20317832
0.046193976 -0.16913418 0.10000001 175 190 27 255 0.97173107 0.15815598
0.04157348 -0.17777851 0.10000001 175 190 27 255 0.9495527 0.11666314
0.03535534 -0.18535535 0.10000001 175 190 27 255 0.9197056 0.080294386
0.027778512 -0.19157349 0.10000001 175 190 27 255 0.88333684 0.0504473
0.019134173 -0.19619398 0.10000001 175 190 27 255 0.841844 0.028268918
0 -0.2 0.10000001 175 190 27 255 0.75 0.010000005
-0.009754516 -0.19903927 0.10000001 175 190 27 255 0.70317835 0.014611542
-0.019134173 -0.19619398 0.10000001 175 190 27 255 0.658156 0.028268918
-0.027778512 -0.19157349 0.10000001 175 190 27 255 0.61666316 0.0504473
-0.03535534 -0.18535535 0.10000001 175 190 27 255 0.5802944 0.080294386
-0.04157348 -0.17777851 0.10000001 175 190 27 255 0.5504473 0.11666314
-0.046193976 -0.16913418 0.10000001 176 192 29 255 0.52826893 0.15815598
-0.05 -0.15 0.10000001 186 199 56 255 0.51 0.25
-0.049039263 -0.1402455 0.10000001 176 192 30 255 0.51461154 0.29682168
-0.046193976 -0.13086583 0.10000001 175 190 27 255 0.52826893 0.34184402
-0.04157348 -0.12222149 0.10000001 175 190 27 255 0.5504473 0.38333684
-0.03535534 -0.11464466 0.10000001 175 190 27 255 0.5802944 0.41970563
-0.027778512 -0.108426526 0.10000001 178 192 33 255 0.61666316 0.4495527
-0.019134173 -0.103806034 0.10000001 193 207 74 255 0.658156 0.47173107
3 0 1 2
3 3 4 1
3 5 6 4
3 7 8 6
3 9 10 8
3 11 12 10
3 13 14 12
3 15 16 14
3 17 18 16
3 19 20 18
3 21 22 20
3 23 24 22
3 25 26 24
3 27 28 26
3 29 30 28
3 31 32 30
3 33 34 32
3 35 36 34
3 37 38 36
3 39 40 38
3 41 42 40
3 43 44 42
3 45 46 44
3 47 48 46
3 49 50 48
3 51 52 50
3 53 54 52
3 55 56 54
3 57 58 56
3 59 60 58
3 61 62 63
3 64 65 60
3 66 67 65
3 68 69 70
3 0 3 1
3 3 5 4
3 5 7 6
3 7 9 8
3 9 11 10
3 11 13 12
3 13 15 14
3 15 17 16
3 17 19 18
3 19 21 20
3 21 23 22
3 23 25 24
3 25 27 26
3 27 29 28
3 29 31 30
3 31 33 32
3 33 35 34
3 35 37 36
3 37 39 38
3 39 41 40
3 41 43 42
3 43 45 44
3 45 47 46
3 47 49 48
3 49 51 50
3 51 53 52
3 53 55 54
3 55 57 56
3 57 59 58
3 59 64 60
3 63 71 72
3 72 73 63
3 73 74 63
3 74 75 76
3 76 77 78
3 78 79 80
3 80 81 78
3 81 82 78
3 82 83 84
3 84 85 61
3 61 86 87
3 86 88 87
3 88 89 87
3 87 90 91
3 91 92 62
3 62 93 94
3 93 95 94
3 95 96 94
3 94 97 98
3 98 99 63
3 74 76 63
3 76 78 63
3 82 84 78
3 84 61 78
3 87 91 61
3 91 62 61
3 94 98 62
3 98 63 62
3 63 78 61
3 64 66 65
3 66 100 67
3 70 101 102
3 102 103 104
3 104 105 106
3 106 107 108
3 108 109 110
3 110 111 112
3 112 113 114
3 114 115 68
3 68 116 117
3 117 118 119
3 119 120 121
3 121 122 69
3 69 123 124
3 124 125 126
3 126 127 128
3 128 129 70
3 70 102 108
3 102 104 108
3 104 106 108
3 108 110 68
3 110 112 68
3 112 114 68
3 68 117 69
3 117 119 69
3 119 121 69
3 69 124 70
3 124 126 70
3 126 128 70
3 70 108 68
