ply
format ascii 1.0
comment Created in Blender version 4.2.2 LTS
element vertex 14
property float x
property float y
property float z
property float nx
property float ny
property float nz
property uchar red
property uchar green
property uchar blue
property uchar alpha
property float s
property float t
element face 6
property list uchar uint vertex_indices
end_header
-0.025 0 0.025 -0.7022469 -0.117041156 0.7022469 4 190 148 255 0.375 0
0.025 0 0.025 0.7022469 -0.117041156 0.7022469 4 190 148 255 0.625 0
0.025 0.3 0.025 0.7022469 0.117041156 0.7022469 4 190 148 255 0.625 0.25
-0.025 0.3 0.025 -0.7022469 0.117041156 0.7022469 5 190 148 255 0.375 0.25
0.025 0.3 -0.025 0.7022469 0.117041156 -0.7022469 4 190 148 255 0.625 0.5
-0.025 0.3 -0.025 -0.7022469 0.117041156 -0.7022469 4 190 148 255 0.375 0.5
0.025 0 -0.025 0.7022469 -0.117041156 -0.7022469 4 190 148 255 0.625 0.75
-0.025 0 -0.025 -0.7022469 -0.117041156 -0.7022469 4 190 148 255 0.375 0.75
0.025 0 0.025 0.7022469 -0.117041156 0.7022469 4 190 148 255 0.625 1
-0.025 0 0.025 -0.7022469 -0.117041156 0.7022469 4 190 148 255 0.375 1
-0.025 0.3 0.025 -0.7022469 0.117041156 0.7022469 5 190 148 255 0.125 0.5
-0.025 0 0.025 -0.7022469 -0.117041156 0.7022469 4 190 148 255 0.125 0.75
0.025 0.3 0.025 0.7022469 0.117041156 0.7022469 4 190 148 255 0.875 0.5
0.025 0 0.025 0.7022469 -0.117041156 0.7022469 4 190 148 255 0.875 0.75
4 0 1 2 3
4 3 2 4 5
4 5 4 6 7
4 7 6 8 9
4 10 5 7 11
4 4 12 13 6
