ply
format ascii 1.0
comment Created in Blender version 4.2.2 LTS
element vertex 14
property float x
property float y
property float z
property float nx
property float ny
property float nz
property uchar red
property uchar green
property uchar blue
property uchar alpha
property float s
property float t
element face 6
property list uchar uint vertex_indices
end_header
-2.4772904 0.93023795 0.75 -0.006665926 -0.999889 -0.013331852 197 252 255 255 0.375 0
-2.4772904 0.93023795 2.25 -0.006665926 -0.999889 0.013331852 162 250 255 255 0.625 0
-2.4772904 0.95023793 2.25 -0.006665926 0.999889 0.013331852 139 250 255 255 0.625 0.25
-2.4772904 0.95023793 0.75 -0.006665926 0.999889 -0.013331852 152 250 255 255 0.375 0.25
0.52270967 0.95023793 2.25 0.006665926 0.999889 0.013331852 145 250 255 255 0.625 0.5
0.52270967 0.95023793 0.75 0.006665926 0.999889 -0.013331852 164 250 255 255 0.375 0.5
0.52270967 0.93023795 2.25 0.006665926 -0.999889 0.013331852 155 250 255 255 0.625 0.75
0.52270967 0.93023795 0.75 0.006665926 -0.999889 -0.013331852 188 252 255 255 0.375 0.75
-2.4772904 0.93023795 2.25 -0.006665926 -0.999889 0.013331852 162 250 255 255 0.625 1
-2.4772904 0.93023795 0.75 -0.006665926 -0.999889 -0.013331852 197 252 255 255 0.375 1
-2.4772904 0.95023793 0.75 -0.006665926 0.999889 -0.013331852 152 250 255 255 0.125 0.5
-2.4772904 0.93023795 0.75 -0.006665926 -0.999889 -0.013331852 197 252 255 255 0.125 0.75
-2.4772904 0.95023793 2.25 -0.006665926 0.999889 0.013331852 139 250 255 255 0.875 0.5
-2.4772904 0.93023795 2.25 -0.006665926 -0.999889 0.013331852 162 250 255 255 0.875 0.75
4 0 1 2 3
4 3 2 4 5
4 5 4 6 7
4 7 6 8 9
4 10 5 7 11
4 4 12 13 6
