ply
format ascii 1.0
comment Created in Blender version 4.2.2 LTS
element vertex 107
property float x
property float y
property float z
property float nx
property float ny
property float nz
property uchar red
property uchar green
property uchar blue
property uchar alpha
property float s
property float t
element face 107
property list uchar uint vertex_indices
end_header
2.45 -1.1000001 2.25 -0.101761594 -0.46016568 -0.8819819 70 70 67 255 0.6 0
2.45 1.1000003 0.79999995 -0.03828692 0.08656612 0.9955102 70 70 67 255 0.455 0.25
2.45 1.0136235 0.79999995 -0.31760278 -0.23935433 0.9175173 70 70 67 255 0.455 0.24018446
2.5500002 1.1000003 2.2499998 0.40449888 0.9145385 0 70 70 67 255 0.6 0.5
2.5250003 1.1000003 -2.3841858e-07 0.038289253 0.08656815 -0.99550986 70 70 67 255 0.375 0.4375002
2.5250003 1.1000003 0.79999995 0.09049297 0.6137799 0.78427374 70 70 67 255 0.45500004 0.43750018
2.5500002 -1.1000001 2.25 0.40449637 -0.9145396 -3.5023655e-07 70 70 67 255 0.59999996 0.75
2.5500002 -1.1000003 2.4999998 0.110952646 -0.2508608 0.9616435 70 70 67 255 0.625 0.75
2.45 -1.1000001 2.25 -0.101761594 -0.46016568 -0.8819819 70 70 67 255 0.6 1
2.45 -1.1000003 2.4999998 -0.11095861 -0.25086716 0.96164125 70 70 67 255 0.625 1
2.45 -1.1000003 -2.3841858e-07 -0.11096014 -0.2508664 -0.96164125 72 72 70 255 0.125 0.75
2.4539263 1.0136235 -2.3841858e-07 -1.1433161e-05 0 -1 70 70 67 255 0.13481553 0.50981545
2.5250003 1.0136235 -2.3841858e-07 0 0 -1 70 70 67 255 0.31250024 0.5098156
2.4538624 1.0150322 -2.3841858e-07 -8.57028e-05 0 -1 70 70 67 255 0.13465552 0.5096554
2.45 1.0136235 -2.3841858e-07 -0.038286835 -0.08656481 -0.9955103 70 70 67 255 0.125 0.5098156
2.45 1.0151087 -2.3841858e-07 1.2364357e-08 0 -1 70 70 67 255 0.125 0.5096468
2.5250003 1.1000003 -2.3841858e-07 0.038289253 0.08656815 -0.99550986 70 70 67 255 0.3125002 0.5
2.45 1.1000003 2.4999998 -0.110952646 0.25086084 0.9616435 70 70 67 255 0.875 0.5
2.5500002 1.1000003 2.4999998 0.11095861 0.25086722 0.96164125 70 70 67 255 0.625 0.5
-2.5500002 -1.1000001 2.25 -0.10176337 -0.4601658 -0.8819816 70 70 67 255 0.6 0
-2.5500002 1.1000003 -2.3841858e-07 -0.11095432 0.25086334 -0.9616427 70 70 67 255 0.375 0.25
-2.5500002 -1.1000003 -2.3841858e-07 -0.11094809 -0.25083905 -0.9616497 78 78 76 255 0.375 0
-2.5500002 1.1000003 2.25 -0.40450394 0.9145362 -1.9837843e-07 70 70 67 255 0.59999996 0.25
-2.45 1.1000003 0.79999995 0.038288653 0.086565994 0.99551 71 71 68 255 0.45499998 0.5
-2.5250003 1.1000003 0.79999995 -0.09049294 0.61377865 0.7842747 71 71 68 255 0.455 0.3124998
-2.45 1.1000003 2.25 0.40449575 0.9145399 -1.3384594e-07 70 70 67 255 0.59999996 0.5
-2.45 -1.1000003 2.2673078 0.40449795 -0.91453886 -1.5609169e-08 70 70 67 255 0.6017308 0.75
-2.45 1.0136235 0.79999995 0.3176036 -0.23935243 0.91751736 70 70 67 255 0.45499995 0.50981545
-2.5500002 -1.1000001 2.25 -0.10176337 -0.4601658 -0.8819816 70 70 67 255 0.6 1
-2.5500002 -1.1000003 2.255769 -0.40450346 -0.9145365 0 70 70 67 255 0.60057694 1
-2.5500002 -1.1000003 -2.3841858e-07 -0.11094809 -0.25083905 -0.9616497 78 78 76 255 0.125 0.75
-2.5250003 1.1000003 -2.3841858e-07 -0.038288854 0.0865666 -0.99551004 70 70 67 255 0.18749982 0.5
-2.5250003 1.0136235 -2.3841858e-07 -5.7042256e-05 0 -1 70 70 67 255 0.1874998 0.5098155
-2.45 1.1000003 -2.3841858e-07 0 0 -1 70 70 67 255 0.375 0.5
-2.5500002 1.1000003 2.4999998 -0.11095226 0.25086084 0.9616436 70 70 67 255 0.875 0.5
-2.45 -1.1000003 2.4999998 0.110952646 -0.2508608 0.9616435 70 70 67 255 0.625 0.75
-2.45 1.1000003 2.4999998 0.110958606 0.25086713 0.9616413 70 70 67 255 0.625 0.5
-2.6 1.2 2.5339725 -0.20280014 0.5218243 0.8285961 70 70 67 255 0.49332196 0.25
2.6 1.2 2.25 0.110951275 0.25084305 -0.96164834 74 74 72 255 0.375 0.5
-2.6 1.2 2.25 -0.11095874 0.25086325 -0.96164227 70 70 67 255 0.375 0.25
2.6 -0.011438157 2.85 0.100287214 0.10689072 0.9892001 70 70 67 255 0.625 0.6316781
2.6 -1.1000001 2.25 0.110957555 -0.25086558 -0.96164185 70 70 67 255 0.375 0.75
2.6 -1.1000001 2.85 0.110962264 -0.25088355 0.9616365 70 70 67 255 0.625 0.75
-2.5500002 -1.1000001 2.25 -0.10176337 -0.4601658 -0.8819816 70 70 67 255 0.37500003 0.9975962
2.45 -1.1000001 2.25 -0.101761594 -0.46016568 -0.8819819 70 70 67 255 0.375 0.75721157
2.45 -1.1000001 2.25 -0.101761594 -0.46016568 -0.8819819 70 70 67 255 0.3677885 0.75
-2.5500002 -1.1000001 2.25 -0.10176337 -0.4601658 -0.8819816 70 70 67 255 0.12740384 0.75000006
-2.6 -1.1000001 2.25 -0.110952504 -0.25086376 -0.96164274 70 70 67 255 0.375 0
-2.6 -0.011438157 2.85 -0.10028989 0.10689107 0.9891998 70 70 67 255 0.625 0.11832194
2.6 -0.011438157 2.85 0.100287214 0.10689072 0.9892001 70 70 67 255 0.625 0.5
-2.6 -0.011438157 2.85 -0.10028989 0.10689107 0.9891998 70 70 67 255 0.625 0.25
-2.6 -0.011438157 2.85 -0.10028989 0.10689107 0.9891998 70 70 67 255 0.875 0.6316781
-2.5500002 1.1000003 2.4999998 -0.11095226 0.25086084 0.9616436 70 70 67 255 0.625 0.25
-2.5500002 -1.1000003 2.255769 -0.40450346 -0.9145365 0 70 70 67 255 0.60057694 0
2.4500003 1.1000003 2.2499998 -0.40450332 0.9145365 -1.037959e-07 70 70 67 255 0.6 0.25
2.45 1.1000003 2.4999998 -0.110952646 0.25086084 0.9616435 70 70 67 255 0.625 0.25
-2.5250003 1.1136235 0.79999995 -0.11095834 0.25086993 0.96164054 72 72 70 255 0.625 0.25
-2.5250003 1.1000003 -2.3841858e-07 -0.038288854 0.0865666 -0.99551004 70 70 67 255 0.375 0.21594188
-2.5250003 1.1000003 0.79999995 -0.09049294 0.61377865 0.7842747 71 71 68 255 0.625 0.21594188
2.5250003 1.1136235 -2.3841858e-07 0.11096336 0.25088122 -0.96163696 71 71 68 255 0.375 0.5
-2.5250003 1.1136235 -2.3841858e-07 -0.11096363 0.25087428 -0.96163887 72 72 70 255 0.375 0.25
2.5250003 1.1000003 0.79999995 0.09049297 0.6137799 0.78427374 70 70 67 255 0.625 0.5340581
2.5250003 1.1000003 -2.3841858e-07 0.038289253 0.08656815 -0.99550986 70 70 67 255 0.375 0.53405815
2.45 1.0136235 0.79999995 -0.31760278 -0.23935433 0.9175173 70 70 67 255 0.625 0.7537129
-2.45 1.0136235 -2.3841858e-07 0.038287036 -0.08656726 -0.99551 70 70 67 255 0.375 0.9962871
2.45 1.0136235 -2.3841858e-07 -0.038286835 -0.08656481 -0.9955103 70 70 67 255 0.375 0.7537129
2.45 1.1000003 -2.3841858e-07 1.204572e-08 0 -1 70 70 67 255 0.37128714 0.53405815
-2.45 1.1000003 -2.3841858e-07 0 0 -1 70 70 67 255 0.12871288 0.5340581
-2.5250003 1.1136235 -2.3841858e-07 -0.11096363 0.25087428 -0.96163887 72 72 70 255 0.125 0.5
2.5250003 1.1136235 0.79999995 0.110947415 0.25083762 0.96165025 70 70 67 255 0.625 0.5
-2.45 1.1000003 0.79999995 0.038288653 0.086565994 0.99551 71 71 68 255 0.8712871 0.53405815
2.45 1.1000003 0.79999995 -0.03828692 0.08656612 0.9955102 70 70 67 255 0.62871283 0.5340581
2.45 1.0136235 -2.3841858e-07 -0.038286835 -0.08656481 -0.9955103 70 70 67 255 0.375 0.24018447
2.45 -1.1000003 -2.3841858e-07 -0.11096014 -0.2508664 -0.96164125 72 72 70 255 0.375 0
2.5500002 1.1000003 -2.3841858e-07 0.11095394 0.25086248 -0.96164304 70 70 67 255 0.375 0.5
2.5500002 -1.1000003 -2.3841858e-07 0.110958695 -0.25086465 -0.96164197 72 72 70 255 0.375 0.75
2.45 -1.1000003 -2.3841858e-07 -0.11096014 -0.2508664 -0.96164125 72 72 70 255 0.375 1
2.45 1.1000003 -2.3841858e-07 1.204572e-08 0 -1 70 70 67 255 0.125 0.5
2.45 -1.1000003 2.4999998 -0.11095861 -0.25086716 0.96164125 70 70 67 255 0.875 0.75
-2.5250003 1.1000003 -2.3841858e-07 -0.038288854 0.0865666 -0.99551004 70 70 67 255 0.375 0.31249982
-2.45 -1.1000003 -2.3841858e-07 0.110958695 -0.25086465 -0.96164197 84 84 82 255 0.375 0.75
-2.45 1.0136235 -2.3841858e-07 0.038287036 -0.08656726 -0.99551 70 70 67 255 0.375 0.5098156
-2.5500002 -1.1000003 -2.3841858e-07 -0.11094809 -0.25083905 -0.9616497 78 78 76 255 0.375 1
-2.5500002 -1.1000003 2.4999998 -0.110958606 -0.2508673 0.9616412 70 70 67 255 0.625 1
-2.5500002 1.1000003 -2.3841858e-07 -0.11095432 0.25086334 -0.9616427 70 70 67 255 0.125 0.5
-2.5500002 -1.1000003 2.4999998 -0.110958606 -0.2508673 0.9616412 70 70 67 255 0.875 0.75
2.6 1.2 2.5339725 0.20280713 0.5218388 0.82858527 70 70 67 255 0.49332196 0.5
2.5400002 -1.1000003 2.2499998 5.555936e-07 -0.25241992 -0.96761775 70 70 67 255 0.375 0.7528846
-2.6 -1.1000001 2.85 -0.11095874 -0.25086325 0.96164227 70 70 67 255 0.625 1
-2.6 -1.1000001 2.25 -0.110952504 -0.25086376 -0.96164274 70 70 67 255 0.375 1
-2.46 -1.1000003 2.2499998 0 -0.448409 0.8938284 70 70 67 255 0.37500003 0.9932693
-2.6 -1.1000001 2.25 -0.110952504 -0.25086376 -0.96164274 70 70 67 255 0.125 0.75
-2.6 1.2 2.25 -0.11095874 0.25086325 -0.96164227 70 70 67 255 0.125 0.5
2.5400002 -1.1000003 2.2499998 5.555936e-07 -0.25241992 -0.96761775 70 70 67 255 0.3721154 0.75
-2.6 -1.1000001 2.85 -0.11095874 -0.25086325 0.96164227 70 70 67 255 0.625 0
-2.6 -1.1000001 2.85 -0.11095874 -0.25086325 0.96164227 70 70 67 255 0.875 0.75
-2.5500002 -1.1000003 2.4999998 -0.110958606 -0.2508673 0.9616412 70 70 67 255 0.625 0
2.45 -1.1000003 2.4999998 -0.11095861 -0.25086716 0.96164125 70 70 67 255 0.625 0
-2.45 1.0136235 0.79999995 0.3176036 -0.23935243 0.91751736 70 70 67 255 0.625 0.9962871
2.45 1.0151087 -2.3841858e-07 1.2364357e-08 0 -1 70 70 67 255 0.3712871 0.74628705
2.45 1.0136235 -2.3841858e-07 -0.038286835 -0.08656481 -0.9955103 70 70 67 255 0.37128714 0.75
-2.45 1.0136235 -2.3841858e-07 0.038287036 -0.08656726 -0.99551 70 70 67 255 0.12871289 0.75
-2.5250003 1.1000003 -2.3841858e-07 -0.038288854 0.0865666 -0.99551004 70 70 67 255 0.125 0.5340581
-2.5250003 1.1136235 0.79999995 -0.11095834 0.25086993 0.96164054 72 72 70 255 0.875 0.5
-2.5250003 1.1000003 0.79999995 -0.09049294 0.61377865 0.7842747 71 71 68 255 0.875 0.53405815
-2.45 1.0136235 0.79999995 0.3176036 -0.23935243 0.91751736 70 70 67 255 0.8712871 0.75
2.45 1.0136235 0.79999995 -0.31760278 -0.23935433 0.9175173 70 70 67 255 0.6287129 0.75
3 0 1 2
3 3 4 5
3 6 3 7
3 8 6 9
3 10 11 12
3 13 14 15
3 16 11 13
3 17 7 18
3 19 20 21
3 22 23 24
3 25 26 27
3 28 26 29
3 30 31 32
3 33 32 31
3 34 35 36
3 37 38 39
3 40 41 38
3 42 43 44
3 38 45 46
3 47 48 37
3 49 37 50
3 51 42 40
3 22 36 25
3 52 19 53
3 54 18 3
3 0 55 54
3 56 57 58
3 56 59 60
3 59 61 62
3 63 64 65
3 66 67 68
3 69 70 71
3 72 73 0
3 0 54 1
3 2 72 0
3 5 1 54
3 3 74 4
3 5 54 3
3 6 75 74
3 3 18 7
3 6 74 3
3 8 76 75
3 6 7 9
3 8 75 6
3 12 16 74
3 74 75 10
3 10 14 11
3 12 74 10
3 13 11 14
3 15 77 16
3 16 12 11
3 13 15 16
3 17 78 7
3 19 22 20
3 79 20 22
3 22 25 23
3 24 79 22
3 27 23 25
3 25 36 35
3 26 80 81
3 25 35 26
3 26 81 27
3 28 82 80
3 26 35 83
3 28 80 26
3 26 83 29
3 81 80 30
3 30 84 31
3 32 81 30
3 33 81 32
3 34 85 35
3 37 86 38
3 38 86 40
3 40 42 41
3 87 41 42
3 42 88 89
3 43 90 44
3 42 89 43
3 44 87 42
3 91 92 38
3 38 41 93
3 38 93 45
3 46 91 38
3 37 39 47
3 47 94 48
3 49 86 37
3 51 95 42
3 22 52 36
3 53 96 52
3 52 22 19
3 54 55 18
3 0 97 55
3 56 60 57
3 56 69 59
3 59 69 61
3 63 98 64
3 59 62 66
3 99 100 101
3 68 59 66
3 66 99 101
3 67 102 68
3 66 101 67
3 71 61 69
3 69 103 104
3 70 105 106
3 69 104 70
3 70 106 71
